<?xml version="1.0" encoding="UTF-8"?>
<svg width="60px" height="40px" viewBox="0 0 60 40" version="1.1" xmlns="http://www.w3.org/2000/svg" xmlns:xlink="http://www.w3.org/1999/xlink">
    <!-- Generator: Sketch 50.2 (55047) - http://www.bohemiancoding.com/sketch -->
    <title>48</title>
    <desc>Created with Sketch.</desc>
    <defs></defs>
    <g id="Welcome" stroke="none" stroke-width="1" fill="none" fill-rule="evenodd">
        <g id="Desktop-HD" transform="translate(-550.000000, -2432.000000)">
            <g id="48" transform="translate(551.000000, 2433.000000)">
                <path d="M51.35,33 C51.35,30.2385763 49.1114237,28 46.35,28 C43.5885763,28 41.35,30.2385763 41.35,33 C41.35,35.7614237 43.5885763,38 46.35,38 C49.1114237,38 51.35,35.7614237 51.35,33" id="Fill-130" fill="#FFFFFF" fill-rule="nonzero"></path>
                <path d="M51.35,33 C51.35,30.2385763 49.1114237,28 46.35,28 C43.5885763,28 41.35,30.2385763 41.35,33 C41.35,35.7614237 43.5885763,38 46.35,38 C49.1114237,38 51.35,35.7614237 51.35,33 Z" id="Stroke-131" stroke="#0C93D1" stroke-width="2" stroke-linecap="round" stroke-linejoin="round"></path>
                <path d="M56.72,22.75 L52.35,21 L49.73,10.51 C49.5055319,9.62172626 48.7061965,8.99956307 47.79,9 L41.09,9 C39.17,14.31 35.84,20 30.35,20 L3.72,20 L1.28,33 L7.28,33 C7.28,30.2385763 9.51857625,28 12.28,28 C15.0414237,28 17.28,30.2385763 17.28,33 L41.35,33 C41.35,30.2385763 43.5885763,28 46.35,28 C49.1114237,28 51.35,30.2385763 51.35,33 L56.35,33 C56.9022847,33 57.35,32.5522847 57.35,32 L57.35,23.68 C57.3503967,23.2701962 57.100721,22.9016273 56.72,22.75" id="Fill-132" fill="#FFFFFF" fill-rule="nonzero"></path>
                <path d="M56.72,22.75 L52.35,21 L49.73,10.51 C49.5055319,9.62172626 48.7061965,8.99956307 47.79,9 L41.09,9 C39.17,14.31 35.84,20 30.35,20 L3.72,20 L1.28,33 L7.28,33 C7.28,30.2385763 9.51857625,28 12.28,28 C15.0414237,28 17.28,30.2385763 17.28,33 L41.35,33 C41.35,30.2385763 43.5885763,28 46.35,28 C49.1114237,28 51.35,30.2385763 51.35,33 L56.35,33 C56.9022847,33 57.35,32.5522847 57.35,32 L57.35,23.68 C57.3503967,23.2701962 57.100721,22.9016273 56.72,22.75 Z" id="Stroke-133" stroke="#0C93D1" stroke-width="2" stroke-linecap="round" stroke-linejoin="round"></path>
                <path d="M17.28,33 C17.28,30.2385763 15.0414237,28 12.28,28 C9.51857625,28 7.28,30.2385763 7.28,33 C7.28,35.7614237 9.51857625,38 12.28,38 C15.0414237,38 17.28,35.7614237 17.28,33" id="Fill-209" fill="#FFFFFF" fill-rule="nonzero"></path>
                <path d="M17.28,33 C17.28,30.2385763 15.0414237,28 12.28,28 C9.51857625,28 7.28,30.2385763 7.28,33 C7.28,35.7614237 9.51857625,38 12.28,38 C15.0414237,38 17.28,35.7614237 17.28,33 Z" id="Stroke-210" stroke="#0C93D1" stroke-width="2" stroke-linecap="round" stroke-linejoin="round"></path>
                <path d="M12.28,35 C11.1754305,35 10.28,34.1045695 10.28,33 C10.28,31.8954305 11.1754305,31 12.28,31 C13.3845695,31 14.28,31.8954305 14.28,33 C14.28,34.1045695 13.3845695,35 12.28,35" id="Fill-211" stroke="#0C93D1" fill="#0C93D1" fill-rule="nonzero"></path>
                <path d="M46.35,35 C45.2454305,35 44.35,34.1045695 44.35,33 C44.35,31.8954305 45.2454305,31 46.35,31 C47.4545695,31 48.35,31.8954305 48.35,33 C48.35,34.1045695 47.4545695,35 46.35,35" id="Fill-212" stroke="#0C93D1" fill="#0C93D1" fill-rule="nonzero"></path>
                <path d="M44.35,14 L44.35,18.73 C44.35,19.9836864 45.3663136,21 46.62,21 L52.35,21" id="Stroke-213" stroke="#0C93D1" stroke-width="2" stroke-linecap="round" stroke-linejoin="round"></path>
                <path d="M41.35,25 L43.35,25" id="Stroke-214" stroke="#0C93D1" stroke-width="2" stroke-linecap="round" stroke-linejoin="round"></path>
                <path d="M30.35,20 L3.72,20 L7.28,0 L43.35,0 C43.35,0 40.64,20 30.35,20" id="Fill-215" fill-opacity="0.2" fill="#0C93D1" fill-rule="nonzero"></path>
                <path d="M30.35,20 L3.72,20 L7.28,0 L43.35,0 C43.35,0 40.64,20 30.35,20 Z" id="Stroke-216" stroke="#0C93D1" stroke-width="2" stroke-linecap="round" stroke-linejoin="round"></path>
                <path d="M2.13,4 L18.57,4" id="Stroke-250" stroke="#0C93D1" stroke-width="2" stroke-linecap="round" stroke-linejoin="round"></path>
                <path d="M1.42,8 L17.86,8" id="Stroke-251" stroke="#0C93D1" stroke-width="2" stroke-linecap="round" stroke-linejoin="round"></path>
                <path d="M0.71,12 L17.15,12" id="Stroke-252" stroke="#0C93D1" stroke-width="2" stroke-linecap="round" stroke-linejoin="round"></path>
                <path d="M0,16 L16.43,16" id="Stroke-253" stroke="#0C93D1" stroke-width="2" stroke-linecap="round" stroke-linejoin="round"></path>
            </g>
        </g>
    </g>
</svg>