<svg id="Layer_1" data-name="Layer 1" xmlns="http://www.w3.org/2000/svg" viewBox="0 0 60 60"><defs><style>.cls-1{fill:#fff;}.cls-2,.cls-4{fill:none;stroke:#1c81e3;stroke-linecap:round;stroke-width:2px;}.cls-2{stroke-linejoin:round;}.cls-3{fill:#d0e8f9;}</style></defs><title>buyers</title><g id="Page-1"><g id="Real-Estate-2---Webby"><g id="_1--Give-Keys--_house_-home_-property_-real_-estate_" data-name="1--Give-Keys--(house,-home,-property,-real,-estate)"><path id="Fill-108" class="cls-1" d="M25.09,13.06a2.44,2.44,0,0,1,2.85-2.85l3.5.53A7,7,0,1,0,25,15l.38,0Z" transform="translate(0 0)"/><path id="Stroke-109" class="cls-2" d="M25.09,13.06a2.44,2.44,0,0,1,2.85-2.85l3.5.53A7,7,0,1,0,25,15l.38,0-.29-1.92Z" transform="translate(0 0)"/><path id="Fill-110" class="cls-1" d="M58.3,40.17a1.93,1.93,0,0,0,.35-2.6c-1.25-1.74-2.29-2.16-6.65.13L43.33,43c-2.65,1.41-9.61,1-12.61,1,0,0,7.08.48,4.26-3.74A7.62,7.62,0,0,0,28.62,37h-3.9a10.49,10.49,0,0,1-6.33-2C14.15,31.73,6,38,6,38V56H20a39.71,39.71,0,0,0,6-.45l13-2a6,6,0,0,0,1.29-.15h0A5.11,5.11,0,0,0,43.1,52Z" transform="translate(0 0)"/><path id="Stroke-111" class="cls-2" d="M58.3,40.17a1.93,1.93,0,0,0,.35-2.6c-1.25-1.74-2.29-2.16-6.65.13L43.33,43c-2.65,1.41-9.61,1-12.61,1,0,0,7.08.48,4.26-3.74A7.62,7.62,0,0,0,28.62,37h-3.9a10.49,10.49,0,0,1-6.33-2C14.15,31.73,6,38,6,38V56H20a39.71,39.71,0,0,0,6-.45l13-2a6,6,0,0,0,1.29-.15h0A5.11,5.11,0,0,0,43.1,52L58.3,40.17Z" transform="translate(0 0)"/><polygon id="Fill-112" class="cls-3" points="1 59 6 59 6 35 1 35 1 59"/><polygon id="Stroke-113" class="cls-2" points="1 59 6 59 6 35 1 35 1 59"/><path id="Stroke-114" class="cls-4" d="M17,47c0-2.21,1.79-3,4-3h9.72" transform="translate(0 0)"/><path id="Fill-561" class="cls-3" d="M47.6,24.4l-8.31,8.31A1.62,1.62,0,0,1,37,32.58L27.48,23a4.42,4.42,0,0,1-1.26-2.44l-1.13-7.54a2.44,2.44,0,0,1,2.85-2.85l7.54,1.13a4.41,4.41,0,0,1,2.45,1.26l9.53,9.53a1.61,1.61,0,0,1,.14,2.27" transform="translate(0 0)"/><path id="Stroke-562" class="cls-2" d="M47.6,24.4l-8.31,8.31A1.62,1.62,0,0,1,37,32.58L27.48,23a4.42,4.42,0,0,1-1.26-2.44l-1.13-7.54a2.44,2.44,0,0,1,2.85-2.85l7.54,1.13a4.41,4.41,0,0,1,2.45,1.26l9.53,9.53a1.61,1.61,0,0,1,.14,2.27Z" transform="translate(0 0)"/><path id="Stroke-563" class="cls-4" d="M38,28l3-3" transform="translate(0 0)"/><path id="Stroke-564" class="cls-4" d="M35,25l3-3" transform="translate(0 0)"/><path id="Stroke-565" class="cls-2" d="M25.67,6A7,7,0,0,0,32,16" transform="translate(0 0)"/><path id="Fill-566" class="cls-1" d="M32,8a7,7,0,0,1-.56,2.74l4,.61a4.41,4.41,0,0,1,2.44,1.26l0,0A7,7,0,0,0,29.35,2.52,7,7,0,0,1,32,8" transform="translate(0 0)"/><path id="Stroke-567" class="cls-2" d="M32,8a7,7,0,0,1-.56,2.74l4,.61a4.41,4.41,0,0,1,2.44,1.26l0,0A7,7,0,0,0,29.35,2.52,7,7,0,0,1,32,8Z" transform="translate(0 0)"/><path id="Fill-568" class="cls-1" d="M28,23.56,27.48,23a4.42,4.42,0,0,1-1.26-2.44L25.38,15,25,15a7,7,0,0,1-3-.68V31l3.06,3L28,31V30l-2-2,2-2Z" transform="translate(0 0)"/><path id="Stroke-569" class="cls-2" d="M28,23.56,27.48,23a4.42,4.42,0,0,1-1.26-2.44L25.38,15,25,15a7,7,0,0,1-3-.68V31l3.06,3L28,31V30l-2-2,2-2V23.56Z" transform="translate(0 0)"/></g></g></g></svg>