<?xml version="1.0" encoding="UTF-8"?>
<svg width="60px" height="60px" viewBox="0 0 60 60" version="1.1" xmlns="http://www.w3.org/2000/svg" xmlns:xlink="http://www.w3.org/1999/xlink">
    <!-- Generator: Sketch 50.2 (55047) - http://www.bohemiancoding.com/sketch -->
    <title>buyers</title>
    <desc>Created with Sketch.</desc>
    <defs></defs>
    <g id="Welcome" stroke="none" stroke-width="1" fill="none" fill-rule="evenodd">
        <g id="Desktop-HD" transform="translate(-675.000000, -808.000000)">
            <g id="buyers" transform="translate(676.000000, 809.000000)">
                <path d="M24.09,12.06 C23.9405314,11.2676159 24.1921934,10.452556 24.7623747,9.88237473 C25.332556,9.31219342 26.1476159,9.06053136 26.94,9.21 L30.44,9.74 C31.6493535,6.89693357 30.8517765,3.59724849 28.477391,1.62041861 C26.1030056,-0.356411274 22.7134178,-0.542812477 20.1365848,1.16173855 C17.5597518,2.86628958 16.4051639,6.05862064 17.2954742,9.01715239 C18.1857846,11.9756841 20.9104107,14.0006442 24,14 L24.38,14 L24.09,12.06 Z" id="Fill-108" fill="#FFFFFF" fill-rule="nonzero"></path>
                <path d="M24.09,12.06 C23.9405314,11.2676159 24.1921934,10.452556 24.7623747,9.88237473 C25.332556,9.31219342 26.1476159,9.06053136 26.94,9.21 L30.44,9.74 C31.6493535,6.89693357 30.8517765,3.59724849 28.477391,1.62041861 C26.1030056,-0.356411274 22.7134178,-0.542812477 20.1365848,1.16173855 C17.5597518,2.86628958 16.4051639,6.05862064 17.2954742,9.01715239 C18.1857846,11.9756841 20.9104107,14.0006442 24,14 L24.38,14 L24.09,12.08 L24.09,12.06 Z" id="Stroke-109" stroke="#00BA9D" stroke-width="2" stroke-linecap="round" stroke-linejoin="round"></path>
                <path d="M57.3,39.17 C58.078305,38.5280306 58.2308377,37.3949309 57.65,36.57 C56.4,34.83 55.36,34.41 51,36.7 L42.33,42 C39.68,43.41 32.72,43 29.72,43 C29.72,43 36.8,43.48 33.98,39.26 C32.5326528,37.1848897 30.1497354,35.9634573 27.62,36 L23.72,36 C21.449128,36.0361566 19.2278577,35.3343335 17.39,34 C13.15,30.73 5,37 5,37 L5,55.0000188 L19,55 C21.0085023,55.0019537 23.0142584,54.851522 25,54.55 L38,52.55 C38.4341606,52.5468208 38.8666937,52.4965262 39.29,52.4 C40.3503665,52.239754 41.3334435,51.7499647 42.1,51 L57.3,39.17 Z" id="Fill-110" fill="#FFFFFF" fill-rule="nonzero"></path>
                <path d="M57.3,39.17 C58.078305,38.5280306 58.2308377,37.3949309 57.65,36.57 C56.4,34.83 55.36,34.41 51,36.7 L42.33,42 C39.68,43.41 32.72,43 29.72,43 C29.72,43 36.8,43.48 33.98,39.26 C32.5326528,37.1848897 30.1497354,35.9634573 27.62,36 L23.72,36 C21.449128,36.0361566 19.2278577,35.3343335 17.39,34 C13.15,30.73 5,37 5,37 L5,55.0000188 L19,55 C21.0085023,55.0019537 23.0142584,54.851522 25,54.55 L38,52.55 C38.4341606,52.5468208 38.8666937,52.4965262 39.29,52.4 C40.3503665,52.239754 41.3334435,51.7499647 42.1,51 L57.3,39.17 Z" id="Stroke-111" stroke="#00BA9D" stroke-width="2" stroke-linecap="round" stroke-linejoin="round"></path>
                <polygon id="Stroke-113" stroke="#00BA9D" stroke-width="2" fill-opacity="0.2" fill="#00BA9D" stroke-linecap="round" stroke-linejoin="round" points="0 58 5 58 5 34 0 34"></polygon>
                <path d="M16,46 C16,43.79 17.79,43 20,43 L29.72,43" id="Stroke-114" stroke="#00BA9D" stroke-width="2" stroke-linecap="round"></path>
                <path d="M46.6,23.4 L38.29,31.71 C37.9693068,31.9969089 37.5476433,32.1444426 37.1180319,32.1200542 C36.6884204,32.0956658 36.2861627,31.9013592 36,31.58 L26.48,22 C25.8115845,21.3410782 25.370278,20.4864846 25.22,19.56 L24.09,12.02 C23.9405314,11.2276159 24.1921934,10.412556 24.7623747,9.84237473 C25.332556,9.27219342 26.1476159,9.02053136 26.94,9.17 L34.48,10.3 C35.4102685,10.4475832 36.2688465,10.8891376 36.93,11.56 L46.46,21.09 C47.1245285,21.6786589 47.1871576,22.6941446 46.6,23.36 L46.6,23.4 Z" id="Stroke-562" stroke="#00BA9D" stroke-width="2" fill-opacity="0.2" fill="#00BA9D" stroke-linecap="round" stroke-linejoin="round"></path>
                <path d="M37,27 L40,24" id="Stroke-563" stroke="#00BA9D" stroke-width="2" stroke-linecap="round"></path>
                <path d="M34,24 L37,21" id="Stroke-564" stroke="#00BA9D" stroke-width="2" stroke-linecap="round"></path>
                <path d="M24.67,5 C23.640913,7.16950411 23.7956447,9.71507305 25.0799298,11.7439595 C26.3642149,13.7728459 28.5987993,15.001868 31,15.0000021" id="Stroke-565" stroke="#00BA9D" stroke-width="2" stroke-linecap="round" stroke-linejoin="round"></path>
                <path d="M31,7 C30.9995385,7.94170359 30.8090712,8.8736327 30.44,9.74 L34.44,10.35 C35.3667053,10.499609 36.2214959,10.9410173 36.88,11.61 C38.3883806,9.04720556 38.1129076,5.81111027 36.1930527,3.54014475 C34.2731978,1.26917923 31.1280527,0.459080323 28.35,1.52 C30.0228923,2.84689378 30.9986893,4.86476838 31,7" id="Fill-566" fill="#FFFFFF" fill-rule="nonzero"></path>
                <path d="M31,7 C30.9995385,7.94170359 30.8090712,8.8736327 30.44,9.74 L34.44,10.35 C35.3667053,10.499609 36.2214959,10.9410173 36.88,11.61 C38.3883806,9.04720556 38.1129076,5.81111027 36.1930527,3.54014475 C34.2731978,1.26917923 31.1280527,0.459080323 28.35,1.52 C30.0228923,2.84689378 30.9986893,4.86476838 31,7 Z" id="Stroke-567" stroke="#00BA9D" stroke-width="2" stroke-linecap="round" stroke-linejoin="round"></path>
                <path d="M27,22.56 L26.48,22 C25.8115845,21.3410782 25.370278,20.4864846 25.22,19.56 L24.38,14 L24,14 C22.9619502,13.9985766 21.9372106,13.7663023 21,13.32 L21,30 L24.06,33 L27,30 L27,29 L25,27 L27,25 L27,22.56 Z" id="Fill-568" fill="#FFFFFF" fill-rule="nonzero"></path>
                <path d="M27,21.3586671 L26.5666667,20.7342278 C26.0096538,19.9994837 25.6418984,19.0465519 25.5166667,18.0134565 L24.8166667,11.8136662 L24.5,11.8136662 C23.6349585,11.812079 22.7810088,11.5530768 22,11.0554184 L22,29.6547894 L24.55,33 L27,29.6547894 L27,28.5397192 L25.3333333,26.3095788 L27,24.0794384 L27,21.3586671 Z" id="Stroke-569" stroke="#00BA9D" stroke-width="2" stroke-linecap="round" stroke-linejoin="round"></path>
            </g>
        </g>
    </g>
</svg>