<svg id="Layer_1" data-name="Layer 1" xmlns="http://www.w3.org/2000/svg" viewBox="0 0 60 56"><defs><style>.cls-1{fill:#d0e8f9;}.cls-2{fill:none;stroke:#1c81e3;stroke-linecap:round;stroke-linejoin:round;stroke-width:2px;}.cls-3{fill:#fff;}</style></defs><title>get-paid</title><g id="Page-1"><g id="Icons"><g id="_65--Send-Money--_business_-finance_-marketing_" data-name="65--Send-Money--(business,-finance,-marketing)"><polygon id="Fill-108" class="cls-1" points="23.41 40 36.59 40 55 26.03 55 14 5 14 5 26.03 23.41 40"/><polygon id="Stroke-109" class="cls-2" points="23.41 40 36.59 40 55 26.03 55 14 5 14 5 26.03 23.41 40"/><g id="Group-112"><path id="Fill-110" class="cls-3" d="M59,23l-4-3"/><path id="Stroke-111" class="cls-2" d="M59,23l-4-3"/></g><polygon id="Fill-113" class="cls-3" points="47.14 14 30 1 12.86 14 47.14 14"/><polygon id="Stroke-114" class="cls-2" points="47.14 14 30 1 12.86 14 47.14 14"/><g id="Group-117"><path id="Fill-115" class="cls-3" d="M5,20,1,23"/><path id="Stroke-116" class="cls-2" d="M5,20,1,23"/></g><polygon id="Fill-1013" class="cls-3" points="30 45 1 23 1 55 59 55 59 23 30 45"/><polygon id="Stroke-1014" class="cls-2" points="30 45 1 23 1 55 59 55 59 23 30 45"/><path id="Stroke-1017" class="cls-2" d="M26,31a4,4,0,1,0,4-4,4,4,0,1,1,4-4"/><path id="Stroke-1018" class="cls-2" d="M30,17V37"/><path id="Stroke-1019" class="cls-2" d="M47,18h4"/></g></g></g></svg>