<svg id="Layer_1" data-name="Layer 1" xmlns="http://www.w3.org/2000/svg" xmlns:xlink="http://www.w3.org/1999/xlink" viewBox="0 0 181.53 48.36"><defs><style>.cls-1{opacity:0.46;}.cls-2{fill:url(#radial-gradient);}.cls-3{fill:red;}.cls-4,.cls-5{fill:#fff;}.cls-5{opacity:0.12;}.cls-6{opacity:0.4;}.cls-7{fill:#425776;}</style><radialGradient id="radial-gradient" cx="148.03" cy="20.5" r="24.03" gradientUnits="userSpaceOnUse"><stop offset="0" stop-color="#ed1e79" stop-opacity="0.6"/><stop offset="1"/></radialGradient></defs><title>gravitist-logo</title><g class="cls-1"><path d="M78.47,71.1c0-2,1.27-3.88,3.42-5.27v-.19a4.34,4.34,0,0,1-2.09-3.83,5.58,5.58,0,0,1,2.57-4.33v-.19a8.1,8.1,0,0,1-3-6.27c0-5.1,4-8.31,8.75-8.31a9.34,9.34,0,0,1,3.3.58h8.14v3H94.75a6.74,6.74,0,0,1,1.9,4.8c0,5-3.78,8.09-8.55,8.09a8.29,8.29,0,0,1-3.47-.79,3.39,3.39,0,0,0-1.49,2.75c0,1.49,1,2.54,4.09,2.54h4.54c5.42,0,8.15,1.7,8.15,5.57,0,4.33-4.59,8.07-11.8,8.07C82.41,77.36,78.47,75.12,78.47,71.1Zm17.58-1.22c0-2.16-1.63-2.9-4.7-2.9h-4a13.45,13.45,0,0,1-3-.34,4.85,4.85,0,0,0-2.38,3.91c0,2.5,2.53,4.09,6.77,4.09C93.13,74.64,96.05,72.32,96.05,69.88ZM93.06,51c0-3.39-2.21-5.45-5-5.45s-5,2-5,5.45,2.27,5.55,5,5.55S93.06,54.42,93.06,51Z" transform="translate(-76.47 -29)"/><path d="M104.44,43.29h3.26l.34,4.25h.13c1.62-3,4-4.83,6.63-4.83a5.38,5.38,0,0,1,2.49.48l-.73,3.46a6.63,6.63,0,0,0-2.27-.38c-2,0-4.32,1.42-5.9,5.37v15h-4Z" transform="translate(-76.47 -29)"/><path d="M118.51,60.56c0-5.08,4.39-7.62,14.33-8.7,0-3-1-5.9-4.81-5.9a12.89,12.89,0,0,0-7,2.5l-1.55-2.7a17.13,17.13,0,0,1,9.17-3c5.69,0,8.1,3.79,8.1,9.59V66.62h-3.26l-.33-2.79h-.14c-2.22,1.85-4.82,3.37-7.71,3.37C121.44,67.2,118.51,64.77,118.51,60.56Zm14.33.37V54.45c-7.82.94-10.46,2.85-10.46,5.83,0,2.66,1.8,3.74,4.09,3.74S130.58,62.92,132.84,60.93Z" transform="translate(-76.47 -29)"/><path d="M140.81,43.29h4.07l4.41,13.25c.7,2.28,1.45,4.66,2.15,6.88h.19c.7-2.22,1.46-4.6,2.16-6.88l4.41-13.25h3.87l-8.25,23.33h-4.59Z" transform="translate(-76.47 -29)"/><path d="M165.86,35.94a2.73,2.73,0,0,1,5.45,0,2.73,2.73,0,0,1-5.45,0Zm.72,7.35h3.95V66.62h-3.95Z" transform="translate(-76.47 -29)"/><path d="M179.09,59.41V46.5h-3.47v-3l3.65-.22.47-6.55H183v6.55h6.32V46.5H183v13c0,2.86.92,4.51,3.61,4.51a7.67,7.67,0,0,0,2.66-.63l.76,3a13.9,13.9,0,0,1-4.33.87C180.77,67.2,179.09,64.05,179.09,59.41Z" transform="translate(-76.47 -29)"/></g><rect class="cls-2" x="119.53" y="2" width="57" height="37" rx="12" ry="12"/><path class="cls-3" d="M207.56,58.13a1.43,1.43,0,1,1,2.86,0,1.43,1.43,0,1,1-2.86,0Z" transform="translate(-76.47 -29)"/><path class="cls-4" d="M213.59,44a1.37,1.37,0,0,1,2.73,0,1.37,1.37,0,0,1-2.73,0Zm.36,3.68h2V59.33h-2Z" transform="translate(-76.47 -29)"/><path class="cls-4" d="M218.57,58l1-1.3A5.22,5.22,0,0,0,223,58.08c1.54,0,2.3-.81,2.3-1.81,0-1.2-1.38-1.73-2.67-2.21-1.64-.6-3.48-1.4-3.48-3.37s1.49-3.31,4-3.31a5.87,5.87,0,0,1,3.63,1.31L225.84,50a4.43,4.43,0,0,0-2.66-1c-1.47,0-2.15.78-2.15,1.67,0,1.11,1.27,1.53,2.59,2,1.68.64,3.56,1.32,3.56,3.54,0,1.89-1.51,3.47-4.26,3.47A7,7,0,0,1,218.57,58Z" transform="translate(-76.47 -29)"/><path class="cls-4" d="M229.79,55.73V49.27h-1.74V47.78l1.82-.11.24-3.28h1.65v3.28h3.16v1.6h-3.16v6.49c0,1.43.46,2.25,1.8,2.25a3.8,3.8,0,0,0,1.33-.31l.38,1.49a7,7,0,0,1-2.16.43C230.63,59.62,229.79,58.05,229.79,55.73Z" transform="translate(-76.47 -29)"/><path class="cls-5" d="M241.13,38.54c8.3,3.9,1.36,6.58,2.44,12.14-.63-3.25-3.37-9.08-3.37-9.08C214,30.38,241.13,38.54,241.13,38.54Z" transform="translate(-76.47 -29)"/><path class="cls-6" d="M246,72.5H207a12,12,0,0,1-12-12V44a12,12,0,0,1,12-12h39a12,12,0,0,1,12,12V60.5A12,12,0,0,1,246,72.5Zm5.4-16.24v-8a12,12,0,0,0-12-12H213.6a12,12,0,0,0-12,12v8a12,12,0,0,0,12,12h25.8A12,12,0,0,0,251.4,56.26Z" transform="translate(-76.47 -29)"/><path class="cls-7" d="M244,69.5H205a12,12,0,0,1-12-12V41a12,12,0,0,1,12-12h39a12,12,0,0,1,12,12V57.5A12,12,0,0,1,244,69.5Zm5.4-16.24v-8a12,12,0,0,0-12-12H211.6a12,12,0,0,0-12,12v8a12,12,0,0,0,12,12h25.8A12,12,0,0,0,249.4,53.26Z" transform="translate(-76.47 -29)"/><path class="cls-4" d="M76.47,69.1c0-2,1.27-3.88,3.42-5.27v-.19a4.34,4.34,0,0,1-2.09-3.83,5.58,5.58,0,0,1,2.57-4.33v-.19a8.1,8.1,0,0,1-3-6.27c0-5.1,4-8.31,8.75-8.31a9.34,9.34,0,0,1,3.3.58h8.14v3H92.75a6.74,6.74,0,0,1,1.9,4.8c0,5-3.78,8.09-8.55,8.09a8.29,8.29,0,0,1-3.47-.79,3.39,3.39,0,0,0-1.49,2.75c0,1.49,1,2.54,4.09,2.54h4.54c5.42,0,8.15,1.7,8.15,5.57,0,4.33-4.59,8.07-11.8,8.07C80.41,75.36,76.47,73.12,76.47,69.1Zm17.58-1.22c0-2.16-1.63-2.9-4.7-2.9h-4a13.45,13.45,0,0,1-3-.34,4.85,4.85,0,0,0-2.38,3.91c0,2.5,2.53,4.09,6.77,4.09C91.13,72.64,94.05,70.32,94.05,67.88ZM91.06,49c0-3.39-2.21-5.45-5-5.45s-5,2-5,5.45,2.27,5.55,5,5.55S91.06,52.42,91.06,49Z" transform="translate(-76.47 -29)"/><path class="cls-4" d="M102.44,41.29h3.26l.34,4.25h.13c1.62-3,4-4.83,6.63-4.83a5.38,5.38,0,0,1,2.49.48l-.73,3.46a6.63,6.63,0,0,0-2.27-.38c-2,0-4.32,1.42-5.9,5.37v15h-4Z" transform="translate(-76.47 -29)"/><path class="cls-4" d="M116.51,58.56c0-5.08,4.39-7.62,14.33-8.7,0-3-1-5.9-4.81-5.9a12.89,12.89,0,0,0-7,2.5l-1.55-2.7a17.13,17.13,0,0,1,9.17-3c5.69,0,8.1,3.79,8.1,9.59V64.62h-3.26l-.33-2.79h-.14c-2.22,1.85-4.82,3.37-7.71,3.37C119.44,65.2,116.51,62.77,116.51,58.56Zm14.33.37V52.45c-7.82.94-10.46,2.85-10.46,5.83,0,2.66,1.8,3.74,4.09,3.74S128.58,60.92,130.84,58.93Z" transform="translate(-76.47 -29)"/><path class="cls-4" d="M138.81,41.29h4.07l4.41,13.25c.7,2.28,1.45,4.66,2.15,6.88h.19c.7-2.22,1.46-4.6,2.16-6.88l4.41-13.25h3.87l-8.25,23.33h-4.59Z" transform="translate(-76.47 -29)"/><path class="cls-4" d="M163.86,33.94a2.73,2.73,0,0,1,5.45,0,2.73,2.73,0,0,1-5.45,0Zm.72,7.35h3.95V64.62h-3.95Z" transform="translate(-76.47 -29)"/><path class="cls-4" d="M177.09,57.41V44.5h-3.47v-3l3.65-.22.47-6.55H181v6.55h6.32V44.5H181v13c0,2.86.92,4.51,3.61,4.51a7.67,7.67,0,0,0,2.66-.63l.76,3a13.9,13.9,0,0,1-4.33.87C178.77,65.2,177.09,62.05,177.09,57.41Z" transform="translate(-76.47 -29)"/></svg>