<svg id="File" xmlns="http://www.w3.org/2000/svg" viewBox="0 0 76.74 95.93"><style>.cls-1{fill:#1c81e3}.cls-2{fill:#1c81e3}</style><title>icon-upload</title><path class="cls-1" d="M86.71,24H46.26A12.61,12.61,0,0,0,33.67,36.63v70.74A12.61,12.61,0,0,0,46.26,120H97.82a12.61,12.61,0,0,0,12.59-12.59V50.53Zm1.66,10.85L100.7,48.68H88.36ZM97.82,114H46.26a6.6,6.6,0,0,1-6.59-6.59V36.63A6.6,6.6,0,0,1,46.26,30h36.1V54.68h22v52.69A6.6,6.6,0,0,1,97.82,114Z" transform="translate(-33.67 -24.04)"/><polygon class="cls-2" points="23.59 52.61 28.15 56.51 35.12 48.35 35.12 72.89 41.12 72.89 41.12 48.35 48.09 56.51 52.65 52.61 38.12 35.61 23.59 52.61"/></svg>
