<svg xmlns="http://www.w3.org/2000/svg" viewBox="0 0 76.74 96"><defs><style>.cls-1{fill:#fff;}</style></defs><title>icon-upload-white</title><g id="Layer_2" data-name="Layer 2"><g id="File"><path class="cls-1" d="M53,0H12.59A12.61,12.61,0,0,0,0,12.63H0V83.37A12.61,12.61,0,0,0,12.59,96H64.15A12.61,12.61,0,0,0,76.74,83.41V26.53ZM54.7,10.85,67,24.68H54.69ZM64.15,90H12.59A6.6,6.6,0,0,1,6,83.41V12.63A6.6,6.6,0,0,1,12.57,6H48.69V30.68h22V83.37A6.6,6.6,0,0,1,64.15,90Z"/><polygon class="cls-1" points="23.59 52.65 28.15 56.55 35.12 48.39 35.12 72.93 41.12 72.93 41.12 48.39 48.09 56.55 52.65 52.65 38.12 35.65 23.59 52.65"/></g></g></svg>