<svg id="Layer_1" data-name="Layer 1" xmlns="http://www.w3.org/2000/svg" viewBox="0 0 49.65 49.65"><style>.cls-1{fill:#e11825}.cls-2{fill:#e11825}</style><title>icon-plus</title><path class="cls-1" d="M32,7.17A24.83,24.83,0,1,0,56.83,32,24.86,24.86,0,0,0,32,7.17Zm0,44.65A19.83,19.83,0,1,1,51.83,32,19.85,19.85,0,0,1,32,51.83Z" transform="translate(-7.17 -7.17)"/><path class="cls-2" d="M40.6,29.18H34.33v-6a2.5,2.5,0,0,0-5,0v6H23.06a2.5,2.5,0,0,0,0,5h6.27v6.59a2.5,2.5,0,0,0,5,0V34.18H40.6a2.5,2.5,0,0,0,0-5Z" transform="translate(-7.17 -7.17)"/></svg>
