<svg id="Layer_1" data-name="Layer 1" xmlns="http://www.w3.org/2000/svg" xmlns:xlink="http://www.w3.org/1999/xlink" viewBox="0 0 258.8 258.8"><defs><style>.cls-1{fill:url(#radial-gradient);}.cls-2{fill:url(#radial-gradient-2);}.cls-3{fill:url(#radial-gradient-3);}</style><radialGradient id="radial-gradient" cx="201.77" cy="52.64" r="261.11" gradientTransform="matrix(1, 0, 0, -1, 0, 514)" gradientUnits="userSpaceOnUse"><stop offset="0" stop-color="#ffd776"/><stop offset="0.25" stop-color="#f3a554"/><stop offset="0.38" stop-color="#f15c3c"/><stop offset="0.54" stop-color="#d94867"/><stop offset="0.7" stop-color="#c32f87"/><stop offset="0.91" stop-color="#7d63a7"/><stop offset="0.99" stop-color="#5c6cb3"/></radialGradient><radialGradient id="radial-gradient-2" cx="228.15" cy="115.33" r="134.08" gradientTransform="matrix(1, 0, 0, -1, 0, 514)" gradientUnits="userSpaceOnUse"><stop offset="0" stop-color="#ffd776"/><stop offset="0.25" stop-color="#f3a554"/><stop offset="0.38" stop-color="#f15c3c"/><stop offset="0.61" stop-color="#d94867"/><stop offset="0.83" stop-color="#c32f87"/><stop offset="0.96" stop-color="#7d63a7"/><stop offset="1" stop-color="#5c6cb3"/></radialGradient><radialGradient id="radial-gradient-3" cx="318.62" cy="235.17" r="31.33" gradientTransform="matrix(1, 0, 0, -1, -126.7, 310.9)" gradientUnits="userSpaceOnUse"><stop offset="0" stop-color="#5f6db3"/><stop offset="1" stop-color="#5c6cb3"/></radialGradient></defs><title>instagram</title><g id="_Group_" data-name="&lt;Group&gt;"><path id="_Compound_Path_" data-name="&lt;Compound Path&gt;" class="cls-1" d="M378.7,247.7a66,66,0,0,0-37.8-37.8c-8.2-3.2-17.7-5.4-31.4-6s-18.2-.8-53.4-.8-39.6.1-53.4.8-23.2,2.8-31.4,6a66,66,0,0,0-37.8,37.8c-3.2,8.2-5.4,17.7-6,31.4s-.8,18.2-.8,53.4.1,39.6.8,53.4,2.8,23.2,6,31.4a66,66,0,0,0,37.8,37.8c8.2,3.2,17.7,5.4,31.4,6s18.2.8,53.4.8,39.6-.1,53.4-.8,23.2-2.8,31.4-6a66,66,0,0,0,37.8-37.8c3.2-8.2,5.4-17.7,6-31.4s.8-18.2.8-53.4-.1-39.6-.8-53.4S381.9,255.9,378.7,247.7ZM361.4,384.8c-.6,12.6-2.7,19.5-4.5,24a40.08,40.08,0,0,1-9.7,14.9,40.51,40.51,0,0,1-14.9,9.7c-4.6,1.8-11.4,3.9-24,4.5-13.7.6-17.7.8-52.3.8s-38.7-.1-52.3-.8c-12.6-.6-19.5-2.7-24-4.5a40.08,40.08,0,0,1-14.9-9.7,40.51,40.51,0,0,1-9.7-14.9c-1.8-4.6-3.9-11.4-4.5-24-.6-13.7-.8-17.8-.8-52.3s.1-38.7.8-52.3c.6-12.6,2.7-19.5,4.5-24a40.08,40.08,0,0,1,9.7-14.9,40.51,40.51,0,0,1,14.9-9.7c4.6-1.8,11.4-3.9,24-4.5,13.7-.6,17.8-.8,52.3-.8s38.7.1,52.3.8c12.6.6,19.5,2.7,24,4.5a40.08,40.08,0,0,1,14.9,9.7,40.51,40.51,0,0,1,9.7,14.9c1.8,4.6,3.9,11.4,4.5,24,.6,13.7.8,17.8.8,52.3S362,371.2,361.4,384.8Z" transform="translate(-126.7 -203.1)"/><path id="_Compound_Path_2" data-name="&lt;Compound Path&gt;" class="cls-2" d="M256,266a66.5,66.5,0,1,0,66.5,66.5A66.53,66.53,0,0,0,256,266Zm0,109.7a43.2,43.2,0,1,1,43.2-43.2A43.21,43.21,0,0,1,256,375.7Z" transform="translate(-126.7 -203.1)"/><circle id="_Path_" data-name="&lt;Path&gt;" class="cls-3" cx="198.4" cy="60.3" r="15.5"/></g></svg>