<svg id="Layer_1" data-name="Layer 1" xmlns="http://www.w3.org/2000/svg" viewBox="0 0 50 58"><defs><style>.cls-1{fill:#d0e8f9;}.cls-2{fill:none;stroke:#1c81e3;stroke-linecap:round;stroke-linejoin:round;stroke-width:2px;}.cls-3{fill:#fff;}</style></defs><title>secure</title><g id="Page-1"><g id="Security-2---Webby"><g id="_20--Badge--_security_-protection_-secure_" data-name="20--Badge--(security,-protection,-secure)"><path id="Fill-441" class="cls-1" d="M25,57c0-3.94,12-9,12-9l1.83-.91a18.62,18.62,0,0,0,9.92-12.6l0-.09A10.38,10.38,0,0,0,49,32.11c-.09-7.4-1.26-10.63-1.76-11.69a12.55,12.55,0,0,1-1-2.74A12.72,12.72,0,0,1,49,7L44,1S41.69,5,34,5s-9-4-9-4-1.31,4-9,4S6,1,6,1L1,7A12.72,12.72,0,0,1,3.74,17.68a12.55,12.55,0,0,1-1,2.74C2.26,21.48,1.09,24.71,1,32.11a10.38,10.38,0,0,0,.23,2.28l0,.09a18.62,18.62,0,0,0,9.92,12.6L13,48s12,5.06,12,9"/><path id="Stroke-442" class="cls-2" d="M25,57c0-3.94,12-9,12-9l1.83-.91a18.62,18.62,0,0,0,9.92-12.6l0-.09A10.38,10.38,0,0,0,49,32.11c-.09-7.4-1.26-10.63-1.76-11.69a12.55,12.55,0,0,1-1-2.74A12.72,12.72,0,0,1,49,7L44,1S41.69,5,34,5s-9-4-9-4-1.31,4-9,4S6,1,6,1L1,7A12.72,12.72,0,0,1,3.74,17.68a12.55,12.55,0,0,1-1,2.74C2.26,21.48,1.09,24.71,1,32.11a10.38,10.38,0,0,0,.23,2.28l0,.09a18.62,18.62,0,0,0,9.92,12.6L13,48s12,5.06,12,9Z"/><path id="Fill-443" class="cls-3" d="M25,49a44.76,44.76,0,0,0-9.9-5.49l-1.68-.84a13.54,13.54,0,0,1-7.28-9.2l0-.13A5.3,5.3,0,0,1,6,32.17c.08-6.9,1.15-9.33,1.27-9.59a17.38,17.38,0,0,0,1.35-3.84A18.8,18.8,0,0,0,8,8a18.25,18.25,0,0,0,8,2,17.86,17.86,0,0,0,9-2,17.86,17.86,0,0,0,9,2,18.25,18.25,0,0,0,8-2,18.79,18.79,0,0,0-.63,10.74,17.35,17.35,0,0,0,1.35,3.84c.12.26,1.2,2.52,1.28,9.42a7,7,0,0,1-.12,1.34,13.57,13.57,0,0,1-7.29,9.27l-1.69.84A44.76,44.76,0,0,0,25,49"/><path id="Stroke-444" class="cls-2" d="M25,49a44.76,44.76,0,0,0-9.9-5.49l-1.68-.84a13.54,13.54,0,0,1-7.28-9.2l0-.13A5.3,5.3,0,0,1,6,32.17c.08-6.9,1.15-9.33,1.27-9.59a17.38,17.38,0,0,0,1.35-3.84A18.8,18.8,0,0,0,8,8a18.25,18.25,0,0,0,8,2,17.86,17.86,0,0,0,9-2,17.86,17.86,0,0,0,9,2,18.25,18.25,0,0,0,8-2,18.79,18.79,0,0,0-.63,10.74,17.35,17.35,0,0,0,1.35,3.84c.12.26,1.2,2.52,1.28,9.42a7,7,0,0,1-.12,1.34,13.57,13.57,0,0,1-7.29,9.27l-1.69.84A44.76,44.76,0,0,0,25,49Z"/><path id="Fill-445" class="cls-1" d="M36,28A11,11,0,1,1,25,17,11,11,0,0,1,36,28"/><path id="Stroke-446" class="cls-2" d="M36,28A11,11,0,1,1,25,17,11,11,0,0,1,36,28Z"/><polyline id="Stroke-447" class="cls-2" points="31 29 28 26 25 29 22 26 19 29"/></g></g></g></svg>