<?xml version="1.0" encoding="UTF-8"?>
<svg width="60px" height="60px" viewBox="0 0 60 60" version="1.1" xmlns="http://www.w3.org/2000/svg" xmlns:xlink="http://www.w3.org/1999/xlink">
    <!-- Generator: Sketch 50.2 (55047) - http://www.bohemiancoding.com/sketch -->
    <title>make-money</title>
    <desc>Created with Sketch.</desc>
    <defs></defs>
    <g id="Page-1" stroke="none" stroke-width="1" fill="none" fill-rule="evenodd">
        <g id="Desktop-HD" transform="translate(-295.000000, -99.000000)">
            <g id="make-money" transform="translate(296.000000, 100.000000)">
                <path d="M57.3,39.17 C58.0750435,38.5251741 58.2231705,37.3924385 57.64,36.57 C56.39,34.83 55.35,34.41 51,36.7 L42.32,42 C39.67,43.41 32.72,43 29.71,43 C29.71,43 36.79,43.48 33.97,39.26 C32.5234577,37.1892076 30.1458022,35.9685529 27.62,36 L23.72,36 C21.449128,36.0361566 19.2278577,35.3343335 17.39,34 C13.15,30.73 5,31 5,31 L5,55.0000181 L19,55 C21.0085009,55.0019153 23.0142541,54.8514838 25,54.55 L38,52.55 C38.4341606,52.5468208 38.8666937,52.4965262 39.29,52.4 C40.3501602,52.2391015 41.3330469,51.7494071 42.1,51 L57.3,39.17 Z" id="Fill-198" fill="#FFFFFF" fill-rule="nonzero"></path>
                <path d="M57.3,39.17 C58.0750435,38.5251741 58.2231705,37.3924385 57.64,36.57 C56.39,34.83 55.35,34.41 51,36.7 L42.32,42 C39.67,43.41 32.72,43 29.71,43 C29.71,43 36.79,43.48 33.97,39.26 C32.5234577,37.1892076 30.1458022,35.9685529 27.62,36 L23.72,36 C21.449128,36.0361566 19.2278577,35.3343335 17.39,34 C13.15,30.73 5,31 5,31 L5,55.0000181 L19,55 C21.0085009,55.0019153 23.0142541,54.8514838 25,54.55 L38,52.55 C38.4341606,52.5468208 38.8666937,52.4965262 39.29,52.4 C40.3501602,52.2391015 41.3330469,51.7494071 42.1,51 L57.3,39.17 Z" id="Stroke-199" stroke="#00BA9D" stroke-width="2" stroke-linecap="round" stroke-linejoin="round"></path>
                <path d="M29.72,43 L20,43" id="Stroke-467" stroke="#00BA9D" stroke-width="2" stroke-linecap="round"></path>
                <polygon id="Stroke-469" stroke="#00BA9D" stroke-width="2" fill-opacity="0.2" fill="#00BA9D" stroke-linecap="round" stroke-linejoin="round" points="0 58 5 58 5 28 0 28"></polygon>
                <path d="M16,46 C16,43.79 17.79,43 20,43" id="Stroke-470" stroke="#00BA9D" stroke-width="2" stroke-linecap="round"></path>
                <polygon id="Fill-483" fill="#FFFFFF" fill-rule="nonzero" points="14 22 58 22 58 0 14 0"></polygon>
                <polygon id="Stroke-484" stroke="#00BA9D" stroke-width="2" stroke-linecap="round" stroke-linejoin="round" points="14 22 58 22 58 0 14 0"></polygon>
                <polygon id="Stroke-486" stroke="#00BA9D" stroke-width="2" fill-opacity="0.2" fill="#00BA9D" stroke-linecap="round" stroke-linejoin="round" points="14 22 14 4 10 4 10 26 54 26 54 22"></polygon>
                <path d="M18,18 L22,18" id="Stroke-487" stroke="#00BA9D" stroke-width="2" stroke-linecap="round" stroke-linejoin="round"></path>
                <path d="M50,4 L54,4" id="Stroke-488" stroke="#00BA9D" stroke-width="2" stroke-linecap="round" stroke-linejoin="round"></path>
                <path d="M34,14 C34,15.6568542 35.3431458,17 37,17 C38.6568542,17 40,15.6568542 40,14 C40,12.3431458 38.6568542,11 37,11 C35.3431458,11 34,9.65685425 34,8 C34,6.34314575 35.3431458,5 37,5 C38.6568542,5 40,6.34314575 40,8" id="Stroke-489" stroke="#00BA9D" stroke-width="2" stroke-linecap="round" stroke-linejoin="round"></path>
                <path d="M37,3 L37,19" id="Stroke-490" stroke="#00BA9D" stroke-width="2" stroke-linecap="round" stroke-linejoin="round"></path>
            </g>
        </g>
    </g>
</svg>