<svg id="Layer_1" data-name="Layer 1" xmlns="http://www.w3.org/2000/svg" viewBox="0 0 60 60"><defs><style>.cls-1{fill:#fff;}.cls-2,.cls-3{fill:none;stroke:#e11825;stroke-linecap:round;stroke-width:2px;}.cls-2{stroke-linejoin:round;}.cls-4{fill:#f9d0d3;}</style></defs><title>make-money</title><g id="Page-1"><g id="Icons"><g id="_19--Give-Money--_business_-finance_-marketing_" data-name="19--Give-Money--(business,-finance,-marketing)"><path id="Fill-198" class="cls-1" d="M58.3,40.17a1.93,1.93,0,0,0,.34-2.6c-1.25-1.74-2.29-2.16-6.64.13L43.32,43c-2.65,1.41-9.6,1-12.61,1,0,0,7.08.48,4.26-3.74A7.63,7.63,0,0,0,28.62,37h-3.9a10.49,10.49,0,0,1-6.33-2C14.15,31.73,6,32,6,32V56H20a39.72,39.72,0,0,0,6-.45l13-2a6,6,0,0,0,1.29-.15h0A5.12,5.12,0,0,0,43.1,52Z"/><path id="Stroke-199" class="cls-2" d="M58.3,40.17a1.93,1.93,0,0,0,.34-2.6c-1.25-1.74-2.29-2.16-6.64.13L43.32,43c-2.65,1.41-9.6,1-12.61,1,0,0,7.08.48,4.26-3.74A7.63,7.63,0,0,0,28.62,37h-3.9a10.49,10.49,0,0,1-6.33-2C14.15,31.73,6,32,6,32V56H20a39.72,39.72,0,0,0,6-.45l13-2a6,6,0,0,0,1.29-.15h0A5.12,5.12,0,0,0,43.1,52Z"/><path id="Stroke-467" class="cls-3" d="M30.72,44H21"/><polygon id="Fill-468" class="cls-4" points="1 59 6 59 6 29 1 29 1 59"/><polygon id="Stroke-469" class="cls-2" points="1 59 6 59 6 29 1 29 1 59"/><path id="Stroke-470" class="cls-3" d="M17,47c0-2.21,1.79-3,4-3"/><polygon id="Fill-483" class="cls-1" points="15 23 59 23 59 1 15 1 15 23"/><polygon id="Stroke-484" class="cls-2" points="15 23 59 23 59 1 15 1 15 23"/><polygon id="Fill-485" class="cls-4" points="15 23 15 5 11 5 11 27 55 27 55 23 15 23"/><polygon id="Stroke-486" class="cls-2" points="15 23 15 5 11 5 11 27 55 27 55 23 15 23"/><path id="Stroke-487" class="cls-2" d="M19,19h4"/><path id="Stroke-488" class="cls-2" d="M51,5h4"/><path id="Stroke-489" class="cls-2" d="M35,15a3,3,0,1,0,3-3,3,3,0,1,1,3-3"/><path id="Stroke-490" class="cls-2" d="M38,4V20"/></g></g></g></svg>
