<svg id="Layer_1" data-name="Layer 1" xmlns="http://www.w3.org/2000/svg" viewBox="0 0 58 60"><defs><style>.cls-1{fill:#fff;}.cls-2{fill:none;stroke:#1c81e3;stroke-linecap:round;stroke-linejoin:round;stroke-width:2px;}.cls-3{fill:#d0e8f9;}</style></defs><title>packages</title><g id="Page-1"><g id="Icons"><g id="_41--Boxes--_Webby_" data-name="41--Boxes--(Webby)"><path id="Fill-44" class="cls-1" d="M22,26V25H10v1H5a4,4,0,0,0-4,4V55a4,4,0,0,0,4,4H27a4,4,0,0,0,4-4V30a4,4,0,0,0-4-4Z" transform="translate(0 0)"/><path id="Stroke-45" class="cls-2" d="M22,26V25H10v1H5a4,4,0,0,0-4,4V55a4,4,0,0,0,4,4H27a4,4,0,0,0,4-4V30a4,4,0,0,0-4-4Z" transform="translate(0 0)"/><path id="Fill-46" class="cls-1" d="M50,30V29H38v1H35a4,4,0,0,0-4,4V55a4,4,0,0,0,4,4H53a4,4,0,0,0,4-4V34a4,4,0,0,0-4-4Z" transform="translate(0 0)"/><path id="Stroke-47" class="cls-2" d="M50,30V29H38v1H35a4,4,0,0,0-4,4V55a4,4,0,0,0,4,4H53a4,4,0,0,0,4-4V34a4,4,0,0,0-4-4Z" transform="translate(0 0)"/><path id="Fill-48" class="cls-1" d="M44,2H35V1H23V2H14a4,4,0,0,0-4,4V25H22v1h5a4,4,0,0,1,4,4v4a4,4,0,0,1,4-4h3V29H48V6a4,4,0,0,0-4-4" transform="translate(0 0)"/><path id="Stroke-49" class="cls-2" d="M44,2H35V1H23V2H14a4,4,0,0,0-4,4V25H22v1h5a4,4,0,0,1,4,4v4a4,4,0,0,1,4-4h3V29H48V6a4,4,0,0,0-4-4Z" transform="translate(0 0)"/><path id="Fill-50" class="cls-3" d="M33.52,13.77,29,10l-4.52,3.77A.9.9,0,0,1,23,13.08V1H35V13.08a.9.9,0,0,1-1.47.69" transform="translate(0 0)"/><path id="Stroke-51" class="cls-2" d="M33.52,13.77,29,10l-4.52,3.77A.9.9,0,0,1,23,13.08V1H35V13.08a.9.9,0,0,1-1.47.69Z" transform="translate(0 0)"/><path id="Fill-52" class="cls-3" d="M20.52,37.77,16,34l-4.52,3.77A.9.9,0,0,1,10,37.08V25H22V37.08a.9.9,0,0,1-1.48.69" transform="translate(0 0)"/><path id="Stroke-53" class="cls-2" d="M20.52,37.77,16,34l-4.52,3.77A.9.9,0,0,1,10,37.08V25H22V37.08a.9.9,0,0,1-1.48.69Z" transform="translate(0 0)"/><path id="Fill-54" class="cls-3" d="M48.52,41.79,44,38l-4.52,3.77A.9.9,0,0,1,38,41.1V29H50V41.1a.9.9,0,0,1-1.47.69" transform="translate(0 0)"/><path id="Stroke-55" class="cls-2" d="M48.52,41.79,44,38l-4.52,3.77A.9.9,0,0,1,38,41.1V29H50V41.1a.9.9,0,0,1-1.47.69Z" transform="translate(0 0)"/><path id="Fill-56" class="cls-1" d="M24,55h3" transform="translate(0 0)"/><path id="Stroke-57" class="cls-2" d="M24,55h3" transform="translate(0 0)"/><path id="Fill-59" class="cls-1" d="M22,51h5" transform="translate(0 0)"/><path id="Stroke-60" class="cls-2" d="M22,51h5" transform="translate(0 0)"/><path id="Fill-62" class="cls-1" d="M50,55h3" transform="translate(0 0)"/><path id="Stroke-63" class="cls-2" d="M50,55h3" transform="translate(0 0)"/><path id="Fill-65" class="cls-1" d="M48,51h5" transform="translate(0 0)"/><path id="Stroke-66" class="cls-2" d="M48,51h5" transform="translate(0 0)"/></g></g></g></svg>