<?xml version="1.0" encoding="UTF-8"?>
<svg width="55px" height="55px" viewBox="0 0 55 55" version="1.1" xmlns="http://www.w3.org/2000/svg" xmlns:xlink="http://www.w3.org/1999/xlink">
    <!-- Generator: Sketch 50.2 (55047) - http://www.bohemiancoding.com/sketch -->
    <title>Group 2</title>
    <desc>Created with Sketch.</desc>
    <defs></defs>
    <g id="Welcome" stroke="none" stroke-width="1" fill="none" fill-rule="evenodd">
        <g id="Desktop-HD" transform="translate(-290.000000, -2353.000000)" fill-rule="nonzero">
            <g id="Group-2" transform="translate(290.000000, 2353.000000)">
                <g id="facebook" fill="#3C5A99">
                    <path d="M14.9286245,44 L14.9286245,23.9292979 L21.7174721,23.9292979 L22.7263941,16.111751 L14.9286245,16.111751 L14.9286245,11.1153188 C14.9286245,8.85502801 15.5613383,7.30851329 18.8275093,7.30851329 L23,7.30851329 L23,0.306710357 C20.9838119,0.0919055261 18.9570781,-0.0102232143 16.929368,0.000806345731 C10.9100372,0.000806345731 6.80594796,3.65465982 6.80594796,10.3505587 L6.80594796,16.1287456 L0,16.1287456 L0,23.9462926 L6.80594796,23.9462926 L6.80594796,44 L14.9286245,44 Z" id="f"></path>
                </g>
                <g id="twitter" transform="translate(19.000000, 26.000000)" fill="#439CD6">
                    <path d="M11.3184813,28.9999947 C24.9074365,28.9999947 32.3401318,17.840444 32.3401318,8.16957955 C32.3401318,7.85617191 32.3401318,7.54276426 32.31754,7.21816349 C33.7627595,6.18014831 35.0097388,4.89523898 36,3.42369237 C34.651471,4.01927184 33.2193232,4.40802 31.7527455,4.57658478 C33.2981178,3.66265808 34.4546141,2.22223043 35.0059617,0.524671664 C33.5563385,1.37666047 31.9711939,1.9784561 30.3181676,2.30437936 C28.0272571,-0.106793479 24.3888102,-0.695232447 21.4431007,0.869031992 C18.4973912,2.43329643 16.9770221,5.76122902 17.7345466,8.98667805 C11.7947359,8.69251261 6.26012369,5.91376485 2.50768748,1.34177016 C0.544973335,4.68500065 1.54421687,8.96422778 4.78945717,11.1133728 C3.61280407,11.0801668 2.46174265,10.7652564 1.43457797,10.1955361 L1.43457797,10.2850811 C1.43978375,13.7691634 3.91879489,16.7683834 7.36491999,17.4598776 C6.27818057,17.752275 5.1383297,17.7943912 4.03263257,17.583002 C5.00157648,20.5638676 7.77455544,22.6055695 10.9344211,22.6646831 C8.31825783,24.7004842 5.08860419,25.8079679 1.76215877,25.8099527 C1.17330956,25.809866 0.584952418,25.7762311 0,25.7092145 C3.37564154,27.8603822 7.30502558,29.002827 11.3184813,28.9999947" id="_Path_"></path>
                </g>
            </g>
        </g>
    </g>
</svg>