<svg id="Layer_1" data-name="Layer 1" xmlns="http://www.w3.org/2000/svg" viewBox="0 0 60 60"><defs><style>.cls-1{fill:#d0e8f9;}.cls-2{fill:none;stroke:#1c81e3;stroke-linecap:round;stroke-linejoin:round;stroke-width:2px;}.cls-3{fill:#fff;}</style></defs><title>stand-out</title><g id="Page-1"><g id="Icons"><g id="_35--Key-Sign--_house_-real_-estate_-property_-building_" data-name="35--Key-Sign--(house,-real,-estate,-property,-building)"><path id="Fill-782" class="cls-1" d="M36,59H24V56a1,1,0,0,1,1-1H35a1,1,0,0,1,1,1Z"/><path id="Stroke-783" class="cls-2" d="M36,59H24V56a1,1,0,0,1,1-1H35a1,1,0,0,1,1,1v3Z"/><path id="Fill-784" class="cls-1" d="M35,55H25l.21-.42A16.94,16.94,0,0,0,27,47h6a16.94,16.94,0,0,0,1.79,7.58Z"/><path id="Stroke-785" class="cls-2" d="M35,55H25l.21-.42A16.94,16.94,0,0,0,27,47h6a16.94,16.94,0,0,0,1.79,7.58L35,55Z"/><path id="Fill-786" class="cls-3" d="M56,38H4a3,3,0,0,1-3-3V8A3,3,0,0,1,4,5H56a3,3,0,0,1,3,3V35a3,3,0,0,1-3,3"/><path id="Stroke-787" class="cls-2" d="M56,38H4a3,3,0,0,1-3-3V8A3,3,0,0,1,4,5H56a3,3,0,0,1,3,3V35a3,3,0,0,1-3,3Z"/><polygon id="Fill-788" class="cls-1" points="27 5 33 5 33 1 27 1 27 5"/><polygon id="Stroke-789" class="cls-2" points="27 5 33 5 33 1 27 1 27 5"/><polygon id="Fill-790" class="cls-1" points="27 47 33 47 33 38 27 38 27 47"/><polygon id="Stroke-791" class="cls-2" points="27 47 33 47 33 38 27 38 27 47"/><path id="Fill-792" class="cls-1" d="M16,18a5,5,0,1,0-5,5,5,5,0,0,0,5-5"/><path id="Stroke-793" class="cls-2" d="M16,18a5,5,0,1,0-5,5,5,5,0,0,0,5-5Z"/><path id="Fill-794" class="cls-1" d="M34.45,22.39l-7.07,7.07-7.31-7.31a2.34,2.34,0,0,1-.68-1.45L19,16.42A2.22,2.22,0,0,1,21.41,14l4.28.39a2.35,2.35,0,0,1,1.45.68Z"/><path id="Stroke-795" class="cls-2" d="M34.45,22.39l-7.07,7.07-7.31-7.31a2.34,2.34,0,0,1-.68-1.45L19,16.42A2.22,2.22,0,0,1,21.41,14l4.28.39a2.35,2.35,0,0,1,1.45.68l7.31,7.31Z"/><path id="Fill-796" class="cls-1" d="M14,22a4.91,4.91,0,0,1-6,0v10.4L11,35l3-2.62L12,31l2-2-2-2,2-2Z"/><path id="Stroke-797" class="cls-2" d="M14,22a4.91,4.91,0,0,1-6,0v10.4L11,35l3-2.62L12,31l2-2-2-2,2-2V22Z"/><path id="Stroke-798" class="cls-2" d="M21,14a5,5,0,0,0-9.9-1"/><path id="Stroke-799" class="cls-2" d="M12,17a5,5,0,0,0,7,1"/><path id="Stroke-800" class="cls-2" d="M39,16H55"/><path id="Stroke-801" class="cls-2" d="M47,22h8"/><path id="Stroke-802" class="cls-2" d="M39,22h4"/><path id="Stroke-803" class="cls-2" d="M50,28h5"/><path id="Stroke-804" class="cls-2" d="M39,28h7"/><path id="Stroke-805" class="cls-2" d="M24,21l2-2"/><path id="Stroke-806" class="cls-2" d="M27,24l2-2"/></g></g></g></svg>