<svg id="Layer_1" data-name="Layer 1" xmlns="http://www.w3.org/2000/svg" viewBox="0 0 10.7 17.3"><title>tumblr</title><g id="Flat_3" data-name="Flat 3"><path d="M16.5,7.5v4.3h4.3v2.7H16.5v4.3a8.44,8.44,0,0,0,.2,2.1,1.34,1.34,0,0,0,.6.7,2.77,2.77,0,0,0,1.3.3,4.6,4.6,0,0,0,2.7-.9v2.7a12,12,0,0,1-2.1.9,11.08,11.08,0,0,1-1.9.2,7.61,7.61,0,0,1-2.1-.3,3.92,3.92,0,0,1-1.4-.8,3.83,3.83,0,0,1-.8-1.1,5.62,5.62,0,0,1-.3-2V14.7H10.6V12a3.16,3.16,0,0,0,1.7-.6,4.43,4.43,0,0,0,1.2-1.5,4.66,4.66,0,0,0,.3-2.1C13.9,7.5,16.5,7.5,16.5,7.5Z" transform="translate(-10.6 -7.5)"/></g></svg>