<?xml version="1.0" encoding="UTF-8"?>
<svg width="60px" height="50px" viewBox="0 0 60 50" version="1.1" xmlns="http://www.w3.org/2000/svg" xmlns:xlink="http://www.w3.org/1999/xlink">
    <!-- Generator: Sketch 50.2 (55047) - http://www.bohemiancoding.com/sketch -->
    <title>upload</title>
    <desc>Created with Sketch.</desc>
    <defs></defs>
    <g id="Page-1" stroke="none" stroke-width="1" fill="none" fill-rule="evenodd">
        <g id="Desktop-HD" transform="translate(-485.000000, -268.000000)" stroke="#572072" stroke-width="2">
            <g id="upload" transform="translate(486.000000, 269.000000)">
                <polygon id="Stroke-3084" fill-opacity="0.2" fill="#572072" fill-rule="nonzero" points="19 26 41 26 41 48 19 48"></polygon>
                <path d="M30,48 L30,32" id="Stroke-3086"></path>
                <polyline id="Stroke-3088" points="36 38 30 32 24 38"></polyline>
                <path d="M49,16 C47.3403912,15.7830839 45.6596088,15.7830839 44,16" id="Stroke-3366" stroke-linecap="round"></path>
                <path d="M7,14 C7,9.581722 10.581722,6 15,6 C19.418278,6 23,9.581722 23,14" id="Stroke-3368" stroke-linecap="round"></path>
                <path d="M47,38 C53.0614961,37.9672049 57.9672049,33.0614961 58,27 C58.0008656,21.6584612 54.2359371,17.0568819 49,16 C48.9088607,7.23253192 41.8469011,0.135085087 33.08,0 C27.5987659,0.0595676764 22.4948564,2.80207834 19.42,7.34 C16.9652065,5.71282035 13.8148932,5.56598838 11.2193894,6.95778028 C8.62388561,8.34957218 7.0029821,11.0548827 7,14 C7,14.15 7,14.3 7,14.45 C7,14.6 7,14.82 7,15 C2.78608103,17.1432802 0.095208719,21.4332994 0,26.16 C0.0219788013,32.6938267 5.31615708,37.9835373 11.85,38" id="Stroke-3370" stroke-linecap="round"></path>
            </g>
        </g>
    </g>
</svg>