<svg id="Layer_1" data-name="Layer 1" xmlns="http://www.w3.org/2000/svg" viewBox="0 0 60 50"><defs><style>.cls-1{fill:#d0e8f9;}.cls-1,.cls-2,.cls-3{stroke:#1c81e3;stroke-width:2px;}.cls-2,.cls-3{fill:none;}.cls-3{stroke-linecap:round;}</style></defs><title>upload</title><g id="Page-1"><g id="Icons"><g id="Upload-Cloud"><polygon id="Stroke-3084" class="cls-1" points="20 27 42 27 42 49 20 49 20 27"/><path id="Stroke-3086" class="cls-2" d="M31,49V33"/><polyline id="Stroke-3088" class="cls-2" points="37 39 31 33 25 39"/><path id="Stroke-3366" class="cls-3" d="M50,17a19.29,19.29,0,0,0-5,0"/><path id="Stroke-3368" class="cls-3" d="M8,15a8,8,0,0,1,16,0"/><path id="Stroke-3370" class="cls-3" d="M48,39A11.06,11.06,0,0,0,59,28a11.22,11.22,0,0,0-9-11A16.17,16.17,0,0,0,34.08,1,16.72,16.72,0,0,0,20.42,8.34,8,8,0,0,0,8,15c0,.15,0,.3,0,.45s0,.37,0,.55A12.81,12.81,0,0,0,1,27.16,11.88,11.88,0,0,0,12.85,39"/></g></g></g></svg>