<svg id="Layer_1" data-name="Layer 1" xmlns="http://www.w3.org/2000/svg" viewBox="0 0 318.7 259.09"><defs><style>.cls-1{fill:#439cd6;}</style></defs><title>twitter</title><path id="_Path_" data-name="&lt;Path&gt;" class="cls-1" d="M196.9,462C317.2,462,383,362.3,383,275.9c0-2.8,0-5.6-.2-8.5a133,133,0,0,0,32.6-33.9,128.82,128.82,0,0,1-37.6,10.3,65.54,65.54,0,0,0,28.8-36.2,131.75,131.75,0,0,1-41.5,15.9,65.45,65.45,0,0,0-111.4,59.7,185.7,185.7,0,0,1-134.8-68.3,65.43,65.43,0,0,0,20.2,87.3,64.57,64.57,0,0,1-29.7-8.2v.8a65.5,65.5,0,0,0,52.5,64.1,65.34,65.34,0,0,1-29.5,1.1,65.49,65.49,0,0,0,61.1,45.4,131.6,131.6,0,0,1-81.2,28.1,136,136,0,0,1-15.6-.9A185,185,0,0,0,196.9,462" transform="translate(-96.7 -202.91)"/></svg>