<svg id="Layer_1" data-name="Layer 1" xmlns="http://www.w3.org/2000/svg" viewBox="0 0 60 60"><defs><style>.cls-1{fill:#fff;}.cls-2,.cls-5,.cls-6{fill:none;stroke-width:2px;}.cls-2,.cls-3,.cls-5,.cls-6{stroke:#1c81e3;}.cls-2,.cls-5{stroke-linecap:round;}.cls-2{stroke-linejoin:round;}.cls-3{fill:#0096e6;}.cls-4{fill:#d0e8f9;}</style></defs><title>sells</title><g id="Page-1"><g id="Icons"><g id="_59--Contract--_business_-finance_-marketing_" data-name="59--Contract--(business,-finance,-marketing)"><polygon id="Fill-134" class="cls-1" points="43.22 49.44 35.44 51.56 37.56 43.78 47 34.34 47 13 35 13 35 1 1 1 1 59 47 59 47 45.66 43.22 49.44"/><polygon id="Stroke-135" class="cls-2" points="43.22 49.44 35.44 51.56 37.56 43.78 47 34.34 47 13 35 13 35 1 1 1 1 59 47 59 47 45.66 43.22 49.44"/><path id="Fill-1204" class="cls-3" d="M14,46a1,1,0,1,1-1-1,1,1,0,0,1,1,1" transform="translate(0)"/><polygon id="Fill-1236" class="cls-4" points="47 13 35 13 35 1 47 13"/><polygon id="Stroke-1237" class="cls-2" points="47 13 35 13 35 1 47 13"/><path id="Stroke-1238" class="cls-2" d="M7,10H29" transform="translate(0)"/><path id="Stroke-1239" class="cls-2" d="M7,18H33" transform="translate(0)"/><path id="Stroke-1240" class="cls-2" d="M7,26H41" transform="translate(0)"/><path id="Stroke-1241" class="cls-2" d="M7,34H41" transform="translate(0)"/><path id="Stroke-1242" class="cls-2" d="M7,46H9" transform="translate(0)"/><path id="Stroke-1243" class="cls-2" d="M17,48a2,2,0,1,0,2-2,2,2,0,1,1,2-2" transform="translate(0)"/><path id="Stroke-1244" class="cls-2" d="M19,50v1" transform="translate(0)"/><path id="Stroke-1245" class="cls-2" d="M19,41v1" transform="translate(0)"/><path id="Stroke-1246" class="cls-5" d="M35.44,51.56l-.71.71" transform="translate(0)"/><path id="Fill-1247" class="cls-4" d="M43.22,49.44l-7.78,2.12,2.12-7.78,15.2-15.2a2,2,0,0,1,2.81,0l2.85,2.85a2,2,0,0,1,0,2.81Z" transform="translate(0)"/><path id="Stroke-1248" class="cls-2" d="M43.22,49.44l-7.78,2.12,2.12-7.78,15.2-15.2a2,2,0,0,1,2.81,0l2.85,2.85a2,2,0,0,1,0,2.81Z" transform="translate(0)"/><path id="Stroke-1249" class="cls-6" d="M54.87,37.78l-5.66-5.66" transform="translate(0)"/><path id="Stroke-1250" class="cls-6" d="M37.56,43.78l5.66,5.66" transform="translate(0)"/></g></g></g></svg>