<svg id="Layer_1" data-name="Layer 1" xmlns="http://www.w3.org/2000/svg" viewBox="0 0 60 60"><defs><style>.cls-1{fill:#fff;}.cls-2{fill:none;stroke:#e11825;stroke-linecap:round;stroke-linejoin:round;stroke-width:2px;}.cls-3{fill:#f9d0d3;}</style></defs><title>calendar-when-you-want</title><g id="Page-1"><g id="Icons"><g id="_94--Money-Date--_business_-finance_-marketing_" data-name="94--Money-Date--(business,-finance,-marketing)"><path id="Fill-1" class="cls-1" d="M35,47A12,12,0,0,1,53,36.62V15H1V53a2,2,0,0,0,2,2H38.07A11.94,11.94,0,0,1,35,47Z"/><path id="Stroke-3" class="cls-2" d="M35,47A12,12,0,0,1,53,36.62V15H1V53a2,2,0,0,0,2,2H38.07A11.94,11.94,0,0,1,35,47Z"/><path id="Fill-5" class="cls-1" d="M59,47A12,12,0,1,1,47,35,12,12,0,0,1,59,47"/><path id="Stroke-7" class="cls-2" d="M59,47A12,12,0,1,1,47,35,12,12,0,0,1,59,47Z"/><path id="Fill-9" class="cls-1" d="M1,15V7A2,2,0,0,1,3,5H51a2,2,0,0,1,2,2v8Z"/><path id="Stroke-11" class="cls-2" d="M1,15V7A2,2,0,0,1,3,5H51a2,2,0,0,1,2,2v8Z"/><path id="Stroke-1478" class="cls-2" d="M45,9a4,4,0,1,0-4-4"/><path id="Stroke-1479" class="cls-2" d="M33,9a4,4,0,1,0-4-4"/><path id="Stroke-1480" class="cls-2" d="M21,9a4,4,0,1,0-4-4"/><path id="Stroke-1481" class="cls-2" d="M9,9A4,4,0,1,0,5,5"/><polygon id="Fill-1482" class="cls-3" points="6 27 12 27 12 21 6 21 6 27"/><polygon id="Stroke-1483" class="cls-2" points="6 27 12 27 12 21 6 21 6 27"/><polygon id="Fill-1484" class="cls-3" points="18 27 24 27 24 21 18 21 18 27"/><polygon id="Stroke-1485" class="cls-2" points="18 27 24 27 24 21 18 21 18 27"/><polygon id="Fill-1486" class="cls-3" points="30 27 36 27 36 21 30 21 30 27"/><polygon id="Stroke-1487" class="cls-2" points="30 27 36 27 36 21 30 21 30 27"/><polygon id="Fill-1488" class="cls-3" points="42 27 48 27 48 21 42 21 42 27"/><polygon id="Stroke-1489" class="cls-2" points="42 27 48 27 48 21 42 21 42 27"/><polygon id="Fill-1490" class="cls-3" points="6 38 12 38 12 32 6 32 6 38"/><polygon id="Stroke-1491" class="cls-2" points="6 38 12 38 12 32 6 32 6 38"/><polygon id="Fill-1492" class="cls-3" points="18 38 24 38 24 32 18 32 18 38"/><polygon id="Stroke-1493" class="cls-2" points="18 38 24 38 24 32 18 32 18 38"/><polygon id="Fill-1494" class="cls-3" points="30 38 36 38 36 32 30 32 30 38"/><polygon id="Stroke-1495" class="cls-2" points="30 38 36 38 36 32 30 32 30 38"/><polygon id="Fill-1496" class="cls-3" points="6 49 12 49 12 43 6 43 6 49"/><polygon id="Stroke-1497" class="cls-2" points="6 49 12 49 12 43 6 43 6 49"/><polygon id="Fill-1498" class="cls-3" points="18 49 24 49 24 43 18 43 18 49"/><polygon id="Stroke-1499" class="cls-2" points="18 49 24 49 24 43 18 43 18 49"/><path id="Stroke-1500" class="cls-2" d="M44,50a3,3,0,1,0,3-3,3,3,0,1,1,3-3"/><path id="Stroke-1501" class="cls-2" d="M47,39V55"/><path id="Fill-1502" class="cls-3" d="M35,47a12,12,0,0,1,.7-4H30v6h5.18A12,12,0,0,1,35,47"/><path id="Stroke-1503" class="cls-2" d="M35,47a12,12,0,0,1,.7-4H30v6h5.18A12,12,0,0,1,35,47Z"/><path id="Stroke-1504" class="cls-2" d="M47,35c.34,0,.67,0,1,.05V32H42v4.1A11.92,11.92,0,0,1,47,35Z"/></g></g></g></svg>