<?xml version="1.0" encoding="utf-8"?>
<!-- Generator: Adobe Illustrator 22.1.0, SVG Export Plug-In . SVG Version: 6.00 Build 0)  -->
<svg version="1.1" id="Layer_1" xmlns="http://www.w3.org/2000/svg" xmlns:xlink="http://www.w3.org/1999/xlink" x="0px" y="0px"
	 viewBox="0 0 1280 1024" style="enable-background:new 0 0 1280 1024;" xml:space="preserve">
<style type="text/css">
	.st0{opacity:0.46;}
	.st1{fill:url(#SVGID_1_);}
	.st2{opacity:0.36;fill:#FFFFFF;}
	.st3{opacity:0.4;}
	.st4{fill:#425776;}
	.st5{opacity:0.63;}
	.st6{fill:#FFFFFF;}
	.st7{fill:#FF0000;}
</style>
<g>
	<g class="st0">
		<path d="M78.5,71.1c0-2,1.3-3.9,3.4-5.3v-0.2c-1.2-0.7-2.1-2-2.1-3.8c0-1.9,1.4-3.5,2.6-4.3v-0.2c-1.5-1.2-3-3.5-3-6.3
			c0-5.1,4-8.3,8.8-8.3c1.3,0,2.4,0.3,3.3,0.6h8.1v3h-4.8c1.1,1.1,1.9,2.8,1.9,4.8c0,5-3.8,8.1-8.5,8.1c-1.1,0-2.4-0.3-3.5-0.8
			c-0.8,0.7-1.5,1.5-1.5,2.8c0,1.5,1,2.5,4.1,2.5h4.5c5.4,0,8.2,1.7,8.2,5.6c0,4.3-4.6,8.1-11.8,8.1C82.4,77.4,78.5,75.1,78.5,71.1z
			 M96.1,69.9c0-2.2-1.6-2.9-4.7-2.9h-4c-0.9,0-2-0.1-3-0.3c-1.7,1.2-2.4,2.6-2.4,3.9c0,2.5,2.5,4.1,6.8,4.1
			C93.1,74.6,96.1,72.3,96.1,69.9z M93.1,51c0-3.4-2.2-5.4-5-5.4c-2.8,0-5,2-5,5.4c0,3.4,2.3,5.5,5,5.5S93.1,54.4,93.1,51z"/>
		<path d="M104.4,43.3h3.3l0.3,4.2h0.1c1.6-3,4-4.8,6.6-4.8c1,0,1.8,0.1,2.5,0.5l-0.7,3.5c-0.8-0.3-1.3-0.4-2.3-0.4
			c-2,0-4.3,1.4-5.9,5.4v15h-3.9V43.3z"/>
		<path d="M119.7,60.6c0-5.1,4.4-7.6,14.3-8.7c0-3-1-5.9-4.8-5.9c-2.7,0-5.1,1.3-7,2.5l-1.5-2.7c2.1-1.4,5.4-3,9.2-3
			c5.7,0,8.1,3.8,8.1,9.6v14.3h-3.3l-0.3-2.8h-0.1c-2.2,1.8-4.8,3.4-7.7,3.4C122.6,67.2,119.7,64.8,119.7,60.6z M134,60.9v-6.5
			c-7.8,0.9-10.5,2.9-10.5,5.8c0,2.7,1.8,3.7,4.1,3.7C129.9,64,131.7,62.9,134,60.9z"/>
		<path d="M142,43.3h4.1l4.4,13.3c0.7,2.3,1.5,4.7,2.2,6.9h0.2c0.7-2.2,1.5-4.6,2.2-6.9l4.4-13.3h3.9L155,66.6h-4.6L142,43.3z"/>
		<path d="M167,35.9c0-1.6,1.2-2.6,2.7-2.6c1.5,0,2.7,1,2.7,2.6c0,1.5-1.2,2.6-2.7,2.6C168.2,38.5,167,37.4,167,35.9z M167.7,43.3
			h3.9v23.3h-3.9V43.3z"/>
		<path d="M180.2,59.4V46.5h-3.5v-3l3.6-0.2l0.5-6.5h3.3v6.5h6.3v3.2h-6.3v13c0,2.9,0.9,4.5,3.6,4.5c0.8,0,1.9-0.3,2.7-0.6l0.8,3
			c-1.3,0.4-2.9,0.9-4.3,0.9C181.9,67.2,180.2,64,180.2,59.4z"/>
	</g>
</g>
<radialGradient id="SVGID_1_" cx="224.5" cy="49.5" r="24.026" gradientUnits="userSpaceOnUse">
	<stop  offset="0" style="stop-color:#ED1E79;stop-opacity:0.6"/>
	<stop  offset="1" style="stop-color:#000000"/>
</radialGradient>
<path class="st1" d="M241,68h-33c-6.6,0-12-5.4-12-12V43c0-6.6,5.4-12,12-12h33c6.6,0,12,5.4,12,12v13C253,62.6,247.6,68,241,68z"/>
<path class="st2" d="M241.1,38.5c8.3,3.9,1.4,6.6,2.4,12.1c-0.6-3.2-3.4-9.1-3.4-9.1C214,30.4,241.1,38.5,241.1,38.5z"/>
<path class="st3" d="M246,72.5h-39c-6.6,0-12-5.4-12-12V44c0-6.6,5.4-12,12-12h39c6.6,0,12,5.4,12,12v16.5
	C258,67.1,252.6,72.5,246,72.5z M251.4,56.3v-8c0-6.6-5.4-12-12-12h-25.8c-6.6,0-12,5.4-12,12v8c0,6.6,5.4,12,12,12h25.8
	C246,68.3,251.4,62.9,251.4,56.3z"/>
<path class="st4" d="M244,69.5h-39c-6.6,0-12-5.4-12-12V41c0-6.6,5.4-12,12-12h39c6.6,0,12,5.4,12,12v16.5
	C256,64.1,250.6,69.5,244,69.5z M249.4,53.3v-8c0-6.6-5.4-12-12-12h-25.8c-6.6,0-12,5.4-12,12v8c0,6.6,5.4,12,12,12h25.8
	C244,65.3,249.4,59.9,249.4,53.3z"/>
<g>
	<g>
		<path class="st4" d="M76.5,69.1c0-2,1.3-3.9,3.4-5.3v-0.2c-1.2-0.7-2.1-2-2.1-3.8c0-1.9,1.4-3.5,2.6-4.3v-0.2
			c-1.5-1.2-3-3.5-3-6.3c0-5.1,4-8.3,8.8-8.3c1.3,0,2.4,0.3,3.3,0.6h8.1v3h-4.8c1.1,1.1,1.9,2.8,1.9,4.8c0,5-3.8,8.1-8.5,8.1
			c-1.1,0-2.4-0.3-3.5-0.8c-0.8,0.7-1.5,1.5-1.5,2.8c0,1.5,1,2.5,4.1,2.5h4.5c5.4,0,8.2,1.7,8.2,5.6c0,4.3-4.6,8.1-11.8,8.1
			C80.4,75.4,76.5,73.1,76.5,69.1z M94.1,67.9c0-2.2-1.6-2.9-4.7-2.9h-4c-0.9,0-2-0.1-3-0.3c-1.7,1.2-2.4,2.6-2.4,3.9
			c0,2.5,2.5,4.1,6.8,4.1C91.1,72.6,94.1,70.3,94.1,67.9z M91.1,49c0-3.4-2.2-5.4-5-5.4c-2.8,0-5,2-5,5.4c0,3.4,2.3,5.5,5,5.5
			S91.1,52.4,91.1,49z"/>
		<path class="st4" d="M102.4,41.3h3.3l0.3,4.2h0.1c1.6-3,4-4.8,6.6-4.8c1,0,1.8,0.1,2.5,0.5l-0.7,3.5c-0.8-0.3-1.3-0.4-2.3-0.4
			c-2,0-4.3,1.4-5.9,5.4v15h-3.9V41.3z"/>
		<path class="st4" d="M117.7,58.6c0-5.1,4.4-7.6,14.3-8.7c0-3-1-5.9-4.8-5.9c-2.7,0-5.1,1.3-7,2.5l-1.5-2.7c2.1-1.4,5.4-3,9.2-3
			c5.7,0,8.1,3.8,8.1,9.6v14.3h-3.3l-0.3-2.8h-0.1c-2.2,1.8-4.8,3.4-7.7,3.4C120.6,65.2,117.7,62.8,117.7,58.6z M132,58.9v-6.5
			c-7.8,0.9-10.5,2.9-10.5,5.8c0,2.7,1.8,3.7,4.1,3.7C127.9,62,129.7,60.9,132,58.9z"/>
		<path class="st4" d="M140,41.3h4.1l4.4,13.3c0.7,2.3,1.5,4.7,2.2,6.9h0.2c0.7-2.2,1.5-4.6,2.2-6.9l4.4-13.3h3.9L153,64.6h-4.6
			L140,41.3z"/>
		<path class="st4" d="M165,33.9c0-1.6,1.2-2.6,2.7-2.6c1.5,0,2.7,1,2.7,2.6c0,1.5-1.2,2.6-2.7,2.6C166.2,36.5,165,35.4,165,33.9z
			 M165.7,41.3h3.9v23.3h-3.9V41.3z"/>
		<path class="st4" d="M178.2,57.4V44.5h-3.5v-3l3.6-0.2l0.5-6.5h3.3v6.5h6.3v3.2h-6.3v13c0,2.9,0.9,4.5,3.6,4.5
			c0.8,0,1.9-0.3,2.7-0.6l0.8,3c-1.3,0.4-2.9,0.9-4.3,0.9C179.9,65.2,178.2,62,178.2,57.4z"/>
	</g>
</g>
<g>
	<g class="st5">
		<path class="st6" d="M215.6,45c0-0.8,0.6-1.3,1.4-1.3c0.8,0,1.4,0.5,1.4,1.3c0,0.7-0.6,1.3-1.4,1.3
			C216.2,46.3,215.6,45.7,215.6,45z M216,48.7h2v11.7h-2V48.7z"/>
		<path class="st6" d="M220.6,59l1-1.3c1,0.8,2,1.4,3.4,1.4c1.5,0,2.3-0.8,2.3-1.8c0-1.2-1.4-1.7-2.7-2.2c-1.6-0.6-3.5-1.4-3.5-3.4
			c0-1.9,1.5-3.3,4-3.3c1.5,0,2.7,0.6,3.6,1.3l-0.9,1.3c-0.8-0.6-1.6-1-2.7-1c-1.5,0-2.1,0.8-2.1,1.7c0,1.1,1.3,1.5,2.6,2
			c1.7,0.6,3.6,1.3,3.6,3.5c0,1.9-1.5,3.5-4.3,3.5C223.3,60.6,221.7,59.9,220.6,59z"/>
		<path class="st6" d="M232.3,56.7v-6.5h-1.7v-1.5l1.8-0.1l0.2-3.3h1.6v3.3h3.2v1.6h-3.2v6.5c0,1.4,0.5,2.3,1.8,2.3
			c0.4,0,0.9-0.2,1.3-0.3l0.4,1.5c-0.7,0.2-1.4,0.4-2.2,0.4C233.1,60.6,232.3,59,232.3,56.7z"/>
	</g>
</g>
<g>
	<g>
		<path class="st7" d="M207.3,59.7c0-1.4,1-2.3,2.1-2.3s2.1,0.9,2.1,2.3c0,1.3-1,2.2-2.1,2.2S207.3,61,207.3,59.7z"/>
	</g>
</g>
</svg>
