<svg id="svg29881" xmlns="http://www.w3.org/2000/svg" xmlns:xlink="http://www.w3.org/1999/xlink" viewBox="0 0 720.03 481.28"><defs><style>.cls-1{fill:none;}.cls-2{clip-path:url(#clip-path);}.cls-3{clip-path:url(#clip-path-2);}.cls-4{fill:#fff;}.cls-5{fill:#ca4638;}.cls-6{clip-path:url(#clip-path-3);}.cls-7{fill:#356ba0;}</style><clipPath id="clip-path" transform="translate(104.01 -15.36)"><path class="cls-1" d="M1187,634.6c0,132.55-107.45,240-240,240s-240-107.45-240-240h0c0-132.55,107.45-240,240-240s240,107.45,240,240Z"/></clipPath><clipPath id="clip-path-2" transform="translate(104.01 -15.36)"><path class="cls-1" d="M496,256.64c.05,132.55-107.35,240-239.9,240.1S16.05,389.39,16,256.84v-.2c-.05-132.55,107.35-240,239.9-240.1s240,107.35,240.1,239.9Z"/></clipPath><clipPath id="clip-path-3" transform="translate(104.01 -15.36)"><path class="cls-1" d="M496,255.36c.05,132.55-107.35,240-239.9,240.1S16.05,388.1,16,255.56v-.2c-.05-132.55,107.35-240,239.9-240.1s240,107.35,240.1,239.9Z"/></clipPath></defs><title>usa</title><g id="layer1"><g id="g3721"><g class="cls-3"><g id="g3239"><path id="path18829" class="cls-4" d="M-104,385.86H616V348.92H-104Z" transform="translate(104.01 -15.36)"/><path id="path18831" class="cls-5" d="M-104,348.92H616V312H-104Z" transform="translate(104.01 -15.36)"/><path id="path18833" class="cls-4" d="M-104,459.7H616V422.77H-104Z" transform="translate(104.01 -15.36)"/><path id="path18835" class="cls-5" d="M-104,496.64H616V459.7H-104Z" transform="translate(104.01 -15.36)"/><path id="path18837" class="cls-5" d="M-104,422.77H616v-36.9H-104Z" transform="translate(104.01 -15.36)"/><path id="path18839" class="cls-4" d="M-104,310.25H616v-36.9H-104Z" transform="translate(104.01 -15.36)"/><path id="path18841" class="cls-5" d="M-104,201.22H616v-36.9H-104Z" transform="translate(104.01 -15.36)"/><path id="path18843" class="cls-4" d="M-104,90.44H616V53.5H-104Z" transform="translate(104.01 -15.36)"/><path id="path18845" class="cls-5" d="M-104,127.37H616V90.44H-104Z" transform="translate(104.01 -15.36)"/><path id="path18847" class="cls-5" d="M-104,275.09H616v-37H-104Z" transform="translate(104.01 -15.36)"/><path id="path18849" class="cls-5" d="M-104,53.5H616V16.64H-104Z" transform="translate(104.01 -15.36)"/><path id="path18851" class="cls-4" d="M-104,164.32H616V127.37H-104Z" transform="translate(104.01 -15.36)"/><path id="path18853" class="cls-4" d="M-104,238.12H616v-36.9H-104v36.9Z" transform="translate(104.01 -15.36)"/></g></g><g class="cls-6"><path id="path3517" class="cls-7" d="M16,275.16H256V15.36H16Z" transform="translate(104.01 -15.36)"/></g><path id="path18857" class="cls-4" d="M199.63,50.11l1.8,5.58h5.86l-4.74,3.44,1.83,5.58-4.74-3.45-4.78,3.45,1.83-5.58-4.74-3.44h5.86l1.83-5.58" transform="translate(104.01 -15.36)"/><path id="path18859" class="cls-4" d="M199.63,99.09l1.8,5.57h5.86l-4.74,3.45,1.83,5.57-4.74-3.41-4.78,3.41,1.83-5.57-4.74-3.45h5.86l1.83-5.57" transform="translate(104.01 -15.36)"/><path id="path18861" class="cls-4" d="M199.63,148.09l1.8,5.59h5.86l-4.74,3.43,1.83,5.59-4.74-3.45-4.78,3.45,1.83-5.59-4.74-3.43h5.86l1.83-5.59" transform="translate(104.01 -15.36)"/><path id="path18863" class="cls-4" d="M199.63,198.18l1.8,5.61h5.86l-4.74,3.45,1.83,5.61-4.74-3.49-4.78,3.49,1.83-5.61-4.74-3.45h5.86l1.83-5.61" transform="translate(104.01 -15.36)"/><path id="path18865" class="cls-4" d="M199.63,246l1.8,5.59h5.86l-4.74,3.47,1.83,5.57-4.74-3.47-4.78,3.47,1.83-5.57-4.74-3.47h5.86l1.83-5.59" transform="translate(104.01 -15.36)"/><path id="path18867" class="cls-4" d="M155.69,50.11l1.81,5.58h5.88l-4.76,3.44,1.81,5.58-4.74-3.45-4.75,3.45,1.8-5.58L148,55.69h5.88l1.81-5.58" transform="translate(104.01 -15.36)"/><path id="path18869" class="cls-4" d="M155.69,99.09l1.81,5.57h5.88l-4.76,3.45,1.81,5.57-4.74-3.41-4.75,3.41,1.8-5.57L148,104.66h5.88l1.81-5.57" transform="translate(104.01 -15.36)"/><path id="path18871" class="cls-4" d="M155.69,148.09l1.81,5.59h5.88l-4.76,3.43,1.81,5.59-4.74-3.45-4.75,3.45,1.8-5.59L148,153.68h5.88l1.81-5.59" transform="translate(104.01 -15.36)"/><path id="path18873" class="cls-4" d="M155.69,198.18l1.81,5.61h5.88l-4.76,3.45,1.81,5.61-4.74-3.49-4.75,3.49,1.8-5.61L148,203.79h5.88l1.81-5.61" transform="translate(104.01 -15.36)"/><path id="path18875" class="cls-4" d="M155.69,246l1.81,5.59h5.88l-4.76,3.47,1.81,5.57-4.74-3.47-4.75,3.47,1.8-5.57L148,251.63h5.88l1.81-5.59" transform="translate(104.01 -15.36)"/><path id="path18879" class="cls-4" d="M111.78,99.09l1.79,5.57h5.86l-4.74,3.45,1.83,5.57-4.74-3.41L107,113.68l1.83-5.57-4.74-3.45h5.85l1.84-5.57" transform="translate(104.01 -15.36)"/><path id="path18881" class="cls-4" d="M111.78,148.09l1.79,5.59h5.86l-4.74,3.43,1.83,5.59-4.74-3.45L107,162.7l1.83-5.59-4.74-3.43h5.85l1.84-5.59" transform="translate(104.01 -15.36)"/><path id="path18883" class="cls-4" d="M111.78,198.18l1.79,5.61h5.86l-4.74,3.45,1.83,5.61-4.74-3.49L107,212.85l1.83-5.61-4.74-3.45h5.85l1.84-5.61" transform="translate(104.01 -15.36)"/><path id="path18885" class="cls-4" d="M111.78,246l1.79,5.59h5.86l-4.74,3.47,1.83,5.57-4.74-3.47L107,260.68l1.83-5.57-4.74-3.47h5.85l1.84-5.59" transform="translate(104.01 -15.36)"/><path id="path18891" class="cls-4" d="M67.83,148.09l1.81,5.59h5.88l-4.74,3.43,1.81,5.59-4.75-3.45-4.74,3.45,1.81-5.59-4.75-3.43H66l1.83-5.59" transform="translate(104.01 -15.36)"/><path id="path18893" class="cls-4" d="M67.83,198.18l1.81,5.61h5.88l-4.74,3.45,1.81,5.61-4.75-3.49-4.74,3.49,1.81-5.61-4.75-3.45H66l1.83-5.61" transform="translate(104.01 -15.36)"/><path id="path18895" class="cls-4" d="M67.83,246l1.81,5.59h5.88l-4.74,3.47,1.81,5.57-4.75-3.47-4.74,3.47,1.81-5.57-4.75-3.47H66L67.84,246" transform="translate(104.01 -15.36)"/><path id="path18907" class="cls-4" d="M222,74.57l1.81,5.61h5.88l-4.75,3.41,1.81,5.61L222,85.76l-4.76,3.44,1.82-5.61-4.75-3.41h5.87L222,74.57" transform="translate(104.01 -15.36)"/><path id="path18909" class="cls-4" d="M222,125.16l1.81,5.58h5.88l-4.75,3.44,1.81,5.58L222,136.31l-4.76,3.45,1.82-5.58-4.75-3.44h5.87l1.82-5.58" transform="translate(104.01 -15.36)"/><path id="path18911" class="cls-4" d="M221.56,174.73l1.82,5.57h5.87l-4.74,3.45,1.81,5.57-4.75-3.47-4.74,3.47,1.81-5.57-4.75-3.45h5.88l1.81-5.57" transform="translate(104.01 -15.36)"/><path id="path18913" class="cls-4" d="M221.13,223.71l1.82,5.58h5.88l-4.77,3.44,1.83,5.58-4.77-3.43-4.73,3.43,1.81-5.58-4.77-3.44h5.88l1.81-5.58" transform="translate(104.01 -15.36)"/><path id="path18915" class="cls-4" d="M178.07,74.57l1.82,5.61h5.88L181,83.59l1.83,5.61-4.77-3.44-4.75,3.44,1.83-5.61-4.74-3.41h5.86l1.81-5.61" transform="translate(104.01 -15.36)"/><path id="path18917" class="cls-4" d="M178.07,125.16l1.82,5.58h5.88L181,134.19l1.83,5.58-4.77-3.45-4.75,3.45,1.83-5.58-4.74-3.44h5.86l1.81-5.58" transform="translate(104.01 -15.36)"/><path id="path18919" class="cls-4" d="M177.65,174.73l1.81,5.57h5.88l-4.74,3.45,1.81,5.57-4.75-3.47-4.74,3.47,1.81-5.57L170,180.31h5.86l1.83-5.57" transform="translate(104.01 -15.36)"/><path id="path18921" class="cls-4" d="M177.21,223.71l1.81,5.58h5.87l-4.74,3.44L182,238.3l-4.74-3.43-4.75,3.43,1.81-5.58-4.74-3.44h5.87l1.82-5.58" transform="translate(104.01 -15.36)"/><path id="path18923" class="cls-4" d="M134.15,72.84,136,78.42h5.87l-4.74,3.45,1.82,5.57L134.15,84l-4.74,3.44,1.82-5.57-4.75-3.45h5.87l1.81-5.57" transform="translate(104.01 -15.36)"/><path id="path18925" class="cls-4" d="M134.15,123.4,136,129h5.87l-4.74,3.47,1.82,5.55-4.77-3.41L129.41,138l1.82-5.55L126.47,129h5.87l1.81-5.57" transform="translate(104.01 -15.36)"/><path id="path18927" class="cls-4" d="M133.72,173l1.79,5.57h5.88L136.64,182l1.82,5.57-4.74-3.45L129,187.56l1.82-5.57L126,178.54h5.87l1.82-5.57" transform="translate(104.01 -15.36)"/><path id="path18929" class="cls-4" d="M133.27,222l1.82,5.59H141L136.22,231l1.81,5.61-4.75-3.45-4.74,3.45,1.81-5.61-4.75-3.41h5.87l1.82-5.59" transform="translate(104.01 -15.36)"/><path id="path18933" class="cls-4" d="M90.24,122.9l1.8,5.57h5.87L93.16,132,95,137.53l-4.73-3.47-4.77,3.47L87.31,132l-4.75-3.49h5.87l1.82-5.57" transform="translate(104.01 -15.36)"/><path id="path18935" class="cls-4" d="M89.81,172.46,91.6,178h5.88l-4.75,3.47,1.82,5.57-4.74-3.47-4.75,3.47,1.81-5.57L82.12,178H88l1.83-5.59" transform="translate(104.01 -15.36)"/><path id="path18937" class="cls-4" d="M89.36,221.44,91.18,227H97L92.3,230.5l1.8,5.57-4.74-3.47-4.74,3.47,1.81-5.57L81.67,227h5.87l1.82-5.59" transform="translate(104.01 -15.36)"/><path id="path18943" class="cls-4" d="M45.85,171.62l1.82,5.58h5.87l-4.75,3.44,1.82,5.58-4.76-3.45-4.74,3.45,1.81-5.58-4.75-3.44h5.88l1.81-5.58" transform="translate(104.01 -15.36)"/><path id="path18945" class="cls-4" d="M45.43,220.59l1.79,5.57h5.88l-4.75,3.45,1.82,5.57-4.74-3.44-4.77,3.44,1.82-5.57-4.74-3.45h5.87l1.82-5.57" transform="translate(104.01 -15.36)"/><path id="path18947" class="cls-4" d="M243.54,50.11l1.8,5.58h5.88l-4.74,3.44,1.8,5.58-4.74-3.45-4.75,3.45,1.81-5.58-4.74-3.44h5.87l1.82-5.58" transform="translate(104.01 -15.36)"/><path id="path18949" class="cls-4" d="M243.54,99.09l1.8,5.57h5.88l-4.74,3.45,1.8,5.57-4.74-3.41-4.75,3.41,1.81-5.57-4.74-3.45h5.87l1.82-5.57" transform="translate(104.01 -15.36)"/><path id="path18951" class="cls-4" d="M243.54,148.09l1.8,5.59h5.88l-4.74,3.43,1.8,5.59-4.74-3.45-4.75,3.45,1.81-5.59-4.74-3.43h5.87l1.82-5.59" transform="translate(104.01 -15.36)"/><path id="path18953" class="cls-4" d="M243.54,198.18l1.8,5.61h5.88l-4.74,3.45,1.8,5.61-4.74-3.49-4.75,3.49,1.81-5.61-4.74-3.45h5.87l1.82-5.61" transform="translate(104.01 -15.36)"/><path id="path18955" class="cls-4" d="M243.54,246l1.8,5.59h5.88l-4.74,3.47,1.8,5.57-4.74-3.47-4.75,3.47,1.81-5.57-4.74-3.47h5.87l1.82-5.59" transform="translate(104.01 -15.36)"/><path id="path3711" class="cls-4" d="M222,27.85l1.81,5.59h5.88L225,36.91l1.81,5.57L222,39l-4.74,3.47,1.81-5.57-4.75-3.47h5.86L222,27.85" transform="translate(104.01 -15.36)"/><path id="path3713" class="cls-4" d="M27.43,246l1.81,5.59h5.88l-4.74,3.47,1.81,5.57-4.75-3.47-4.74,3.47,1.81-5.57-4.75-3.47H25.6L27.43,246" transform="translate(104.01 -15.36)"/><path id="path3715" class="cls-4" d="M31.47,198.18l1.81,5.61h5.88l-4.74,3.45,1.81,5.61-4.75-3.49-4.74,3.49,1.81-5.61-4.75-3.45h5.86l1.83-5.61" transform="translate(104.01 -15.36)"/><path id="path3719" class="cls-4" d="M178.07,32.15l1.82,5.61h5.88L181,41.17l1.83,5.61-4.77-3.44-4.75,3.44,1.83-5.61-4.74-3.41h5.86l1.81-5.61" transform="translate(104.01 -15.36)"/></g></g></svg>