<svg id="Layer_1" data-name="Layer 1" xmlns="http://www.w3.org/2000/svg" viewBox="0 0 60 60"><defs><style>.cls-1{fill:#fff;}.cls-2,.cls-4,.cls-5{fill:none;stroke-linecap:round;stroke-width:2px;}.cls-2,.cls-4{stroke:#1c81e3;}.cls-2{stroke-linejoin:round;}.cls-3{fill:#d0e8f9;}.cls-5{stroke:#0096e6;}.cls-6{fill:#1c81e3;}</style></defs><title>account</title><g id="Page-1"><g id="Icons"><g id="_16--Computer--_technology_-device_-gadget_" data-name="16--Computer--(technology,-device,-gadget)"><path id="Fill-108" class="cls-1" d="M33,9V5a4,4,0,0,1,4-4H5A4,4,0,0,0,1,5V41a4,4,0,0,0,4,4H33Z"/><path id="Stroke-109" class="cls-2" d="M33,9V5a4,4,0,0,1,4-4H5A4,4,0,0,0,1,5V41a4,4,0,0,0,4,4H33Z"/><polygon id="Fill-110" class="cls-1" points="33 51 59 51 59 9 33 9 33 51"/><polygon id="Stroke-111" class="cls-2" points="33 51 59 51 59 9 33 9 33 51"/><polygon id="Fill-384" class="cls-3" points="37 17 55 17 55 13 37 13 37 17"/><polygon id="Stroke-385" class="cls-2" points="37 17 55 17 55 13 37 13 37 17"/><polygon id="Fill-386" class="cls-3" points="37 25 55 25 55 21 37 21 37 25"/><polygon id="Stroke-387" class="cls-2" points="37 25 55 25 55 21 37 21 37 25"/><polygon id="Fill-388" class="cls-3" points="37 42 41 42 41 34 37 34 37 42"/><polygon id="Stroke-389" class="cls-2" points="37 42 41 42 41 34 37 34 37 42"/><path id="Stroke-390" class="cls-4" d="M10,14l4-4"/><path id="Stroke-391" class="cls-4" d="M10,19l2-2"/><path id="Stroke-392" class="cls-5" d="M1,1"/><path id="Stroke-393" class="cls-4" d="M16,13l3-3"/><path id="Stroke-394" class="cls-4" d="M10,24l9-9"/><path id="Stroke-395" class="cls-5" d="M1,1"/><path id="Stroke-396" class="cls-4" d="M23,11l1-1"/><path id="Stroke-397" class="cls-2" d="M27,41h6"/><path id="Fill-398" class="cls-6" d="M50,41a1,1,0,1,0-1,1,1,1,0,0,0,1-1"/><path id="Fill-399" class="cls-6" d="M55,41a1,1,0,1,0-1,1,1,1,0,0,0,1-1"/><path id="Stroke-400" class="cls-2" d="M33,9V5H7A2,2,0,0,0,5,7V37H33Z"/><path id="Stroke-401" class="cls-2" d="M33,37H1v4a4,4,0,0,0,4,4H33Z"/><polygon id="Fill-402" class="cls-3" points="33 45 27 45 25 55 33 55 33 51 33 45"/><polygon id="Stroke-403" class="cls-2" points="33 45 27 45 25 55 33 55 33 51 33 45"/><path id="Fill-404" class="cls-3" d="M55,1H37a4,4,0,0,0-4,4V9H59V5a4,4,0,0,0-4-4"/><path id="Stroke-405" class="cls-2" d="M55,1H37a4,4,0,0,0-4,4V9H59V5A4,4,0,0,0,55,1Z"/><path id="Fill-406" class="cls-3" d="M55,59H37a4,4,0,0,1-4-4V51H59v4a4,4,0,0,1-4,4"/><path id="Stroke-407" class="cls-2" d="M55,59H37a4,4,0,0,1-4-4V51H59v4A4,4,0,0,1,55,59Z"/><path id="Fill-408" class="cls-1" d="M33,55H20a1,1,0,0,0-1,1v2a1,1,0,0,0,1,1H37a4,4,0,0,1-4-4"/><path id="Stroke-409" class="cls-2" d="M33,55H20a1,1,0,0,0-1,1v2a1,1,0,0,0,1,1H37A4,4,0,0,1,33,55Z"/></g></g></g></svg>