<svg id="Layer_1" data-name="Layer 1" xmlns="http://www.w3.org/2000/svg" viewBox="0 0 19.8 18.6"><defs><style>.cls-1{fill:#fffc00;stroke:#666767;stroke-miterlimit:10;}</style></defs><title>snapchat</title><g id="Flat_3" data-name="Flat 3"><path class="cls-1" d="M16.1,24.8h-.2a4,4,0,0,1-2.5-1c-.5-.3-.9-.7-1.4-.7-.3,0-.5-.1-.8-.1s-.8.1-1.1.1-.3.1-.4.1-.2,0-.3-.2-.1-.3-.1-.4c-.1-.4-.1-.6-.3-.6-1.8-.3-2.3-.6-2.4-.9V21a.22.22,0,0,1,.2-.2c2.7-.4,3.9-3.2,4-3.3h0a1,1,0,0,0,.1-.9c-.2-.4-.8-.6-1.2-.8-.1,0-.2-.1-.3-.1-.8-.3-.9-.6-.8-.8a.75.75,0,0,1,.7-.5h.2a2.24,2.24,0,0,0,1,.3.88.88,0,0,0,.6-.2v-.6a9.32,9.32,0,0,1,.2-3.8,4.87,4.87,0,0,1,4.5-2.9h.3a4.79,4.79,0,0,1,4.5,2.9,9.32,9.32,0,0,1,.2,3.8v.6a.77.77,0,0,0,.5.2h0a1.61,1.61,0,0,0,.9-.3c.1,0,.2-.1.3-.1a.37.37,0,0,1,.3.1h0a.82.82,0,0,1,.5.5c0,.2-.1.5-.8.7-.1,0-.2.1-.3.1a1.64,1.64,0,0,0-1.2.8,1.83,1.83,0,0,0,.2.9h0a5.72,5.72,0,0,0,4,3.3.22.22,0,0,1,.2.2V21c-.1.3-.6.6-2.4.9q-.15,0-.3.6c0,.1-.1.3-.1.4s-.1.2-.3.2h-.4a3.75,3.75,0,0,0-1.1-.1,2.49,2.49,0,0,0-.8.1,3.69,3.69,0,0,0-1.4.7A4,4,0,0,1,16.1,24.8Z" transform="translate(-6.1 -6.7)"/></g></svg>