<svg 
 xmlns="http://www.w3.org/2000/svg"
 xmlns:xlink="http://www.w3.org/1999/xlink"
 width="330px" height="240px">
<path fill-rule="evenodd"  fill="rgb(238, 238, 238)"
 d="M309.669,223.671 C293.055,230.408 276.026,229.965 258.881,226.484 C241.451,222.947 225.307,216.223 211.885,204.529 C206.167,199.548 202.078,192.730 197.227,186.758 C196.313,185.634 195.492,184.328 194.330,183.522 C190.547,180.903 186.485,178.658 182.789,175.924 C180.209,174.016 178.170,174.316 176.042,176.302 C168.512,180.699 162.954,177.541 159.942,180.400 C166.690,183.209 177.763,190.203 182.288,193.539 C189.444,198.796 195.741,204.886 199.481,213.151 C204.202,223.566 199.918,233.743 189.164,237.746 C182.208,240.325 175.075,240.395 167.901,239.309 C147.011,236.174 128.584,227.988 114.137,212.316 C111.165,209.105 108.756,205.109 107.018,201.088 C102.636,190.886 108.054,180.733 119.199,177.383 C120.468,177.009 139.602,176.633 140.110,176.502 C138.007,168.977 119.949,167.791 117.325,154.526 C116.951,153.359 113.185,152.121 111.745,152.116 C108.993,152.107 104.477,152.102 103.762,153.564 C96.324,168.863 82.739,169.819 69.166,167.086 C40.017,161.212 17.077,145.892 3.215,118.997 C-0.139,112.483 -1.035,105.385 1.390,98.226 C4.637,88.637 12.008,84.217 21.591,82.909 C33.222,81.323 44.301,83.885 54.828,88.470 C74.988,97.239 91.395,110.321 101.665,130.147 C102.280,131.330 103.778,133.811 105.033,134.353 C108.042,135.654 113.572,137.639 116.760,138.314 C118.299,138.639 119.957,137.163 122.076,136.251 C126.041,134.544 127.012,134.573 129.453,134.465 C131.068,134.394 137.009,135.241 138.381,134.393 C137.185,132.502 131.240,122.164 129.524,121.112 C123.939,117.693 117.791,115.175 112.238,111.707 C96.004,101.560 83.524,88.008 75.943,70.358 C62.558,39.189 80.472,7.710 114.944,2.128 C138.292,-1.654 159.807,3.994 179.818,15.942 C194.048,24.436 205.812,35.506 214.078,49.889 C222.679,64.855 226.176,80.769 219.779,97.366 C212.318,116.725 196.241,124.926 176.735,127.791 C172.033,128.481 167.176,128.124 162.408,128.489 C161.155,128.584 159.241,128.297 158.101,128.540 C158.787,129.716 160.384,136.893 161.415,137.412 C171.138,142.351 178.218,145.411 183.686,155.002 C184.964,157.242 189.696,157.525 192.825,158.729 C196.322,160.073 198.803,159.193 201.400,156.283 C208.455,148.380 217.899,144.748 228.143,142.942 C245.362,139.903 262.139,141.984 278.600,147.346 C293.322,152.139 306.753,159.209 317.444,170.491 C321.173,174.422 324.400,179.089 326.840,183.921 C335.449,201.024 325.426,217.284 309.669,223.671 ZM91.482,153.141 C90.989,152.497 88.973,152.473 87.910,152.877 C81.714,155.219 75.779,154.925 69.744,152.165 C66.860,150.844 63.631,150.241 59.368,148.952 L50.538,146.303 C49.641,146.576 49.208,146.678 48.797,146.828 C44.807,148.310 39.616,146.662 37.894,143.364 C36.512,140.710 38.442,134.295 41.302,132.070 C44.192,129.817 47.410,130.637 51.108,134.202 C52.767,135.810 54.650,137.532 56.762,138.270 C61.918,140.076 67.222,141.469 72.426,143.127 C65.105,132.306 46.868,121.406 33.490,121.025 C32.201,120.984 30.765,121.426 29.582,121.988 C25.913,123.734 24.699,127.504 25.848,131.932 C26.955,136.241 29.511,139.418 32.290,142.336 C35.864,146.074 39.958,148.854 44.353,151.047 L42.835,150.427 C42.359,150.199 41.890,149.960 41.421,149.719 L39.899,149.097 C33.702,146.129 27.929,142.275 22.929,137.036 C19.245,133.175 15.857,128.971 14.387,123.269 C12.872,117.416 15.488,112.338 19.243,109.859 C20.694,108.907 20.910,108.873 22.552,108.354 C30.735,105.784 44.254,110.899 51.252,114.472 C69.836,123.932 79.213,139.684 79.213,139.684 C69.652,125.290 45.338,110.712 27.545,110.205 C25.840,110.155 23.801,110.566 22.234,111.309 C17.383,113.613 15.915,118.773 17.432,124.628 C18.902,130.334 22.280,134.538 25.962,138.392 C29.791,142.399 34.071,145.564 38.643,148.165 C35.541,146.298 32.629,144.060 30.001,141.307 C27.219,138.390 24.659,135.213 23.544,130.900 C22.402,126.475 23.992,122.769 27.151,120.832 C28.269,120.144 28.515,120.051 29.753,119.662 C35.944,117.720 46.127,121.552 51.415,124.251 C64.479,130.901 71.524,141.654 72.452,143.136 C74.061,143.649 75.661,144.186 77.243,144.771 C81.646,146.399 85.312,145.256 89.170,143.716 C86.653,132.563 61.663,112.755 49.417,107.814 C49.417,107.814 39.385,103.409 35.782,102.397 C29.381,100.598 22.435,100.411 15.890,101.014 C8.620,101.681 5.266,107.835 7.504,114.816 C8.756,118.720 10.485,122.629 12.760,126.039 C20.339,137.400 30.904,145.666 42.552,152.558 C46.895,155.130 51.681,156.982 56.270,159.163 L65.154,161.956 C71.868,163.752 78.714,164.897 85.344,162.204 C87.735,161.228 89.671,158.847 91.419,156.783 C92.071,156.010 92.090,153.935 91.482,153.141 ZM181.322,121.957 C196.015,118.149 205.272,106.565 204.272,91.573 C203.843,85.078 202.166,78.205 199.241,72.410 C188.056,50.239 169.211,36.694 146.068,28.658 C135.035,24.828 123.595,23.461 112.005,25.521 C87.916,29.802 77.340,48.953 86.998,72.227 C93.434,87.724 104.646,99.285 118.481,108.438 C123.575,111.809 129.145,114.476 134.498,117.466 C135.154,117.674 135.623,118.397 135.993,118.030 C135.122,113.566 133.933,107.415 132.950,102.976 C132.672,101.730 132.164,99.952 131.237,99.517 C122.906,95.591 121.685,90.435 125.151,83.121 C125.200,83.022 125.973,81.893 125.916,81.706 L129.528,74.971 C132.262,71.897 137.913,73.007 141.335,75.312 C146.220,78.603 148.229,80.743 146.433,85.430 C144.079,91.612 143.138,90.248 141.018,96.510 C140.446,98.215 140.678,100.311 140.963,102.159 C141.881,107.986 142.994,113.784 144.094,119.923 C155.795,124.331 169.115,125.125 181.322,121.957 ZM154.979,197.663 C153.823,197.134 153.177,196.944 151.325,196.021 L149.668,195.030 C149.348,198.358 148.927,203.123 148.887,204.498 C148.811,207.276 150.736,207.128 151.763,207.638 C153.494,208.499 153.960,209.406 154.766,212.523 C155.212,214.256 155.758,217.421 154.832,217.959 C153.396,218.794 152.017,219.395 150.363,219.606 C150.109,219.639 149.799,219.634 149.468,219.612 C151.842,220.235 154.284,220.643 156.774,220.872 C159.995,221.167 163.006,220.945 165.603,220.021 C167.241,219.443 168.383,218.635 169.055,217.688 C168.872,219.419 167.503,220.878 164.933,221.792 C162.342,222.712 159.334,222.931 156.111,222.639 C149.368,222.024 142.970,220.101 137.361,216.093 C135.898,215.041 134.609,213.722 133.666,212.429 C132.217,210.417 132.101,208.514 133.141,207.056 C133.040,208.158 133.411,209.382 134.336,210.659 C134.990,211.571 135.827,212.486 136.769,213.316 C136.384,212.413 136.299,211.327 136.441,210.681 C136.705,209.487 138.571,206.272 138.571,206.272 L141.643,199.912 L142.818,193.089 C138.234,192.672 133.990,192.172 129.792,192.100 C122.367,191.983 119.095,193.262 117.598,196.557 C116.310,199.389 117.319,204.738 117.319,204.738 C120.589,214.650 127.668,220.563 136.312,225.687 C139.913,227.822 154.534,233.444 154.534,233.444 C159.025,234.539 163.545,236.014 168.110,236.231 C173.544,236.501 179.189,236.263 184.469,235.028 C189.671,233.812 191.088,229.222 188.712,224.433 C187.987,222.977 187.101,221.572 186.109,220.283 C177.976,209.712 166.927,203.065 154.979,197.663 ZM313.028,195.439 C311.582,192.869 309.763,190.441 307.792,188.243 C299.567,179.093 288.561,174.318 277.429,169.890 L265.047,166.367 C250.869,163.038 236.647,161.941 222.567,166.556 C218.525,167.887 214.768,170.189 211.083,172.377 C210.123,172.945 209.117,175.546 209.480,175.917 C214.437,180.956 219.025,186.722 224.928,190.379 C231.152,194.229 238.626,196.174 245.677,198.594 C247.284,199.149 249.417,198.337 251.275,197.995 C253.357,197.613 255.579,196.269 257.436,196.693 C262.634,197.878 264.392,202.070 262.527,207.432 C260.456,213.414 258.407,214.539 252.475,212.088 L240.725,206.784 C234.723,204.529 228.621,202.473 222.801,199.807 C217.897,197.560 213.341,194.565 208.220,191.678 C208.576,192.589 208.708,193.289 209.082,193.840 C216.695,205.105 228.256,210.895 240.378,215.864 L241.054,216.145 L249.943,219.186 C261.093,222.365 272.464,224.017 284.065,223.217 C292.612,222.628 301.064,221.302 308.292,216.163 C315.720,210.879 317.484,203.373 313.028,195.439 ZM295.866,213.655 C289.401,217.760 282.452,218.763 275.535,219.192 C266.141,219.760 257.253,218.346 248.751,215.717 L246.788,214.983 C246.120,214.799 245.454,214.611 244.792,214.406 L242.805,213.667 C248.908,215.441 255.253,216.395 261.962,215.995 C267.187,215.674 272.435,214.909 277.320,211.807 C282.342,208.622 284.431,203.944 282.517,199.080 C281.897,197.510 281.053,195.883 279.804,194.791 C266.734,183.361 239.537,177.673 223.013,181.624 C223.013,181.624 240.323,176.579 259.979,182.133 C267.384,184.215 280.208,189.303 284.328,196.563 C285.156,198.020 285.519,198.534 285.969,200.165 C287.230,204.766 285.436,209.666 280.414,212.846 C275.522,215.951 270.274,216.710 265.044,217.031 C260.121,217.329 255.383,216.895 250.797,215.946 C257.428,217.489 264.282,218.245 271.460,217.812 C278.373,217.394 285.311,216.383 291.779,212.275 C298.421,208.065 301.182,201.993 298.646,195.561 C297.823,193.486 296.714,191.216 295.054,189.772 C277.777,174.654 241.805,167.126 219.947,172.357 C219.947,172.357 242.840,165.683 268.841,173.026 C278.634,175.782 295.842,182.458 301.293,192.061 C302.385,193.988 302.690,194.549 303.211,196.721 C304.561,202.357 302.511,209.447 295.866,213.655 ZM180.540,224.900 C180.023,227.575 177.690,229.705 173.589,230.875 C169.423,232.075 164.717,232.143 159.751,231.377 C149.347,229.809 139.674,226.250 131.507,219.532 C129.368,217.775 127.546,215.612 126.267,213.517 C124.272,210.264 124.370,207.316 126.175,205.146 C125.859,206.847 126.284,208.788 127.539,210.844 C128.816,212.937 130.650,215.101 132.783,216.863 C140.932,223.570 150.615,227.133 161.026,228.714 C165.989,229.464 170.690,229.396 174.857,228.206 C177.477,227.453 179.371,226.317 180.540,224.900 ZM153.498,83.486 C148.911,76.198 141.964,72.134 133.718,70.112 C129.784,69.145 125.794,69.042 121.868,70.128 C119.401,70.811 117.415,71.926 115.945,73.349 C117.297,70.594 119.989,68.465 123.862,67.396 C127.786,66.309 131.781,66.413 135.709,67.378 C143.956,69.399 150.903,73.463 155.487,80.752 C156.691,82.655 157.494,84.972 157.857,87.196 C158.415,90.647 157.329,93.713 155.059,95.895 C155.906,94.149 156.216,92.114 155.867,89.932 C155.497,87.705 154.697,85.389 153.498,83.486 ZM112.519,48.430 C107.780,49.499 104.024,51.470 101.306,54.110 C103.634,48.837 108.669,44.948 116.106,43.271 C123.661,41.569 131.473,42.214 139.262,44.538 C155.597,49.428 169.621,58.181 179.395,73.016 C181.945,76.894 183.771,81.536 184.731,85.956 C186.220,92.801 184.433,98.708 180.245,102.754 C181.706,99.410 182.084,95.444 181.149,91.114 C180.186,86.694 178.363,82.054 175.803,78.173 C166.034,63.337 152.012,54.580 135.674,49.696 C127.883,47.365 120.073,46.726 112.519,48.430 Z"/>
</svg>