<svg id="Layer_1" data-name="Layer 1" xmlns="http://www.w3.org/2000/svg" viewBox="0 0 59.98 60"><defs><style>.cls-1,.cls-5{fill:none;}.cls-1,.cls-4,.cls-5{stroke:#fff;stroke-linecap:round;stroke-width:2px;}.cls-2{fill:#fff;}.cls-3{fill:#none;}.cls-4{fill:#666;opacity:0.3}</style></defs><title>money</title><g id="Page-1"><g id="_1493943425_52_-Time_is_Money-_business_finance_marketing" data-name="1493943425_52_-Time_is_Money-_business_finance_marketing"><path id="Stroke-954" class="cls-1" d="M10,9A29,29,0,0,1,59,30" transform="translate(-0.02 -0.01)"/><polyline id="Stroke-955" class="cls-1" points="17.98 9 9.98 9 9.98 1"/><path id="Fill-956" class="cls-2" d="M0,31.17a1,1,0,1,1,1,1H1a1,1,0,0,1-1-1ZM58.74,34A1,1,0,1,1,59,32a1,1,0,0,1-.1,2ZM.3,34.25h0a1,1,0,0,1,.85-1.13A1,1,0,0,1,2.28,34a1,1,0,0,1-.85,1.13H1.29a1,1,0,0,1-1-.86Zm57.88,2.69a1,1,0,1,1,.21,0,.76.76,0,0,1-.21,0ZM.9,37.3a1,1,0,0,1,.72-1.21,1,1,0,0,1,1.22.72A1,1,0,0,1,2.11,38a1.07,1.07,0,0,1-.25,0,1,1,0,0,1-1-.76Zm56.41,2.52a1,1,0,0,1-.64-1.26,1,1,0,0,1,1.25-.65,1,1,0,0,1-.3,1.95,1.1,1.1,0,0,1-.31,0ZM1.8,40.26a1,1,0,1,1,1.29.6,1.07,1.07,0,0,1-.35.06,1,1,0,0,1-.94-.66Zm54.35,2.32A1,1,0,0,1,57,40.75a1,1,0,0,1-.41,1.92,1,1,0,0,1-.4-.09ZM3,43.12a1,1,0,1,1,1.34.46,1,1,0,0,1-.44.1,1,1,0,0,1-.9-.56Zm51.69,2.09a1,1,0,0,1-.37-1.36,1,1,0,1,1,.86,1.49,1,1,0,0,1-.49-.13Zm-50.19.62a1,1,0,1,1,1.38.32,1,1,0,0,1-.53.15,1,1,0,0,1-.85-.47ZM53,47.68a1,1,0,1,1,1.4-.23,1,1,0,0,1-.82.42,1,1,0,0,1-.58-.19Zm-46.71.7A1,1,0,0,1,6.47,47,1,1,0,0,1,7.7,48.55a1,1,0,0,1-.62.21,1,1,0,0,1-.79-.38ZM51.05,50A1,1,0,0,1,51,48.55h0a1,1,0,0,1,1.42-.09,1,1,0,0,1,.08,1.41,1,1,0,0,1-.75.34,1,1,0,0,1-.66-.25Zm-42.73.76h0a1,1,0,0,1,1.44-1.38A1,1,0,0,1,9,51a1,1,0,0,1-.72-.31ZM48.88,52a1,1,0,1,1,1.41.06,1,1,0,0,1-.67.26,1,1,0,0,1-.74-.32Zm-38.31.82a1,1,0,1,1,.65.24,1,1,0,0,1-.65-.24Zm35.94,1a1,1,0,1,1,1.4.21,1,1,0,0,1-.6.2,1,1,0,0,1-.8-.41ZM13,54.74a1,1,0,1,1,.57.18,1,1,0,0,1-.57-.18ZM44,55.45a1,1,0,1,1,1.71-1,1,1,0,0,1-.34,1.37,1,1,0,0,1-.51.14,1,1,0,0,1-.86-.48Zm-28.29.91A1,1,0,1,1,17,56a1,1,0,0,1-.88.52,1,1,0,0,1-.48-.13Zm25.59.39a1,1,0,0,1,1.81-.84,1,1,0,0,1-.48,1.33,1.06,1.06,0,0,1-.42.09,1,1,0,0,1-.91-.58Zm-22.79,1a1,1,0,1,1,.38.07,1.06,1.06,0,0,1-.38-.07Zm20,.07a1,1,0,1,1,1.27.62.92.92,0,0,1-.33.05,1,1,0,0,1-.94-.67Zm-17.05,1a1,1,0,0,1-.67-1.24A1,1,0,0,1,22,56.84a1,1,0,0,1,.67,1.24,1,1,0,0,1-1.25.67Zm14.14-.25A1,1,0,1,1,37.48,58a1,1,0,0,1-.75,1.2.91.91,0,0,1-.23,0,1,1,0,0,1-1-.78Zm-11.12,1h0a1,1,0,1,1,1.17-.8,1,1,0,0,1-1,.81Zm8.15-.57a1,1,0,0,1,.87-1.12,1,1,0,0,1,1.11.87,1,1,0,0,1-.87,1.12h-.12a1,1,0,0,1-1-.87Zm-5.08,1a1,1,0,1,1,.08,0ZM29.56,59a1,1,0,0,1,1-1h0a1,1,0,1,1,0,2h0a1,1,0,0,1-1-1Z" transform="translate(-0.02 -0.01)"/><path id="Fill-957" class="cls-3" d="M49,30A19,19,0,1,1,30,11,19,19,0,0,1,49,30" transform="translate(-0.02 -0.01)"/><path id="Stroke-958" class="cls-4" d="M49,30A19,19,0,1,1,30,11,19,19,0,0,1,49,30Z" transform="translate(-0.02 -0.01)"/><path id="Stroke-959" class="cls-5" d="M26,34a4,4,0,1,0,4-4,4,4,0,1,1,4-4" transform="translate(-0.02 -0.01)"/><path id="Stroke-960" class="cls-5" d="M30,20V40" transform="translate(-0.02 -0.01)"/></g></g></svg>