<svg id="Layer_1" data-name="Layer 1" xmlns="http://www.w3.org/2000/svg" viewBox="0 0 59.35 40"><defs><style>.cls-1{fill:#fff;}.cls-2{fill:none;stroke-linecap:round;stroke-linejoin:round;stroke-width:2px;}.cls-2,.cls-3{stroke:#1c81e3;}.cls-3{fill:#1c81e3;stroke-miterlimit:10;}.cls-4{fill:#d0e8f9;}</style></defs><title>48</title><g id="Page-1"><g id="Delivery-2---Webby"><g id="_11--Fast-Delivery--_shipping_-transport_-delivery_" data-name="11--Fast-Delivery--(shipping,-transport,-delivery)"><path id="Fill-130" class="cls-1" d="M53,34a5,5,0,1,0-5,5,5,5,0,0,0,5-5" transform="translate(-0.65)"/><path id="Stroke-131" class="cls-2" d="M53,34a5,5,0,1,0-5,5,5,5,0,0,0,5-5Z" transform="translate(-0.65)"/><path id="Fill-132" class="cls-1" d="M58.37,23.75,54,22,51.38,11.51A2,2,0,0,0,49.44,10h-6.7C40.82,15.31,37.49,21,32,21H5.37L2.93,34h6a5,5,0,0,1,10,0H43a5,5,0,0,1,10,0h5a1,1,0,0,0,1-1V24.68a1,1,0,0,0-.63-.93" transform="translate(-0.65)"/><path id="Stroke-133" class="cls-2" d="M58.37,23.75,54,22,51.38,11.51A2,2,0,0,0,49.44,10h-6.7C40.82,15.31,37.49,21,32,21H5.37L2.93,34h6a5,5,0,0,1,10,0H43a5,5,0,0,1,10,0h5a1,1,0,0,0,1-1V24.68a1,1,0,0,0-.63-.93Z" transform="translate(-0.65)"/><path id="Fill-209" class="cls-1" d="M18.93,34a5,5,0,1,0-5,5,5,5,0,0,0,5-5" transform="translate(-0.65)"/><path id="Stroke-210" class="cls-2" d="M18.93,34a5,5,0,1,0-5,5,5,5,0,0,0,5-5Z" transform="translate(-0.65)"/><path id="Fill-211" class="cls-3" d="M13.93,36a2,2,0,1,1,2-2,2,2,0,0,1-2,2" transform="translate(-0.65)"/><path id="Fill-212" class="cls-3" d="M48,36a2,2,0,1,1,2-2,2,2,0,0,1-2,2" transform="translate(-0.65)"/><path id="Stroke-213" class="cls-2" d="M46,15v4.73A2.27,2.27,0,0,0,48.27,22H54" transform="translate(-0.65)"/><path id="Stroke-214" class="cls-2" d="M43,26h2" transform="translate(-0.65)"/><path id="Fill-215" class="cls-4" d="M32,21H5.37L8.93,1H45S42.29,21,32,21" transform="translate(-0.65)"/><path id="Stroke-216" class="cls-2" d="M32,21H5.37L8.93,1H45S42.29,21,32,21Z" transform="translate(-0.65)"/><path id="Stroke-250" class="cls-2" d="M3.78,5H20.22" transform="translate(-0.65)"/><path id="Stroke-251" class="cls-2" d="M3.07,9H19.51" transform="translate(-0.65)"/><path id="Stroke-252" class="cls-2" d="M2.36,13H18.8" transform="translate(-0.65)"/><path id="Stroke-253" class="cls-2" d="M1.65,17H18.08" transform="translate(-0.65)"/></g></g></g></svg>