<svg id="Layer_1" data-name="Layer 1" xmlns="http://www.w3.org/2000/svg" viewBox="0 0 60 57"><defs><style>.cls-1{fill:#fff;}.cls-2,.cls-3,.cls-5,.cls-6{fill:none;stroke-width:2px;}.cls-2{stroke:#1c81e3;}.cls-2,.cls-3,.cls-5{stroke-linecap:round;}.cls-2,.cls-3{stroke-linejoin:round;}.cls-3{stroke:#0f81e0;}.cls-4{fill:#c6e3f8;}.cls-5,.cls-6{stroke:#1081e0;}</style></defs><title>drone</title><g id="Page-1"><g id="Transport---Webby"><g id="_69--Video-Drone--_transport_-vehicle_-car_-travel_-auto_" data-name="69--Video-Drone--(transport,-vehicle,-car,-travel,-auto)"><path id="Fill-1787" class="cls-1" d="M39.91,36H20.09A1.09,1.09,0,0,1,19,34.91V23.09A1.09,1.09,0,0,1,20.09,22H39.91A1.09,1.09,0,0,1,41,23.09V34.91A1.09,1.09,0,0,1,39.91,36"/><path id="Stroke-1788" class="cls-2" d="M39.91,36H20.09A1.09,1.09,0,0,1,19,34.91V23.09A1.09,1.09,0,0,1,20.09,22H39.91A1.09,1.09,0,0,1,41,23.09V34.91A1.09,1.09,0,0,1,39.91,36Z"/><path id="Fill-1789" class="cls-1" d="M19,33l-8-7V20l8,6Z"/><path id="Stroke-1790" class="cls-3" d="M19,33l-8-7V20l8,6v7Z"/><path id="Fill-1791" class="cls-4" d="M9,34H9a2,2,0,0,1-2-2V16a2,2,0,0,1,4,0V32a2,2,0,0,1-2,2"/><path id="Stroke-1792" class="cls-2" d="M9,34H9a2,2,0,0,1-2-2V16a2,2,0,0,1,4,0V32a2,2,0,0,1-2,2Z"/><path id="Fill-1793" class="cls-4" d="M9.72,9H8.28A1.28,1.28,0,0,1,7,7.72V2.28A1.28,1.28,0,0,1,8.28,1H9.72A1.28,1.28,0,0,1,11,2.28V7.72A1.28,1.28,0,0,1,9.72,9"/><path id="Stroke-1794" class="cls-2" d="M9.72,9H8.28A1.28,1.28,0,0,1,7,7.72V2.28A1.28,1.28,0,0,1,8.28,1H9.72A1.28,1.28,0,0,1,11,2.28V7.72A1.28,1.28,0,0,1,9.72,9Z"/><path id="Stroke-1795" class="cls-5" d="M1,5H17"/><path id="Stroke-1796" class="cls-6" d="M9,9v5"/><path id="Fill-1797" class="cls-4" d="M12.69,56H11.31A1.31,1.31,0,0,1,10,54.69V51h4v3.69A1.31,1.31,0,0,1,12.69,56"/><path id="Stroke-1798" class="cls-3" d="M12.69,56H11.31A1.31,1.31,0,0,1,10,54.69V51h4v3.69A1.31,1.31,0,0,1,12.69,56Z"/><path id="Fill-1799" class="cls-1" d="M19,35V33c-3.32,0-9,9.71-9,18h4c0-8.29,6.68-15,10-15H20a.94.94,0,0,1-1-1"/><path id="Stroke-1800" class="cls-2" d="M19,35V33c-3.32,0-9,9.71-9,18h4c0-8.29,6.68-15,10-15H20a.94.94,0,0,1-1-1Z"/><path id="Stroke-1801" class="cls-6" d="M27,40h6V36H27Z"/><path id="Fill-1802" class="cls-4" d="M36.24,54H23.77a.76.76,0,0,1-.77-.76V40.76a.76.76,0,0,1,.77-.76H36.24a.76.76,0,0,1,.76.76V53.24a.76.76,0,0,1-.76.76"/><path id="Stroke-1803" class="cls-2" d="M36.24,54H23.77a.76.76,0,0,1-.77-.76V40.76a.76.76,0,0,1,.77-.76H36.24a.76.76,0,0,1,.76.76V53.24a.76.76,0,0,1-.76.76Z"/><path id="Stroke-1804" class="cls-5" d="M32,22V16"/><path id="Stroke-1805" class="cls-5" d="M28,22V18"/><path id="Fill-1806" class="cls-1" d="M33,47a3,3,0,1,1-3-3,3,3,0,0,1,3,3"/><path id="Stroke-1807" class="cls-2" d="M33,47a3,3,0,1,1-3-3,3,3,0,0,1,3,3Z"/><path id="Stroke-1808" class="cls-5" d="M26,27h8"/><path id="Stroke-1809" class="cls-5" d="M23,31H37"/><path id="Fill-1810" class="cls-1" d="M41,33l8-7V20l-8,6Z"/><path id="Stroke-1811" class="cls-3" d="M41,33l8-7V20l-8,6v7Z"/><path id="Fill-1812" class="cls-4" d="M51,34h0a2,2,0,0,0,2-2V16a2,2,0,0,0-4,0V32a2,2,0,0,0,2,2"/><path id="Stroke-1813" class="cls-2" d="M51,34h0a2,2,0,0,0,2-2V16a2,2,0,0,0-4,0V32a2,2,0,0,0,2,2Z"/><path id="Fill-1814" class="cls-4" d="M50.28,9h1.44A1.28,1.28,0,0,0,53,7.72V2.28A1.28,1.28,0,0,0,51.72,1H50.28A1.28,1.28,0,0,0,49,2.28V7.72A1.28,1.28,0,0,0,50.28,9"/><path id="Stroke-1815" class="cls-2" d="M50.28,9h1.44A1.28,1.28,0,0,0,53,7.72V2.28A1.28,1.28,0,0,0,51.72,1H50.28A1.28,1.28,0,0,0,49,2.28V7.72A1.28,1.28,0,0,0,50.28,9Z"/><path id="Stroke-1816" class="cls-5" d="M59,5H43"/><path id="Stroke-1817" class="cls-6" d="M51,9v5"/><path id="Fill-1818" class="cls-4" d="M47.31,56h1.38A1.31,1.31,0,0,0,50,54.69V51H46v3.69A1.31,1.31,0,0,0,47.31,56"/><path id="Stroke-1819" class="cls-3" d="M47.31,56h1.38A1.31,1.31,0,0,0,50,54.69V51H46v3.69A1.31,1.31,0,0,0,47.31,56Z"/><path id="Fill-1820" class="cls-1" d="M41,35V33c3.32,0,9,9.71,9,18H46c0-8.29-6.68-15-10-15h4a.94.94,0,0,0,1-1"/><path id="Stroke-1821" class="cls-2" d="M41,35V33c3.32,0,9,9.71,9,18H46c0-8.29-6.68-15-10-15h4a.94.94,0,0,0,1-1Z"/></g></g></g></svg>