<svg id="Layer_1" data-name="Layer 1" xmlns="http://www.w3.org/2000/svg" viewBox="0 0 58 46"><defs><style>.cls-1{fill:#fff;}.cls-2{fill:none;stroke:#1c81e3;stroke-linecap:round;stroke-linejoin:round;stroke-width:2px;}.cls-3{fill:#c6e3f8;}</style></defs><title>videos</title><g id="Page-1"><g id="Icons"><g id="Video"><polygon id="Fill-214" class="cls-1" points="1 1 57 1 57 45 1 45 1 1"/><polygon id="Stroke-215" class="cls-2" points="1 1 57 1 57 45 1 45 1 1"/><polygon id="Fill-216" class="cls-3" points="25 30 25 16 36 23 25 30"/><polygon id="Stroke-217" class="cls-2" points="25 30 25 16 36 23 25 30"/><polygon id="Fill-220" class="cls-3" points="1 1 11 1 11 12 1 12 1 1"/><polygon id="Stroke-221" class="cls-2" points="1 1 11 1 11 12 1 12 1 1"/><polygon id="Fill-222" class="cls-3" points="1 12 11 12 11 23 1 23 1 12"/><polygon id="Stroke-223" class="cls-2" points="1 12 11 12 11 23 1 23 1 12"/><polygon id="Fill-224" class="cls-3" points="1 23 11 23 11 34 1 34 1 23"/><polygon id="Stroke-225" class="cls-2" points="1 23 11 23 11 34 1 34 1 23"/><polygon id="Fill-226" class="cls-3" points="1 34 11 34 11 45 1 45 1 34"/><polygon id="Stroke-227" class="cls-2" points="1 34 11 34 11 45 1 45 1 34"/><polygon id="Fill-228" class="cls-3" points="47 1 57 1 57 12 47 12 47 1"/><polygon id="Stroke-229" class="cls-2" points="47 1 57 1 57 12 47 12 47 1"/><polygon id="Fill-230" class="cls-3" points="47 12 57 12 57 23 47 23 47 12"/><polygon id="Stroke-231" class="cls-2" points="47 12 57 12 57 23 47 23 47 12"/><polygon id="Fill-232" class="cls-3" points="47 23 57 23 57 34 47 34 47 23"/><polygon id="Stroke-233" class="cls-2" points="47 23 57 23 57 34 47 34 47 23"/><polygon id="Fill-234" class="cls-3" points="47 34 57 34 57 45 47 45 47 34"/><polygon id="Stroke-235" class="cls-2" points="47 34 57 34 57 45 47 45 47 34"/></g></g></g></svg>