<?xml version="1.0" encoding="UTF-8"?>
<svg width="60px" height="60px" viewBox="0 0 60 60" version="1.1" xmlns="http://www.w3.org/2000/svg" xmlns:xlink="http://www.w3.org/1999/xlink">
    <!-- Generator: Sketch 50.2 (55047) - http://www.bohemiancoding.com/sketch -->
    <title>listings</title>
    <desc>Created with Sketch.</desc>
    <defs></defs>
    <g id="Welcome" stroke="none" stroke-width="1" fill="none" fill-rule="evenodd">
        <g id="Desktop-HD" transform="translate(-335.000000, -808.000000)">
            <g id="listings" transform="translate(336.000000, 809.000000)">
                <polygon id="Fill-619" fill="#FFFFFF" fill-rule="nonzero" points="8 54 50 54 50 0 8 0"></polygon>
                <polygon id="Stroke-620" stroke="#0C93D1" stroke-width="2" stroke-linecap="round" stroke-linejoin="round" points="8 54 50 54 50 0 8 0"></polygon>
                <polygon id="Fill-633" fill="#D0E8F9" fill-rule="nonzero" points="28.98 10 18 21 21 24 28.98 16 29 16.02 29.02 16 37 24 40 21"></polygon>
                <polygon id="Stroke-634" stroke="#0C93D1" stroke-width="2" stroke-linecap="round" stroke-linejoin="round" points="28.98 10 18 21 21 24 28.98 16 29 16.02 29.02 16 37 24 40 21"></polygon>
                <polygon id="Fill-635" stroke="#979797" fill="#D0E8F9" fill-rule="nonzero" points="28.99 16 23 22 23 30 35 30 35 22"></polygon>
                <polygon id="Stroke-636" stroke="#0C93D1" stroke-width="2" stroke-linecap="round" stroke-linejoin="round" points="28.99 16 23 22 23 30 35 30 35 22"></polygon>
                <polygon id="Fill-641" fill="#D0E8F9" fill-rule="nonzero" points="56 58 2 58 0 54 58 54"></polygon>
                <polygon id="Stroke-642" stroke="#0C93D1" stroke-width="2" stroke-linecap="round" stroke-linejoin="round" points="56 58 2 58 0 54 58 54"></polygon>
                <path d="M5,15 C3.8954305,15 3,15.8954305 3,17 L3,54 L8,54 L8,15 L5,15 Z" id="Fill-643" fill="#D0E8F9" fill-rule="nonzero"></path>
                <path d="M5,15 C3.8954305,15 3,15.8954305 3,17 L3,54 L8,54 L8,15 L5,15 Z" id="Stroke-644" stroke="#0C93D1" stroke-width="2" stroke-linecap="round" stroke-linejoin="round"></path>
                <path d="M53,15 L50,15 L50,54 L55,54 L55,17 C55,15.8954305 54.1045695,15 53,15" id="Fill-645" fill="#D0E8F9" fill-rule="nonzero"></path>
                <path d="M53,15 L50,15 L50,54 L55,54 L55,17 C55,15.8954305 54.1045695,15 53,15 Z" id="Stroke-646" stroke="#0C93D1" stroke-width="2" stroke-linecap="round" stroke-linejoin="round"></path>
                <polygon id="Fill-647" fill="#D0E8F9" fill-rule="nonzero" points="8 6 50 6 50 0 8 0"></polygon>
                <polygon id="Stroke-648" stroke="#0C93D1" stroke-width="2" stroke-linecap="round" stroke-linejoin="round" points="8 6 50 6 50 0 8 0"></polygon>
                <path d="M14,3 C14,2.44771525 13.5522847,2 13,2 C12.4477153,2 12,2.44771525 12,3 C12,3.55228475 12.4477153,4 13,4 C13.5522847,4 14,3.55228475 14,3" id="Fill-649" fill="#1C81E3" fill-rule="nonzero"></path>
                <path d="M18,3 C18,2.44771525 17.5522847,2 17,2 C16.4477153,2 16,2.44771525 16,3 C16,3.55228475 16.4477153,4 17,4 C17.5522847,4 18,3.55228475 18,3" id="Fill-650" fill="#1C81E3" fill-rule="nonzero"></path>
                <path d="M22,3 C22,2.44771525 21.5522847,2 21,2 C20.4477153,2 20,2.44771525 20,3 C20,3.55228475 20.4477153,4 21,4 C21.5522847,4 22,3.55228475 22,3" id="Fill-651" fill="#1C81E3" fill-rule="nonzero"></path>
                <polygon id="Fill-652" fill="#D0E8F9" fill-rule="nonzero" points="14 41 20 41 20 35 14 35"></polygon>
                <polygon id="Stroke-653" stroke="#0C93D1" stroke-width="2" stroke-linecap="round" stroke-linejoin="round" points="14 41 20 41 20 35 14 35"></polygon>
                <path d="M31,36 L44,36" id="Stroke-654" stroke="#0C93D1" stroke-width="2" stroke-linecap="round" stroke-linejoin="round"></path>
                <path d="M24,36 L27,36" id="Stroke-655" stroke="#0C93D1" stroke-width="2" stroke-linecap="round" stroke-linejoin="round"></path>
                <path d="M40,40 L44,40" id="Stroke-656" stroke="#0C93D1" stroke-width="2" stroke-linecap="round" stroke-linejoin="round"></path>
                <path d="M24,40 L36,40" id="Stroke-657" stroke="#0C93D1" stroke-width="2" stroke-linecap="round" stroke-linejoin="round"></path>
                <polygon id="Fill-658" fill="#D0E8F9" fill-rule="nonzero" points="14 51 20 51 20 45 14 45"></polygon>
                <polygon id="Stroke-659" stroke="#0C93D1" stroke-width="2" stroke-linecap="round" stroke-linejoin="round" points="14 51 20 51 20 45 14 45"></polygon>
                <g id="Group-662" transform="translate(31.000000, 46.000000)">
                    <path d="M0,0 L13,0" id="Fill-660" fill="#D0E8F9" fill-rule="nonzero"></path>
                    <path d="M0,0 L13,0" id="Stroke-661" stroke="#0C93D1" stroke-width="2" stroke-linecap="round" stroke-linejoin="round"></path>
                </g>
                <g id="Group-665" transform="translate(24.000000, 46.000000)">
                    <path d="M0,0 L3,0" id="Fill-663" fill="#D0E8F9" fill-rule="nonzero"></path>
                    <path d="M0,0 L3,0" id="Stroke-664" stroke="#0C93D1" stroke-width="2" stroke-linecap="round" stroke-linejoin="round"></path>
                </g>
                <g id="Group-668" transform="translate(40.000000, 50.000000)">
                    <path d="M0,0 L4,0" id="Fill-666" fill="#D0E8F9" fill-rule="nonzero"></path>
                    <path d="M0,0 L4,0" id="Stroke-667" stroke="#0C93D1" stroke-width="2" stroke-linecap="round" stroke-linejoin="round"></path>
                </g>
                <g id="Group-671" transform="translate(24.000000, 50.000000)">
                    <path d="M0,0 L12,0" id="Fill-669" fill="#D0E8F9" fill-rule="nonzero"></path>
                    <path d="M0,0 L12,0" id="Stroke-670" stroke="#0C93D1" stroke-width="2" stroke-linecap="round" stroke-linejoin="round"></path>
                </g>
            </g>
        </g>
    </g>
</svg>