<svg id="Layer_1" data-name="Layer 1" xmlns="http://www.w3.org/2000/svg" viewBox="0 0 59 60"><defs><style>.cls-1{fill:#fff;}.cls-2,.cls-4{fill:none;stroke:#1c81e3;stroke-linejoin:round;stroke-width:2px;}.cls-3{fill:#d0e8f9;}.cls-4{stroke-linecap:round;}</style></defs><title>pro</title><g id="Page-1"><g id="_24---Action-_Webby_" data-name="24---Action-(Webby)"><path id="Fill-15" class="cls-1" d="M4.37,19H4.5a3.49,3.49,0,0,1,3.38,2.65L56.1,8.73,54,1,1.87,15,3,19.27A3.48,3.48,0,0,1,4.37,19Z"/><path id="Stroke-16" class="cls-2" d="M4.37,19H4.5a3.49,3.49,0,0,1,3.38,2.65L56.1,8.73,54,1,1.87,15,3,19.27A3.48,3.48,0,0,1,4.37,19Z"/><path id="Fill-1516" class="cls-3" d="M8,22.5A3.5,3.5,0,1,1,4.5,19,3.5,3.5,0,0,1,8,22.5Z"/><path id="Stroke-1517" class="cls-2" d="M8,22.5A3.5,3.5,0,1,1,4.5,19,3.5,3.5,0,0,1,8,22.5Z"/><path id="Fill-1518" class="cls-1" d="M7.95,23A3.49,3.49,0,0,1,4.5,26,3.59,3.59,0,0,1,4,26v5H58V23Z"/><path id="Stroke-1519" class="cls-2" d="M7.95,23A3.49,3.49,0,0,1,4.5,26,3.59,3.59,0,0,1,4,26v5H58V23Z"/><path id="Fill-1520" class="cls-1" d="M4,31H58V59H4Z"/><path id="Stroke-1521" class="cls-2" d="M4,31H58V59H4Z"/><path id="Stroke-1522" class="cls-2" d="M28.1,16.23l-11.59,3.1-5.94-6.69L22.17,9.54l5.93,6.69ZM51.28,10,39.69,13.12,33.76,6.43,45.35,3.33,51.28,10ZM35,31H47l4-8H39l-4,8ZM11,31H23l4-8H15l-4,8Z"/><path id="Fill-1523" class="cls-3" d="M10,37H24v8H10Z"/><path id="Stroke-1524" class="cls-2" d="M10,37H24v8H10Z"/><path id="Fill-1525" class="cls-3" d="M24,37H38v8H24Z"/><path id="Stroke-1526" class="cls-2" d="M24,37H38v8H24Z"/><path id="Fill-1527" class="cls-3" d="M38,37H52v8H38Z"/><path id="Stroke-1528" class="cls-2" d="M38,37H52v8H38Z"/><path id="Path" class="cls-4" d="M10,51H52"/></g></g></svg>