<svg id="Ebene_1" data-name="Ebene 1" xmlns="http://www.w3.org/2000/svg" viewBox="0 0 18 18"><style>.cls-1{fill:#fff;stroke:#fff;stroke-width:0.5px;}.cls-2{fill:#fff;stroke:#fff;stroke-width:0.3px;}</style><title>scroll-down</title><path class="cls-1" d="M16,10.5a.5.5,0,0,1-.12.33l-3.5,4a.5.5,0,0,1-.75,0l-3.5-4a.5.5,0,0,1,.75-.66L12,13.74l3.12-3.57a.5.5,0,0,1,.88.33Z" transform="translate(-3 -3)"/><path class="cls-2" d="M4,12a8,8,0,1,1,8,8,8,8,0,0,1-8-8M3,12a9,9,0,1,0,9-9,9,9,0,0,0-9,9Z" transform="translate(-3 -3)"/></svg>
