<svg xmlns="http://www.w3.org/2000/svg" viewBox="0 0 96.58 29.44"><defs><style>.cls-1{fill:#0e4071;}</style></defs><title>Asset 1</title><g id="Layer_2" data-name="Layer 2"><g id="Layer_1-2" data-name="Layer 1"><path class="cls-1" d="M.62.79a77.56,77.56,0,0,0,19.14,13.5,77.56,77.56,0,0,0,39.43,8.12,76.93,76.93,0,0,0,32.06-9.15,9.86,9.86,0,0,0-1,1c-1.45,1.64-2.92,3.14-4.39,4.65S82.65,22,81,23.46c-1.15.92-2.25,1.76-3.32,2.73-.32-.36-1.09-.92-1.1-.58a10.51,10.51,0,0,1-.39,2c-.24.65,1.6,2.13,2.17,1.85a26.12,26.12,0,0,0,5-3.46c1.62-1.39,3.32-2.73,4.87-4.18s3.23-2.92,4.7-4.42c1.11-1.18,2.87-2.59,3.51-4.25.67-1.86-1.34-3.12-2.81-3.85-.36-.15-.72-.3-1-.39a2.2,2.2,0,0,0-1-.26,22.7,22.7,0,0,0-3.78-.32c-4.29-.11-8.63-.15-12.9-.12-.68,0,.56,1.48.71,1.59a4,4,0,0,0,2.43,1.33c2.82-.15,5.69,0,8.53,0,.13,0,.34,0,.47,0a76.28,76.28,0,0,1-14.38,5.86,75,75,0,0,1-36,1.61A76,76,0,0,1,1.34.62C1.19.5.41-.2.11.05S.2.72.62.79Z"/></g></g></svg>