<svg id="Layer_1" data-name="Layer 1" xmlns="http://www.w3.org/2000/svg" viewBox="0 0 60 60"><defs><style>.cls-1{fill:#fff;}.cls-2{fill:none;stroke:#1c81e3;stroke-linecap:round;stroke-linejoin:round;stroke-width:2px;}.cls-3{fill:#d0e8f9;}.cls-4{fill:#1c81e3;}</style></defs><title>listings</title><g id="Page-1"><g id="Real-Estate-2---Webby"><g id="_46--House-Webpage--_house_-home_-property_-real_-estate_" data-name="46--House-Webpage--(house,-home,-property,-real,-estate)"><polygon id="Fill-619" class="cls-1" points="9 55 51 55 51 1 9 1 9 55"/><polygon id="Stroke-620" class="cls-2" points="9 55 51 55 51 1 9 1 9 55"/><polygon id="Fill-633" class="cls-3" points="29.98 11 19 22 22 25 29.98 17 30 17.02 30.02 17 38 25 41 22 29.98 11"/><polygon id="Stroke-634" class="cls-2" points="29.98 11 19 22 22 25 29.98 17 30 17.02 30.02 17 38 25 41 22 29.98 11"/><polygon id="Fill-635" class="cls-3" points="29.99 17 24 23 24 31 36 31 36 23 29.99 17"/><polygon id="Stroke-636" class="cls-2" points="29.99 17 24 23 24 31 36 31 36 23 29.99 17"/><polygon id="Fill-641" class="cls-3" points="57 59 3 59 1 55 59 55 57 59"/><polygon id="Stroke-642" class="cls-2" points="57 59 3 59 1 55 59 55 57 59"/><path id="Fill-643" class="cls-3" d="M6,16a2,2,0,0,0-2,2V55H9V16Z"/><path id="Stroke-644" class="cls-2" d="M6,16a2,2,0,0,0-2,2V55H9V16Z"/><path id="Fill-645" class="cls-3" d="M54,16H51V55h5V18a2,2,0,0,0-2-2"/><path id="Stroke-646" class="cls-2" d="M54,16H51V55h5V18a2,2,0,0,0-2-2Z"/><polygon id="Fill-647" class="cls-3" points="9 7 51 7 51 1 9 1 9 7"/><polygon id="Stroke-648" class="cls-2" points="9 7 51 7 51 1 9 1 9 7"/><path id="Fill-649" class="cls-4" d="M15,4a1,1,0,1,0-1,1,1,1,0,0,0,1-1"/><path id="Fill-650" class="cls-4" d="M19,4a1,1,0,1,0-1,1,1,1,0,0,0,1-1"/><path id="Fill-651" class="cls-4" d="M23,4a1,1,0,1,0-1,1,1,1,0,0,0,1-1"/><polygon id="Fill-652" class="cls-3" points="15 42 21 42 21 36 15 36 15 42"/><polygon id="Stroke-653" class="cls-2" points="15 42 21 42 21 36 15 36 15 42"/><path id="Stroke-654" class="cls-2" d="M32,37H45"/><path id="Stroke-655" class="cls-2" d="M25,37h3"/><path id="Stroke-656" class="cls-2" d="M41,41h4"/><path id="Stroke-657" class="cls-2" d="M25,41H37"/><polygon id="Fill-658" class="cls-3" points="15 52 21 52 21 46 15 46 15 52"/><polygon id="Stroke-659" class="cls-2" points="15 52 21 52 21 46 15 46 15 52"/><g id="Group-662"><path id="Fill-660" class="cls-3" d="M32,47H45"/><path id="Stroke-661" class="cls-2" d="M32,47H45"/></g><g id="Group-665"><path id="Fill-663" class="cls-3" d="M25,47h3"/><path id="Stroke-664" class="cls-2" d="M25,47h3"/></g><g id="Group-668"><path id="Fill-666" class="cls-3" d="M41,51h4"/><path id="Stroke-667" class="cls-2" d="M41,51h4"/></g><g id="Group-671"><path id="Fill-669" class="cls-3" d="M25,51H37"/><path id="Stroke-670" class="cls-2" d="M25,51H37"/></g></g></g></g></svg>