<svg id="Layer_1" data-name="Layer 1" xmlns="http://www.w3.org/2000/svg" xmlns:xlink="http://www.w3.org/1999/xlink" viewBox="0 0 274.21 68.96"><defs><style>.cls-1{opacity:0.29;}.cls-2{fill:#425776;}.cls-3{fill:url(#radial-gradient);}.cls-4{fill:#fff;opacity:0.21;}.cls-5{opacity:0.28;}.cls-6{fill:#4d4d4d;}.cls-7{font-size:36px;fill:red;font-family:MyriadPro-Regular, Myriad Pro;}</style><radialGradient id="radial-gradient" cx="32.5" cy="24.73" r="24.03" gradientUnits="userSpaceOnUse"><stop offset="0" stop-color="#ed1e79" stop-opacity="0.6"/><stop offset="1"/></radialGradient></defs><title>new_logo_dark</title><g class="cls-1"><path d="M89.55,115.34c0-3,1.91-5.82,5.13-7.91v-.29a6.47,6.47,0,0,1-3.13-5.74c0-2.9,2-5.22,3.85-6.49v-.29a12.17,12.17,0,0,1-4.53-9.4c0-7.65,6-12.47,13.13-12.47a14.16,14.16,0,0,1,5,.87h12.21v4.56H114a10.1,10.1,0,0,1,2.85,7.2c0,7.5-5.66,12.14-12.82,12.14a12.43,12.43,0,0,1-5.21-1.19,5.11,5.11,0,0,0-2.23,4.14c0,2.22,1.44,3.79,6.13,3.79h6.81c8.14,0,12.23,2.56,12.23,8.36,0,6.51-6.88,12.11-17.69,12.11C95.46,124.73,89.55,121.37,89.55,115.34Zm26.38-1.83c0-3.24-2.46-4.34-7.05-4.34h-6a19.84,19.84,0,0,1-4.55-.53c-2.5,1.78-3.57,3.86-3.57,5.87,0,3.76,3.79,6.14,10.15,6.14C111.54,120.65,115.93,117.16,115.93,113.51Zm-4.49-28.29c0-5.08-3.31-8.17-7.44-8.17s-7.43,3-7.43,8.17,3.4,8.32,7.43,8.32S111.44,90.32,111.44,85.22Z" transform="translate(-72 -55.77)"/><path d="M128.51,73.62h4.9l.5,6.37h.19c2.44-4.44,6-7.24,10-7.24a8.19,8.19,0,0,1,3.74.72l-1.1,5.2a9.82,9.82,0,0,0-3.4-.58c-3,0-6.49,2.13-8.85,8.06v22.47h-5.93Z" transform="translate(-72 -55.77)"/><path d="M149.62,99.53c0-7.62,6.58-11.43,21.49-13.06,0-4.5-1.5-8.84-7.22-8.84-4,0-7.7,1.92-10.44,3.75l-2.32-4c3.22-2.12,8.14-4.58,13.75-4.58,8.54,0,12.16,5.68,12.16,14.4v21.47h-4.9l-.5-4.18h-.19c-3.34,2.77-7.23,5-11.58,5C154,109.48,149.62,105.85,149.62,99.53Zm21.49.55V90.36c-11.73,1.41-15.69,4.28-15.69,8.76,0,4,2.7,5.59,6.13,5.59S167.72,103.07,171.11,100.08Z" transform="translate(-72 -55.77)"/><path d="M183.06,73.62h6.11l6.61,19.88c1.05,3.42,2.19,7,3.23,10.33h.29c1-3.35,2.18-6.91,3.23-10.33l6.62-19.88H215l-12.38,35h-6.88Z" transform="translate(-72 -55.77)"/><path d="M220.63,62.6a4.1,4.1,0,0,1,8.19,0,4.1,4.1,0,0,1-8.19,0Zm1.09,11h5.92v35h-5.92Z" transform="translate(-72 -55.77)"/><path d="M240.49,97.8V78.44h-5.21V74l5.47-.34.71-9.82h4.95v9.82h9.48v4.82h-9.48V97.9c0,4.28,1.38,6.76,5.41,6.76a11.69,11.69,0,0,0,4-.94l1.14,4.47a20.92,20.92,0,0,1-6.49,1.29C243,109.48,240.49,104.76,240.49,97.8Z" transform="translate(-72 -55.77)"/><path d="M263.07,105a4.29,4.29,0,1,1,4.29,4.48A4.33,4.33,0,0,1,263.07,105Z" transform="translate(-72 -55.77)"/><path d="M281.15,62.6a4.1,4.1,0,0,1,8.18,0,4.1,4.1,0,0,1-8.18,0Zm1.09,11h5.92v35h-5.92Z" transform="translate(-72 -55.77)"/><path d="M296.09,104.63l2.92-3.9c3,2.44,6.13,4.14,10.33,4.14,4.6,0,6.88-2.45,6.88-5.43,0-3.61-4.13-5.2-8-6.64-4.9-1.79-10.43-4.21-10.43-10.11,0-5.6,4.48-9.94,12.07-9.94a17.72,17.72,0,0,1,10.88,3.94l-2.83,3.79c-2.41-1.78-4.89-3.11-8-3.11-4.41,0-6.45,2.35-6.45,5,0,3.33,3.81,4.59,7.77,6.07,5.05,1.9,10.68,4,10.68,10.62,0,5.68-4.51,10.4-12.77,10.4A21,21,0,0,1,296.09,104.63Z" transform="translate(-72 -55.77)"/><path d="M329.74,97.8V78.44h-5.2V74l5.47-.34.71-9.82h4.95v9.82h9.48v4.82h-9.48V97.9c0,4.28,1.38,6.76,5.41,6.76a11.75,11.75,0,0,0,4-.94l1.14,4.47a21,21,0,0,1-6.49,1.29C332.27,109.48,329.74,104.76,329.74,97.8Z" transform="translate(-72 -55.77)"/></g><path class="cls-2" d="M87.55,112.34c0-3,1.91-5.82,5.13-7.91v-.29a6.47,6.47,0,0,1-3.13-5.74c0-2.9,2-5.22,3.85-6.49v-.29a12.17,12.17,0,0,1-4.53-9.4c0-7.65,6-12.47,13.13-12.47a14.16,14.16,0,0,1,5,.87h12.21v4.56H112a10.1,10.1,0,0,1,2.85,7.2c0,7.5-5.66,12.14-12.82,12.14a12.43,12.43,0,0,1-5.21-1.19,5.11,5.11,0,0,0-2.23,4.14c0,2.22,1.44,3.79,6.13,3.79h6.81c8.14,0,12.23,2.56,12.23,8.36,0,6.51-6.88,12.11-17.69,12.11C93.46,121.73,87.55,118.37,87.55,112.34Zm26.38-1.83c0-3.24-2.46-4.34-7.05-4.34h-6a19.84,19.84,0,0,1-4.55-.53c-2.5,1.78-3.57,3.86-3.57,5.87,0,3.76,3.79,6.14,10.15,6.14C109.54,117.65,113.93,114.16,113.93,110.51Zm-4.49-28.29c0-5.08-3.31-8.17-7.44-8.17s-7.43,3-7.43,8.17S98,90.54,102,90.54,109.44,87.32,109.44,82.22Z" transform="translate(-72 -55.77)"/><path class="cls-2" d="M126.51,70.62h4.9l.5,6.37h.19c2.44-4.44,6-7.24,10-7.24a8.19,8.19,0,0,1,3.74.72l-1.1,5.2a9.82,9.82,0,0,0-3.4-.58c-3,0-6.49,2.13-8.85,8.06v22.47h-5.93Z" transform="translate(-72 -55.77)"/><path class="cls-2" d="M147.62,96.53c0-7.62,6.58-11.43,21.49-13.06,0-4.5-1.5-8.84-7.22-8.84-4,0-7.7,1.92-10.44,3.75l-2.32-4c3.22-2.12,8.14-4.58,13.75-4.58,8.54,0,12.16,5.68,12.16,14.4v21.47h-4.9l-.5-4.18h-.19c-3.34,2.77-7.23,5-11.58,5C152,106.48,147.62,102.85,147.62,96.53Zm21.49.55V87.36c-11.73,1.41-15.69,4.28-15.69,8.76,0,4,2.7,5.59,6.13,5.59S165.72,100.07,169.11,97.08Z" transform="translate(-72 -55.77)"/><path class="cls-2" d="M181.06,70.62h6.11l6.61,19.88c1.05,3.42,2.19,7,3.23,10.33h.29c1-3.35,2.18-6.91,3.23-10.33l6.62-19.88H213l-12.38,35h-6.88Z" transform="translate(-72 -55.77)"/><path class="cls-2" d="M218.63,59.6a4.1,4.1,0,0,1,8.19,0,4.1,4.1,0,0,1-8.19,0Zm1.09,11h5.92v35h-5.92Z" transform="translate(-72 -55.77)"/><path class="cls-2" d="M238.49,94.8V75.44h-5.21V71l5.47-.34.71-9.82h4.95v9.82h9.48v4.82h-9.48V94.9c0,4.28,1.38,6.76,5.41,6.76a11.69,11.69,0,0,0,4-.94l1.14,4.47a20.92,20.92,0,0,1-6.49,1.29C241,106.48,238.49,101.76,238.49,94.8Z" transform="translate(-72 -55.77)"/><path class="cls-2" d="M261.07,102a4.29,4.29,0,1,1,4.29,4.48A4.33,4.33,0,0,1,261.07,102Z" transform="translate(-72 -55.77)"/><path class="cls-2" d="M279.15,59.6a4.1,4.1,0,0,1,8.18,0,4.1,4.1,0,0,1-8.18,0Zm1.09,11h5.92v35h-5.92Z" transform="translate(-72 -55.77)"/><path class="cls-2" d="M294.09,101.63l2.92-3.9c3,2.44,6.13,4.14,10.33,4.14,4.6,0,6.88-2.45,6.88-5.43,0-3.61-4.13-5.2-8-6.64-4.9-1.79-10.43-4.21-10.43-10.11,0-5.6,4.48-9.94,12.07-9.94a17.72,17.72,0,0,1,10.88,3.94l-2.83,3.79c-2.41-1.78-4.89-3.11-8-3.11-4.41,0-6.45,2.35-6.45,5,0,3.33,3.81,4.59,7.77,6.07,5.05,1.9,10.68,4,10.68,10.62,0,5.68-4.51,10.4-12.77,10.4A21,21,0,0,1,294.09,101.63Z" transform="translate(-72 -55.77)"/><path class="cls-2" d="M327.74,94.8V75.44h-5.2V71l5.47-.34.71-9.82h4.95v9.82h9.48v4.82h-9.48V94.9c0,4.28,1.38,6.76,5.41,6.76a11.75,11.75,0,0,0,4-.94l1.14,4.47a21,21,0,0,1-6.49,1.29C330.27,106.48,327.74,101.76,327.74,94.8Z" transform="translate(-72 -55.77)"/><rect class="cls-3" x="4" y="6.23" width="57" height="37" rx="12" ry="12"/><path class="cls-4" d="M120.13,66.54c8.3,3.9,1.36,6.58,2.44,12.14-.63-3.25-3.37-9.08-3.37-9.08C93,58.38,120.13,66.54,120.13,66.54Z" transform="translate(-72 -55.77)"/><path class="cls-5" d="M125,102.5H86a12,12,0,0,1-12-12V74A12,12,0,0,1,86,62h39a12,12,0,0,1,12,12V90.5A12,12,0,0,1,125,102.5Zm5.4-16.24v-8a12,12,0,0,0-12-12H92.6a12,12,0,0,0-12,12v8a12,12,0,0,0,12,12h25.8A12,12,0,0,0,130.4,86.26Z" transform="translate(-72 -55.77)"/><path class="cls-6" d="M123,100.5H84a12,12,0,0,1-12-12V72A12,12,0,0,1,84,60h39a12,12,0,0,1,12,12V88.5A12,12,0,0,1,123,100.5Zm5.4-16.24v-8a12,12,0,0,0-12-12H90.6a12,12,0,0,0-12,12v8a12,12,0,0,0,12,12h25.8A12,12,0,0,0,128.4,84.26Z" transform="translate(-72 -55.77)"/><text class="cls-7" transform="translate(11.5 36.23)">.</text></svg>