<svg id="Layer_1" data-name="Layer 1" xmlns="http://www.w3.org/2000/svg" viewBox="0 0 60.03 48"><defs><style>.cls-1{fill:#c6e3f8;}.cls-2,.cls-4{fill:none;stroke-linecap:round;stroke-linejoin:round;stroke-width:2px;}.cls-2{stroke:#1c81e3;}.cls-3{fill:#fff;}.cls-4{stroke:#1081e0;}</style></defs><title>post</title><g id="Page-1"><g id="Photograhpy-_-Video---Outline" data-name="Photograhpy-&amp;-Video---Outline"><g id="_100--Movie-Folder--_photography_-video_-record_" data-name="100--Movie-Folder--(photography,-video,-record)"><path id="Fill-2425" class="cls-1" d="M48,11a4,4,0,0,0-4-4H31L26,1H8A3,3,0,0,0,5,4v7Z"/><path id="Stroke-2426" class="cls-2" d="M48,11a4,4,0,0,0-4-4H31L26,1H8A3,3,0,0,0,5,4v7Z"/><path id="Fill-2427" class="cls-3" d="M54,14V44a3,3,0,0,1-3,3H4a3,3,0,0,1-3-3V14a3,3,0,0,1,3-3H51a3,3,0,0,1,3,3"/><path id="Stroke-2428" class="cls-2" d="M54,14V44a3,3,0,0,1-3,3H4a3,3,0,0,1-3-3V14a3,3,0,0,1,3-3H51a3,3,0,0,1,3,3Z"/><path id="Fill-2429" class="cls-1" d="M55,15a4,4,0,0,1,3.9,4.84L54,43V15Z"/><path id="Stroke-2430" class="cls-2" d="M55,15a4,4,0,0,1,3.9,4.84L54,43V15Z"/><path id="Fill-2466" class="cls-1" d="M38,42H17a2,2,0,0,1-2-2V18a2,2,0,0,1,2-2H38a2,2,0,0,1,2,2V40a2,2,0,0,1-2,2"/><path id="Stroke-2467" class="cls-2" d="M38,42H17a2,2,0,0,1-2-2V18a2,2,0,0,1,2-2H38a2,2,0,0,1,2,2V40a2,2,0,0,1-2,2Z"/><path id="Fill-2468" class="cls-3" d="M33,38H22a1,1,0,0,1-1-1V21a1,1,0,0,1,1-1H33a1,1,0,0,1,1,1V37a1,1,0,0,1-1,1"/><path id="Stroke-2469" class="cls-2" d="M33,38H22a1,1,0,0,1-1-1V21a1,1,0,0,1,1-1H33a1,1,0,0,1,1,1V37a1,1,0,0,1-1,1Z"/><path id="Stroke-2470" class="cls-4" d="M21,29H34"/><path id="Stroke-2471" class="cls-2" d="M18,21v1"/><path id="Stroke-2472" class="cls-2" d="M18,26v1"/><path id="Stroke-2473" class="cls-2" d="M18,31v1"/><path id="Stroke-2474" class="cls-2" d="M18,36v1"/><path id="Stroke-2475" class="cls-2" d="M37,21v1"/><path id="Stroke-2476" class="cls-2" d="M37,26v1"/><path id="Stroke-2477" class="cls-2" d="M37,31v1"/><path id="Stroke-2478" class="cls-2" d="M37,36v1"/></g></g></g></svg>