<?xml version="1.0" encoding="UTF-8"?>
<svg width="169px" height="169px" viewBox="0 0 169 169" version="1.1" xmlns="http://www.w3.org/2000/svg" xmlns:xlink="http://www.w3.org/1999/xlink">
    <!-- Generator: Sketch 43.2 (39069) - http://www.bohemiancoding.com/sketch -->
    <title>75</title>
    <desc>Created with Sketch.</desc>
    <defs>
        <path d="M65,130 C100.898509,130 130,100.898509 130,65 C130,64.9936523 65.1068555,65.0014886 65,65 C64.6925654,64.9957171 65.3084524,0 65,0 C29.1014913,4.39629938e-15 0,29.1014913 0,65 C0,100.898509 29.1014913,130 65,130 Z" id="path-1"></path>
        <filter x="-23.1%" y="-23.1%" width="146.2%" height="146.2%" filterUnits="objectBoundingBox" id="filter-2">
            <feOffset dx="0" dy="0" in="SourceAlpha" result="shadowOffsetOuter1"></feOffset>
            <feGaussianBlur stdDeviation="10" in="shadowOffsetOuter1" result="shadowBlurOuter1"></feGaussianBlur>
            <feColorMatrix values="0 0 0 0 0.109803922   0 0 0 0 0.505882353   0 0 0 0 0.890196078  0 0 0 0.5 0" type="matrix" in="shadowBlurOuter1"></feColorMatrix>
        </filter>
    </defs>
    <g id="Page-1" stroke="none" stroke-width="1" fill="none" fill-rule="evenodd">
        <g id="75" transform="translate(19.000000, 19.000000)">
            <path d="M8.73386756,73.5619509 C-27.1646411,73.5619509 73.7338676,73.6659548 73.7338676,73.5619509 C73.7338676,37.6634422 44.6323763,8.56195088 8.73386756,8.56195088 C8.20457068,8.56195088 8.73386756,73.5619509 8.73386756,73.5619509 Z" id="25" fill="#D7D7D7" fill-rule="nonzero" transform="translate(37.372331, 41.085063) rotate(-90.000000) translate(-37.372331, -41.085063) "></path>
            <g fill-rule="nonzero" transform="translate(65.000000, 65.000000) rotate(-90.000000) translate(-65.000000, -65.000000) ">
                <use fill="black" fill-opacity="1" filter="url(#filter-2)" xlink:href="#path-1"></use>
                <use fill="#1C81E3" fill-rule="evenodd" xlink:href="#path-1"></use>
            </g>
            <circle id="Oval" fill="#FFFFFF" cx="65" cy="65" r="32"></circle>
            <path d="M44.949,56.028 L55.553,56.028 L55.553,57.898 L49.437,72 L46.687,72 L53.089,58.118 L44.949,58.118 L44.949,56.028 Z M58.569,55.918 L68.249,55.918 L68.249,58.118 L60.879,58.118 L60.879,62.496 C61.1870015,62.0853313 61.6453303,61.7406681 62.254,61.462 C62.8626697,61.1833319 63.5739959,61.044 64.388,61.044 C65.2020041,61.044 65.9573298,61.2053317 66.654,61.528 C67.3506701,61.8506683 67.8823315,62.2833306 68.249,62.826 C68.982337,63.8820053 69.349,65.0699934 69.349,66.39 C69.349,68.0620084 68.8723381,69.4149948 67.919,70.449 C66.9656619,71.4830052 65.6420085,72 63.948,72 C62.2539915,72 60.9230048,71.604004 59.955,70.812 C58.9869952,70.019996 58.4076676,68.9713399 58.217,67.666 L60.659,67.666 C60.8203341,68.3553368 61.1796639,68.9016647 61.737,69.305 C62.2943361,69.7083353 63.0423286,69.91 63.981,69.91 C64.9196714,69.91 65.6493307,69.5946698 66.17,68.964 C66.6906693,68.3333302 66.951,67.4936719 66.951,66.445 C66.951,65.3963281 66.6870026,64.5896695 66.159,64.025 C65.6309974,63.4603305 64.8536718,63.178 63.827,63.178 C63.1083297,63.178 62.5033358,63.3576649 62.012,63.717 C61.5206642,64.0763351 61.1650011,64.5639969 60.945,65.18 L58.569,65.18 L58.569,55.918 Z M82.485,66.984 C81.5609954,66.984 81.099,67.5999938 81.099,68.832 C81.099,70.0640062 81.5609954,70.68 82.485,70.68 C83.4090046,70.68 83.871,70.0640062 83.871,68.832 C83.871,67.5999938 83.4090046,66.984 82.485,66.984 Z M79.163,68.832 C79.163,67.7906615 79.4746636,66.9693363 80.098,66.368 C80.7213365,65.7666637 81.5206618,65.466 82.496,65.466 C83.4713382,65.466 84.2706636,65.7666637 84.894,66.368 C85.5173365,66.9693363 85.829,67.7906615 85.829,68.832 C85.829,69.8733385 85.5173365,70.6983303 84.894,71.307 C84.2706636,71.9156697 83.4713382,72.22 82.496,72.22 C81.5206618,72.22 80.7213365,71.9156697 80.098,71.307 C79.4746636,70.6983303 79.163,69.8733385 79.163,68.832 Z M73.157,72 L81.935,56.688 L84.399,56.688 L75.621,72 L73.157,72 Z M75.093,57.986 C74.1689954,57.986 73.707,58.6056605 73.707,59.845 C73.707,61.0843395 74.1689954,61.704 75.093,61.704 C76.0170046,61.704 76.479,61.0843395 76.479,59.845 C76.479,58.6056605 76.0170046,57.986 75.093,57.986 Z M71.749,59.834 C71.749,58.7926615 72.0606636,57.9713363 72.684,57.37 C73.3073365,56.7686637 74.1103284,56.468 75.093,56.468 C76.0756716,56.468 76.8786636,56.7686637 77.502,57.37 C78.1253365,57.9713363 78.437,58.7926615 78.437,59.834 C78.437,60.8753385 78.1253365,61.7003303 77.502,62.309 C76.8786636,62.9176697 76.0756716,63.222 75.093,63.222 C74.1103284,63.222 73.3073365,62.9176697 72.684,62.309 C72.0606636,61.7003303 71.749,60.8753385 71.749,59.834 Z" id="75%" fill="#102F39"></path>
        </g>
    </g>
</svg>