<svg id="Layer_1" data-name="Layer 1" xmlns="http://www.w3.org/2000/svg" viewBox="0 0 442.98 52.59"><defs><style>.cls-1{fill:#00d1b2;}</style></defs><title>logo</title><g id="Page-1"><path id="Logo" class="cls-1" d="M1,1.63V52H11V31.81H27.89V52H38V1.63H27.89V21.78H11V1.63Zm67.17-.41A24.64,24.64,0,0,1,86.18,8.75a24.67,24.67,0,0,1,7.53,18.09,24.5,24.5,0,0,1-7.53,18.06,24.73,24.73,0,0,1-18.06,7.44,24.82,24.82,0,0,1-18.06-7.44,24.62,24.62,0,0,1-7.5-18.06,24.79,24.79,0,0,1,7.5-18.09A24.64,24.64,0,0,1,68.12,1.22Zm0,10.22a14.65,14.65,0,0,0-10.84,4.5,14.91,14.91,0,0,0-4.5,10.84,14.78,14.78,0,0,0,4.5,10.84,15.35,15.35,0,0,0,21.66,0,14.66,14.66,0,0,0,4.53-10.84,14.8,14.8,0,0,0-4.53-10.84A14.74,14.74,0,0,0,68.12,11.44ZM98.23.44V52h10.12V31.13l14.56,20.06,14.53-20.06V52h10.13V.44L122.92,34.28ZM154,1.5V52.06H184.4V42H164.15V31.84h15.19V21.75H164.15V11.59H184.4V1.5ZM189,1.5V52.06H199.1V31.84h15.19V21.75H199.1V11.59h20.25V1.5ZM223.92,52H234V1.63H223.92ZM240.5,1.63V52h30.38V41.94H250.62V1.63ZM275.45.44V52h10.13V31.13l14.56,20.06,14.53-20.06V52h10.13V.44L300.13,34.28ZM331.24,52h10.13V1.63H331.24ZM347.82.56v51.5h10.13v-28L388.32,53V1.5H378.16v28Zm70.61.66a24.4,24.4,0,0,0-18,7.53,24.79,24.79,0,0,0-7.5,18.09,24.49,24.49,0,0,0,7.5,18.06,24.44,24.44,0,0,0,18,7.47,24.74,24.74,0,0,0,18.06-7.47c5-4.94,8.06-11.77,7.34-21.19H418v9.66h14.38a15.28,15.28,0,0,1-13.81,8.81,14.61,14.61,0,0,1-10.81-4.5,14.78,14.78,0,0,1-4.5-10.84A14.78,14.78,0,0,1,407.7,16a14.63,14.63,0,0,1,10.81-4.53A14.89,14.89,0,0,1,429.33,16l7.22-7.22a25.73,25.73,0,0,0-18.09-7.47Z" transform="translate(-0.95 -0.44)"/></g></svg>
