<?xml version="1.0" encoding="UTF-8"?>
<svg width="175px" height="149px" viewBox="0 0 175 149" version="1.1" xmlns="http://www.w3.org/2000/svg" xmlns:xlink="http://www.w3.org/1999/xlink">
    <!-- Generator: Sketch 43.2 (39069) - http://www.bohemiancoding.com/sketch -->
    <title>85</title>
    <desc>Created with Sketch.</desc>
    <defs>
        <rect id="path-1" x="0" y="120" width="60" height="9"></rect>
        <filter x="-50.0%" y="-333.3%" width="200.0%" height="766.7%" filterUnits="objectBoundingBox" id="filter-2">
            <feOffset dx="0" dy="0" in="SourceAlpha" result="shadowOffsetOuter1"></feOffset>
            <feGaussianBlur stdDeviation="10" in="shadowOffsetOuter1" result="shadowBlurOuter1"></feGaussianBlur>
            <feColorMatrix values="0 0 0 0 0.882352941   0 0 0 0 0.0941176471   0 0 0 0 0.145098039  0 0 0 0.2 0" type="matrix" in="shadowBlurOuter1"></feColorMatrix>
        </filter>
        <rect id="path-3" x="76" y="44" width="60" height="85"></rect>
        <filter x="-50.0%" y="-35.3%" width="200.0%" height="170.6%" filterUnits="objectBoundingBox" id="filter-4">
            <feOffset dx="0" dy="0" in="SourceAlpha" result="shadowOffsetOuter1"></feOffset>
            <feGaussianBlur stdDeviation="10" in="shadowOffsetOuter1" result="shadowBlurOuter1"></feGaussianBlur>
            <feColorMatrix values="0 0 0 0 0.109803922   0 0 0 0 0.505882353   0 0 0 0 0.890196078  0 0 0 0.2 0" type="matrix" in="shadowBlurOuter1"></feColorMatrix>
        </filter>
    </defs>
    <g id="Page-1" stroke="none" stroke-width="1" fill="none" fill-rule="evenodd">
        <g id="85" transform="translate(19.000000, 0.000000)">
            <rect id="Rectangle" fill="#E11825" opacity="0.100000001" x="0" y="29" width="60" height="100"></rect>
            <path d="M19.246,8.035 C19.7666693,8.61433623 20.5109952,8.904 21.479,8.904 C22.4470048,8.904 23.1839975,8.62900275 23.69,8.079 C24.1960025,7.52899725 24.449,6.77367147 24.449,5.813 C24.449,4.85232853 24.181336,4.08966949 23.646,3.525 C23.110664,2.96033051 22.3810046,2.678 21.457,2.678 C20.5329954,2.678 19.803336,2.96766377 19.268,3.547 C18.732664,4.12633623 18.465,4.87432875 18.465,5.791 C18.465,6.70767125 18.7253307,7.45566377 19.246,8.035 Z M21.721,14.888 C22.7623385,14.888 23.5249976,14.4773374 24.009,13.656 C24.4930024,12.8346626 24.735,11.4340099 24.735,9.454 C24.3829982,9.95266916 23.8880032,10.3376653 23.25,10.609 C22.6119968,10.8803347 21.9190037,11.016 21.171,11.016 C19.6896593,11.016 18.4686715,10.5686711 17.508,9.674 C16.5473285,8.77932886 16.067,7.52167477 16.067,5.901 C16.067,4.28032523 16.5399953,2.98967147 17.486,2.029 C18.4320047,1.06832853 19.7336584,0.588 21.391,0.588 C23.3856766,0.588 24.8046624,1.25166003 25.648,2.579 C26.4913375,3.90633997 26.913,5.97065266 26.913,8.772 C26.913,11.5733473 26.5243372,13.6413267 25.747,14.976 C24.9696628,16.3106733 23.5763434,16.978 21.567,16.978 C19.9976588,16.978 18.7876709,16.5673374 17.937,15.746 C17.0863291,14.9246626 16.6096672,13.8906729 16.507,12.644 L18.817,12.644 C19.1103348,14.1400075 20.0783251,14.888 21.721,14.888 Z M40.181,11.984 C39.2569954,11.984 38.795,12.5999938 38.795,13.832 C38.795,15.0640062 39.2569954,15.68 40.181,15.68 C41.1050046,15.68 41.567,15.0640062 41.567,13.832 C41.567,12.5999938 41.1050046,11.984 40.181,11.984 Z M36.859,13.832 C36.859,12.7906615 37.1706636,11.9693363 37.794,11.368 C38.4173365,10.7666637 39.2166618,10.466 40.192,10.466 C41.1673382,10.466 41.9666636,10.7666637 42.59,11.368 C43.2133364,11.9693363 43.525,12.7906615 43.525,13.832 C43.525,14.8733385 43.2133364,15.6983303 42.59,16.307 C41.9666636,16.9156697 41.1673382,17.22 40.192,17.22 C39.2166618,17.22 38.4173365,16.9156697 37.794,16.307 C37.1706636,15.6983303 36.859,14.8733385 36.859,13.832 Z M30.853,17 L39.631,1.688 L42.095,1.688 L33.317,17 L30.853,17 Z M32.789,2.986 C31.8649954,2.986 31.403,3.60566047 31.403,4.845 C31.403,6.08433953 31.8649954,6.704 32.789,6.704 C33.7130046,6.704 34.175,6.08433953 34.175,4.845 C34.175,3.60566047 33.7130046,2.986 32.789,2.986 Z M29.445,4.834 C29.445,3.79266146 29.7566635,2.97133634 30.38,2.37 C31.0033364,1.76866366 31.8063284,1.468 32.789,1.468 C33.7716716,1.468 34.5746635,1.76866366 35.198,2.37 C35.8213364,2.97133634 36.133,3.79266146 36.133,4.834 C36.133,5.87533854 35.8213364,6.70033029 35.198,7.309 C34.5746635,7.91766971 33.7716716,8.222 32.789,8.222 C31.8063284,8.222 31.0033364,7.91766971 30.38,7.309 C29.7566635,6.70033029 29.445,5.87533854 29.445,4.834 Z" id="9%" fill="#102F39"></path>
            <path d="M93.583,10.246 C92.9963304,9.74733084 92.2153382,9.498 91.24,9.498 C90.2646618,9.498 89.4726697,9.73999758 88.864,10.224 C88.2553303,10.7080024 87.951,11.4083288 87.951,12.325 C87.951,13.2416712 88.2443304,13.967664 88.831,14.503 C89.4176696,15.038336 90.2133283,15.306 91.218,15.306 C92.2226717,15.306 93.0146638,15.0346694 93.594,14.492 C94.1733362,13.9493306 94.463,13.2306711 94.463,12.336 C94.463,11.4413289 94.1696696,10.7446692 93.583,10.246 Z M93.341,3.206 C92.8276641,2.7659978 92.1273378,2.546 91.24,2.546 C90.3526622,2.546 89.6523359,2.7659978 89.139,3.206 C88.6256641,3.6460022 88.369,4.25832941 88.369,5.043 C88.369,5.82767059 88.636664,6.45099769 89.172,6.913 C89.707336,7.37500231 90.3929958,7.606 91.229,7.606 C92.0650042,7.606 92.7543306,7.37133568 93.297,6.902 C93.8396694,6.43266432 94.111,5.80933722 94.111,5.032 C94.111,4.25466278 93.8543359,3.6460022 93.341,3.206 Z M85.949,4.79 C85.949,3.55799384 86.4073287,2.52767081 87.324,1.699 C88.2406712,0.87032919 89.5423249,0.456 91.229,0.456 C92.9156751,0.456 94.2173287,0.87032919 95.134,1.699 C96.0506712,2.52767081 96.509,3.55799384 96.509,4.79 C96.509,5.61133744 96.3000021,6.33366355 95.882,6.957 C95.4639979,7.58033645 94.9103368,8.06066498 94.221,8.398 C95.0570042,8.72066828 95.7169976,9.23399648 96.201,9.938 C96.6850024,10.6420035 96.927,11.4853284 96.927,12.468 C96.927,13.9640075 96.3990053,15.1593289 95.343,16.054 C94.2869947,16.9486711 92.9193417,17.396 91.24,17.396 C89.5606583,17.396 88.1930053,16.9486711 87.137,16.054 C86.0809947,15.1593289 85.553,13.9640075 85.553,12.468 C85.553,11.4706617 85.7949976,10.6200035 86.279,9.916 C86.7630024,9.21199648 87.4156626,8.70600154 88.237,8.398 C86.711659,7.63532952 85.949,6.43267488 85.949,4.79 Z M100.427,0.918 L110.107,0.918 L110.107,3.118 L102.737,3.118 L102.737,7.496 C103.045002,7.08533128 103.50333,6.74066806 104.112,6.462 C104.72067,6.18333194 105.431996,6.044 106.246,6.044 C107.060004,6.044 107.81533,6.20533172 108.512,6.528 C109.20867,6.85066828 109.740331,7.28333062 110.107,7.826 C110.840337,8.88200528 111.207,10.0699934 111.207,11.39 C111.207,13.0620084 110.730338,14.4149948 109.777,15.449 C108.823662,16.4830052 107.500008,17 105.806,17 C104.111992,17 102.781005,16.604004 101.813,15.812 C100.844995,15.019996 100.265668,13.9713399 100.075,12.666 L102.517,12.666 C102.678334,13.3553368 103.037664,13.9016646 103.595,14.305 C104.152336,14.7083353 104.900329,14.91 105.839,14.91 C106.777671,14.91 107.507331,14.5946698 108.028,13.964 C108.548669,13.3333302 108.809,12.4936719 108.809,11.445 C108.809,10.3963281 108.545003,9.58966949 108.017,9.025 C107.488997,8.46033051 106.711672,8.178 105.685,8.178 C104.96633,8.178 104.361336,8.35766487 103.87,8.717 C103.378664,9.07633513 103.023001,9.56399692 102.803,10.18 L100.427,10.18 L100.427,0.918 Z M124.343,11.984 C123.418995,11.984 122.957,12.5999938 122.957,13.832 C122.957,15.0640062 123.418995,15.68 124.343,15.68 C125.267005,15.68 125.729,15.0640062 125.729,13.832 C125.729,12.5999938 125.267005,11.984 124.343,11.984 Z M121.021,13.832 C121.021,12.7906615 121.332664,11.9693363 121.956,11.368 C122.579336,10.7666637 123.378662,10.466 124.354,10.466 C125.329338,10.466 126.128664,10.7666637 126.752,11.368 C127.375336,11.9693363 127.687,12.7906615 127.687,13.832 C127.687,14.8733385 127.375336,15.6983303 126.752,16.307 C126.128664,16.9156697 125.329338,17.22 124.354,17.22 C123.378662,17.22 122.579336,16.9156697 121.956,16.307 C121.332664,15.6983303 121.021,14.8733385 121.021,13.832 Z M115.015,17 L123.793,1.688 L126.257,1.688 L117.479,17 L115.015,17 Z M116.951,2.986 C116.026995,2.986 115.565,3.60566047 115.565,4.845 C115.565,6.08433953 116.026995,6.704 116.951,6.704 C117.875005,6.704 118.337,6.08433953 118.337,4.845 C118.337,3.60566047 117.875005,2.986 116.951,2.986 Z M113.607,4.834 C113.607,3.79266146 113.918664,2.97133634 114.542,2.37 C115.165336,1.76866366 115.968328,1.468 116.951,1.468 C117.933672,1.468 118.736664,1.76866366 119.36,2.37 C119.983336,2.97133634 120.295,3.79266146 120.295,4.834 C120.295,5.87533854 119.983336,6.70033029 119.36,7.309 C118.736664,7.91766971 117.933672,8.222 116.951,8.222 C115.968328,8.222 115.165336,7.91766971 114.542,7.309 C113.918664,6.70033029 113.607,5.87533854 113.607,4.834 Z" id="85%" fill="#102F39"></path>
            <g id="Rectangle">
                <use fill="black" fill-opacity="1" filter="url(#filter-2)" xlink:href="#path-1"></use>
                <use fill="#E11825" fill-rule="evenodd" xlink:href="#path-1"></use>
            </g>
            <rect id="Rectangle" fill="#1C81E3" opacity="0.200000003" x="76" y="29" width="60" height="100"></rect>
            <g id="Rectangle">
                <use fill="black" fill-opacity="1" filter="url(#filter-4)" xlink:href="#path-3"></use>
                <use fill="#1C81E3" fill-rule="evenodd" xlink:href="#path-3"></use>
            </g>
        </g>
    </g>
</svg>