<?xml version="1.0" encoding="UTF-8"?>
<svg width="1689px" height="2617px" viewBox="0 0 1689 2617" version="1.1" xmlns="http://www.w3.org/2000/svg" xmlns:xlink="http://www.w3.org/1999/xlink">
    <!-- Generator: Sketch 42 (36781) - http://www.bohemiancoding.com/sketch -->
    <title>Page 1</title>
    <desc>Created with Sketch.</desc>
    <defs>
        <polygon id="path-1" points="1688.38984 2606.56118 1688.38984 0.649888643 0.145908377 0.649888643 0.145908377 2606.56118 1688.38984 2606.56118"></polygon>
    </defs>
    <g id="Page-3" stroke="none" stroke-width="1" fill="none" fill-rule="evenodd">
        <g id="Page-1" transform="translate(0.000000, -1.000000)">
            <g id="Group-3" transform="translate(0.000000, 259.224273)" fill="#DEAE25">
                <path d="M374.281958,2170.16799 C363.077963,2183.04364 353.425903,2200.90685 339.96696,2211.34621 C321.697463,2225.51739 303.565031,2239.63109 285.065618,2253.89954 C282.094392,2257.78612 279.118746,2261.67711 276.143099,2265.56369 C270.2935,2271.88655 263.391591,2274.77827 256.242081,2279.97805 C251.440369,2285.00982 246.634235,2290.046 241.828102,2295.07777 C235.655735,2298.05349 229.478947,2301.0248 223.302159,2304.00053 C212.849814,2311.05295 208.410662,2324.49457 198.595008,2332.13507 C187.86411,2340.49187 169.214366,2347.88034 156.732568,2353.41174 C143.773251,2359.15096 126.573748,2359.11116 111.43907,2356.15754 C102.976385,2354.50387 95.7207589,2357.44865 87.4172458,2355.46778 C63.2937275,2349.71972 56.922395,2335.80941 43.4944029,2319.78116 C35.9779107,2310.81419 27.1924579,2305.09266 22.2227301,2293.01289 C12.9862877,2270.58661 5.71297618,2246.48897 0.946635864,2219.58804 C1.40646832,2211.81047 1.86187932,2204.02406 2.32171178,2196.24649 C2.78596571,2176.1106 4.01513325,2142.2722 0.946635864,2124.18792 C1.40646832,2115.03524 1.86187932,2105.88256 2.32171178,2096.73872 C0.725562565,2087.1881 3.95765419,2074.96241 2.32171178,2065.16418 C1.49047618,2060.20758 0.296680366,2052.78374 0.946635864,2045.95239 C1.40646832,2041.83148 1.86187932,2037.71498 2.32171178,2033.59848 C-0.220631152,2017.8488 -0.247159948,1992.42026 2.32171178,1976.6352 C5.48305995,1957.17581 -2.67454476,1937.8579 0.946635864,1917.61588 C2.88765942,1906.75647 5.74834791,1895.2913 7.80875105,1882.61462 C7.35334005,1862.93856 6.89792906,1843.26251 6.4380966,1823.59088 C11.8543924,1792.32143 13.6274003,1757.91265 18.7916725,1726.13914 C21.9883924,1706.46308 13.7069866,1683.07732 18.1063453,1662.99448 C20.418772,1652.41805 26.8166332,1645.42752 29.7701725,1636.92039 C33.2498662,1626.90108 33.7494919,1619.31364 38.6926908,1611.52723 C43.7729552,1603.533 52.8236961,1600.42021 54.4773243,1588.87987 C56.3785547,1575.61512 52.3505992,1557.49988 50.3609395,1546.32654 C48.5392955,1536.13036 52.5318793,1526.63722 53.1022484,1519.55826 C54.3756306,1503.72014 50.0160652,1487.43102 53.1022484,1470.15147 C57.0992537,1447.80477 56.1707458,1425.20163 61.343861,1402.20497 C63.6253374,1396.25793 65.9156568,1390.3109 68.2015547,1384.35945 C69.1167982,1377.50157 70.0320416,1370.63485 70.9472851,1363.77255 C73.2376045,1359.19621 75.5235024,1354.61987 77.8138217,1350.04795 C79.8211673,1342.1112 76.0850285,1334.49281 75.0680914,1328.77128 C75.2935861,1322.36883 75.5235024,1315.96195 75.7534186,1309.55507 C74.5419369,1302.27272 70.4476594,1292.91665 72.322361,1282.10145 C78.9545599,1259.68843 85.5911804,1237.26658 92.2233793,1214.84472 L92.2233793,1192.19736 C95.0310102,1178.77785 109.444989,1144.87755 116.930531,1135.23408 C126.255403,1123.22063 138.812366,1121.8632 151.926434,1113.27206 C183.707932,1092.47293 222.108364,1069.65755 264.479272,1060.4297 L293.302809,1060.4297 C298.913649,1059.40831 306.805966,1057.06929 314.578903,1058.36924 C320.287015,1059.32872 325.588353,1061.31402 331.734191,1059.05901 C341.47468,1055.47752 358.346995,1046.89081 364.674112,1039.15745 C368.790497,1034.12127 372.906882,1029.08508 377.027688,1024.05774 C395.235285,1009.6699 435.377775,983.790363 444.282607,962.977962 C448.628908,952.826002 445.781484,939.40207 445.657683,928.662039 C445.538303,918.434913 449.102005,888.934097 446.338589,881.302441 C442.275262,870.067193 429.015285,860.980835 422.325607,851.797203 C417.223235,844.797834 416.316835,835.344485 411.342686,827.774731 C407.907207,823.19839 404.48057,818.62205 401.049513,814.050131 C389.089447,790.177992 378.805118,768.24693 368.790497,742.672481 C365.363861,737.185294 361.928382,731.693685 358.497324,726.202077 C357.12667,721.400235 355.756015,716.593972 354.38094,711.787709 C341.505631,687.990738 321.171309,666.068518 311.143424,640.414481 C290.928481,588.6952 286.095819,528.442259 276.143099,466.783254 C274.113646,454.208265 274.913932,418.618926 278.893251,408.444859 C289.133366,382.233702 326.39306,349.841169 367.419843,362.464795 C394.572065,370.821591 396.796063,384.970663 410.657358,405.703476 C427.662316,431.145277 450.848484,431.468053 450.459395,477.76205 C471.417144,460.570926 490.88928,440.30238 514.287678,425.605031 C527.180673,417.504687 558.900269,403.34235 565.753542,391.29353 L565.753542,339.817436 C575.326015,278.109793 547.324871,217.251095 601.439193,189.518913 C610.825966,184.708228 626.164031,178.893844 642.616306,181.971267 C657.357474,184.721493 665.347063,193.975871 676.931303,197.756326 C683.629824,182.347102 710.543288,166.234846 736.63878,170.98805 C747.13534,172.902596 754.788898,177.576211 763.401913,180.596154 C765.665704,148.681152 780.76501,128.947618 805.268775,119.516377 C838.098159,106.875065 875.433018,126.869473 883.497772,150.401149 C886.473419,149.711382 889.449065,149.030458 892.424712,148.34069 C900.913926,126.714717 916.375793,110.045341 928.105942,92.0671761 C938.284157,76.4722452 945.725484,61.8898573 956.929479,47.4533818 C961.505696,43.336886 966.086335,39.2203902 970.658131,35.1038944 C976.95872,26.3447342 981.154691,17.9614088 989.873822,11.766768 C999.375552,5.02385059 1009.8279,5.0813312 1022.12842,0.0982047218 C1062.25764,-0.618092074 1103.05009,36.4966938 1094.8748,81.0839585 C1090.34279,105.796198 1075.21696,126.431736 1065.36151,145.594886 C1052.68959,170.245223 1042.78108,192.892582 1028.99495,216.28719 C1023.60519,225.422184 1000.61356,255.873641 999.481667,265.013058 C998.884769,269.819321 1009.73063,299.731345 1011.83524,305.501513 C1014.55444,312.93862 1012.77259,320.41552 1015.2663,329.523985 C1019.00244,343.186684 1024.73266,364.649058 1027.61988,379.624967 L1027.61988,400.897213 C1028.76504,405.699055 1029.90577,410.505318 1031.05093,415.311581 C1031.78048,426.157729 1028.12835,434.983213 1031.73626,442.760781 C1035.58294,451.051254 1043.67864,455.154485 1048.89597,461.976991 C1074.7925,495.868441 1116.82295,533.456336 1083.20655,586.197004 L1083.20655,586.88235 C1135.6186,591.754937 1150.09891,655.496508 1124.38366,699.438222 C1119.13538,708.405196 1111.18558,717.301426 1102.42224,722.770926 C1097.62053,725.286808 1092.81439,727.80269 1088.01268,730.322994 L1088.01268,731.00834 C1090.07308,733.064377 1092.12907,735.124835 1094.18947,737.185294 C1095.10471,736.729871 1096.01996,736.270026 1096.9352,735.814603 C1108.49733,730.566181 1114.91288,720.759105 1124.38366,713.848168 C1159.7996,688.012846 1197.06814,645.685011 1247.22525,636.983331 C1294.3227,628.816663 1329.19038,685.090178 1310.3682,727.57719 C1303.8996,742.168421 1290.21958,756.202532 1283.60507,770.811449 C1234.52238,879.140286 1172.82082,974.080562 1121.63793,1078.96056 C1120.72269,1084.44775 1119.81186,1089.93936 1118.8922,1095.43097 C1113.74561,1110.48646 1104.93363,1128.96869 1098.99118,1143.46707 C1140.29652,1143.19293 1159.37956,1171.19483 1180.65566,1191.51201 C1186.45662,1197.04784 1194.21629,1199.52835 1199.19044,1205.92196 C1202.6215,1212.09891 1206.05698,1218.28029 1209.48361,1224.45282 C1217.68543,1235.05578 1231.43619,1240.76847 1239.67781,1251.2211 C1249.81181,1264.0658 1254.5074,1281.43821 1264.38496,1294.45536 C1277.60514,1311.88083 1297.81124,1320.1094 1315.16549,1333.57754 C1319.51622,1338.37939 1323.8581,1343.18565 1328.20882,1347.98749 C1334.138,1352.24105 1340.88074,1354.75252 1345.36411,1360.3414 C1351.36846,1367.81388 1356.44872,1376.38291 1364.58422,1381.61364 C1371.55687,1386.10155 1379.59068,1387.14505 1385.86031,1391.91152 C1391.34293,1397.3987 1396.83439,1402.89473 1402.32585,1408.38192 C1412.40237,1413.7453 1424.38455,1412.63549 1433.21421,1417.99003 C1450.3474,1428.38517 1474.12604,1453.65011 1486.73606,1469.4617 C1487.20031,1469.2362 1487.6513,1469.00185 1488.11556,1468.77635 C1497.83394,1444.06854 1538.75903,1424.14487 1571.84044,1440.63739 C1591.36121,1450.36929 1607.30059,1477.4515 1617.13393,1496.9109 C1624.12427,1510.75046 1632.7815,1523.2547 1636.3452,1538.77889 C1638.79027,1549.39512 1634.07699,1561.25381 1635.6643,1571.03435 C1637.17202,1580.33737 1634.21406,1593.24398 1635.6643,1602.60447 C1638.36581,1620.12721 1638.37466,1642.72593 1635.6643,1660.2531 C1636.11971,1668.25617 1636.57954,1676.26808 1637.03495,1684.27115 C1636.75198,1695.09961 1633.99741,1718.70203 1635.6643,1729.57029 C1636.49111,1734.95136 1638.32602,1744.22342 1637.03495,1751.52788 C1635.48744,1760.2782 1631.22515,1767.18914 1628.80218,1774.17966 C1627.20161,1781.72289 1625.5922,1789.27938 1623.99163,1796.82702 C1621.08672,1803.86618 1614.79056,1808.07553 1613.70288,1816.72858 C1631.02618,1852.32234 1615.12659,1887.15116 1589.00015,1902.51617 C1582.67303,1906.23472 1562.54652,1908.00336 1558.79711,1910.75358 M1478.50771,1934.77163 C1468.47983,1933.30809 1461.19325,1938.78643 1452.42548,1940.25882 C1443.69751,1941.72679 1435.5178,1937.51302 1429.09341,1938.20278 C1425.66235,1940.25882 1422.23129,1942.31928 1418.80024,1944.37974 M1361.15316,1954.67319 C1355.2903,1954.92964 1347.42451,1958.1176 1339.19174,1956.73365 C1335.76068,1956.0483 1332.3252,1955.35854 1328.89857,1954.67319 C1323.28773,1955.14188 1316.04094,1958.03359 1308.31222,1956.73365 C1280.64269,1952.06445 1251.33279,1946.57285 1225.26825,1941.63393 C1222.98235,1943.69439 1220.69203,1945.75485 1218.40613,1947.81089" id="Fill-1"></path>
            </g>
            <g id="Group-6" transform="translate(0.000000, 0.772334)">
                <mask id="mask-2" fill="white">
                    <use xlink:href="#path-1"></use>
                </mask>
                <g id="Clip-5"></g>
                <path d="M1022.70276,2223.76346 L1020.64236,2223.76346 C1020.87228,2224.22331 1021.09777,2224.67873 1021.32769,2225.13415 C1021.78752,2224.67873 1022.24293,2224.22331 1022.70276,2223.76346 L1022.70276,2223.76346 Z M1323.29171,2160.62323 L1323.29171,2159.25254 L1320.54155,2159.25254 C1321.84147,2160.75587 1320.75379,2160.07937 1323.29171,2160.62323 L1323.29171,2160.62323 Z M1343.88247,2160.62323 L1345.94288,2160.62323 L1345.94288,2157.87742 L1343.88247,2157.87742 L1343.88247,2160.62323 Z M1134.56585,1950.61562 C1128.27411,1948.92215 1126.64259,1942.22787 1119.46655,1941.00751 C1118.70605,1960.31215 1147.25546,1973.21876 1155.83753,1956.79257 L1155.83753,1951.99073 C1149.74475,1949.81089 1142.2592,1952.68934 1134.56585,1950.61562 L1134.56585,1950.61562 Z M513.482529,1678.84731 L512.797202,1678.84731 C505.453147,1684.43177 502.212212,1704.80201 501.818702,1716.58996 C501.358869,1716.81988 500.899037,1717.0498 500.443626,1717.2753 L499.758298,1717.2753 C492.812175,1697.85128 509.582796,1681.82303 505.935086,1662.37248 L504.56001,1662.37248 C485.154196,1692.22702 450.233458,1716.71376 458.581186,1769.43674 C460.906877,1784.14294 456.856814,1801.93097 468.189031,1807.18382 C468.874359,1807.63924 469.559686,1808.09466 470.249435,1808.55451 C478.566212,1802.27144 476.894898,1788.02067 482.60301,1779.04043 C491.10549,1765.66955 507.809788,1758.03348 514.167856,1742.66847 C521.45001,1725.07056 513.81856,1697.61694 513.482529,1678.84731 L513.482529,1678.84731 Z M1328.78317,1647.95811 L1328.78317,1646.58742 C1299.06207,1641.20635 1280.92522,1622.56937 1243.68321,1623.25472 C1244.59846,1628.74633 1245.5137,1634.23351 1246.42894,1639.72512 C1270.11031,1645.79596 1300.10996,1648.35163 1328.78317,1647.95811 L1328.78317,1647.95811 Z M350.149154,1988.36269 C350.379071,1987.90727 350.608987,1987.45184 350.834482,1986.992 L351.519809,1986.992 L350.149154,1988.36269 Z M348.7785,1990.42315 C349.003995,1989.96773 349.233911,1989.5123 349.463827,1989.05246 L350.149154,1989.05246 C349.693743,1989.5123 349.233911,1989.96773 348.7785,1990.42315 L348.7785,1990.42315 Z M464.757974,1831.89163 C427.701668,1882.89462 390.636518,1933.92413 353.580212,1984.93154 L351.519809,1986.30665 C365.248461,1965.48983 378.972691,1944.66859 392.696921,1923.85176 L383.778825,1912.86855 C380.971194,1903.87946 388.443471,1891.0834 392.696921,1888.16515 C394.730796,1895.5492 397.24661,1905.56851 404.36517,1908.07113 C404.820581,1908.52655 405.280414,1908.98639 405.735825,1909.44182 L406.425573,1909.44182 C405.050497,1904.41005 403.679843,1899.37387 402.304767,1894.3421 C396.70277,1864.41239 431.314005,1860.41528 445.542283,1849.04296 C445.997694,1848.81746 446.457526,1848.58754 446.912937,1848.36204 C408.605356,1841.85789 410.347414,1866.9946 384.45973,1877.86728 L380.347767,1877.86728 C376.200432,1861.79482 377.018403,1839.67362 380.347767,1822.96445 C383.601966,1806.60901 379.711076,1785.08473 385.149479,1770.80744 C398.45367,1735.86807 428.488688,1717.35047 449.658668,1690.51145 C459.293042,1678.29461 484.521927,1637.14292 505.245338,1645.90208 L505.935086,1645.90208 C504.635175,1638.75679 492.241806,1603.09671 488.09005,1600.60736 C481.227935,1611.58615 474.361398,1622.56937 467.503704,1633.54817 C449.888584,1657.11079 432.273463,1680.67784 414.658343,1704.23605 C404.073353,1719.32692 396.459589,1737.34046 379.658018,1746.09962 C380.170908,1723.30635 396.861942,1711.0276 407.106479,1697.37375 C433.644118,1661.69156 460.186178,1625.9961 486.719395,1590.30949 C485.932374,1585.01243 481.223513,1577.32329 477.11155,1575.21419 C473.768921,1585.81273 466.13305,1595.23955 460.637168,1604.03409 C447.266654,1625.46993 432.954369,1644.97797 418.774728,1665.11829 C409.471963,1678.34325 402.769021,1696.63092 389.955613,1706.29651 C395.19505,1671.19354 416.816018,1644.23072 427.697246,1610.90081 L427.697246,1608.155 L426.326592,1608.155 C413.287688,1637.20482 400.248785,1666.2679 387.209882,1695.31329 C380.259338,1701.80418 369.935215,1716.49268 368.679518,1727.57318 L367.98977,1727.57318 C366.986097,1718.6681 366.296348,1709.51984 367.308864,1700.11955 L366.619115,1700.11955 C363.873385,1705.60674 361.132076,1711.10277 358.381924,1716.58996 C348.889037,1715.64816 329.045497,1681.77882 322.010945,1672.66593 C319.344801,1669.20825 311.377319,1657.96858 303.480581,1661.00179 C292.135099,1665.36589 281.094699,1708.98925 285.635545,1729.62921 C291.83444,1757.79471 310.453233,1774.61884 315.834157,1805.12336 C318.601995,1820.81114 313.888712,1836.70232 311.717772,1849.04296 C311.262361,1886.79004 310.802529,1924.54153 310.347118,1962.28418 C310.347118,1986.20938 309.339024,2015.10886 319.954963,2028.85557 C303.683969,2046.21029 292.033406,2067.54886 273.28639,2082.3877 C246.576314,2103.5273 219.543471,2123.74721 191.621914,2144.15282 C175.810751,2155.69758 160.008432,2177.38103 138.091225,2181.21455 C139.262914,2190.74306 143.649008,2204.1051 148.384398,2211.40955 C148.614314,2211.8694 148.839809,2212.32482 149.069725,2212.78467 C150.900212,2207.06756 152.730699,2201.34603 154.556764,2195.62449 C158.611249,2186.24189 165.000267,2177.25723 171.031147,2169.54599 C193.554094,2140.72609 242.044312,2114.95267 271.911314,2091.30604 C281.063749,2080.55716 290.211762,2069.80387 299.364196,2059.05057 C310.117202,2046.93101 320.870207,2034.8026 331.618791,2022.67861 C343.057123,2006.44255 354.495455,1990.19323 365.933788,1973.94832 C398.069003,1928.85258 435.987495,1887.09513 464.757974,1839.43928 C471.615668,1822.28353 478.482204,1805.11894 485.344319,1787.96319 C489.69062,1779.96012 494.036921,1771.9482 498.383223,1763.94514 C478.796128,1776.59971 477.169029,1811.94586 464.757974,1831.89163 L464.757974,1831.89163 Z M732.406995,1456.48137 C730.916961,1476.26354 723.564063,1508.66492 737.208707,1521.68206 L737.208707,1523.05275 C739.936751,1516.45133 733.110008,1489.94392 731.717246,1481.87895 C731.951584,1473.41162 732.177079,1464.9487 732.406995,1456.48137 L732.406995,1456.48137 Z M802.403223,1577.96 L803.092971,1577.96 C806.404649,1571.6106 804.322139,1557.76662 805.148953,1550.50638 C820.663877,1551.22267 826.809715,1573.08299 836.71822,1580.70138 C851.729097,1592.24614 873.902749,1585.47669 888.878254,1578.64534 L889.563581,1578.64534 C896.766149,1614.72106 862.314086,1631.62478 859.36939,1659.6311 L860.054717,1659.6311 C864.171102,1654.13507 868.287487,1648.64788 872.403872,1643.15627 C893.339513,1614.56188 899.007832,1597.35749 908.779272,1556.68333 C912.073264,1542.972 914.880895,1514.58542 906.033542,1505.21166 C887.410327,1485.4737 847.36511,1511.31345 827.114796,1499.72005 C809.711906,1489.75822 806.037668,1456.45926 781.13155,1455.11068 C779.336435,1469.87877 783.536827,1481.0079 786.62301,1492.1724 C791.880134,1520.76237 797.141678,1549.36561 802.403223,1577.96 L802.403223,1577.96 Z M733.092322,1447.56303 L733.777649,1447.56303 C733.092322,1445.96242 732.406995,1444.3618 731.717246,1442.75677 C732.177079,1443.90196 732.636911,1445.04715 733.092322,1446.19234 L733.092322,1447.56303 Z M516.232681,1391.97044 L516.913586,1391.97044 C516.68367,1391.28952 516.458175,1390.59975 516.232681,1389.9144 L516.232681,1391.97044 Z M584.168505,1351.48199 C593.776351,1350.79222 603.388618,1350.10687 612.992042,1349.42153 C613.22638,1348.96168 613.451874,1348.50626 613.677369,1348.05084 C603.844029,1346.45022 594.006267,1344.84519 584.168505,1343.24457 L584.168505,1351.48199 Z M560.836429,1321.9679 C549.234503,1337.00129 538.817529,1352.06563 528.581835,1368.63774 C524.655573,1374.99155 519.128741,1381.31884 517.598914,1389.9144 C531.897935,1379.36892 550.344291,1345.11932 562.207084,1329.51555 C569.290272,1320.20811 576.554741,1309.31333 595.151427,1313.73491 C603.15428,1316.4763 611.165976,1319.22652 619.16883,1321.9679 L621.229233,1321.9679 L621.229233,1320.59721 C606.156455,1316.26848 596.084356,1304.821 577.30639,1304.81215 C571.819351,1310.52926 566.32789,1316.25079 560.836429,1321.9679 L560.836429,1321.9679 Z M501.818702,1201.18346 L501.818702,1203.2395 L502.504029,1203.2395 C502.274113,1202.55415 502.044196,1201.86881 501.818702,1201.18346 L501.818702,1201.18346 Z M566.32789,1262.94859 C568.565152,1257.21379 563.759018,1247.39345 562.207084,1242.35726 C557.179877,1226.02835 552.254364,1204.03981 540.935411,1193.6314 C542.084992,1213.74076 555.19906,1251.20928 566.32789,1261.57789 L566.32789,1262.94859 Z M806.524029,1027.54781 C800.922031,1025.19553 787.852178,1028.3437 780.446223,1028.23316 L780.446223,1027.54781 C780.738039,1024.718 781.551589,1025.27954 777.700492,1024.80201 C775.184678,1027.08797 772.668864,1029.38277 770.15305,1031.66431 L752.99334,1030.29362 C747.426715,1039.08373 734.312647,1052.50324 717.993016,1049.50983 C704.114034,1046.96742 708.38517,1042.06388 689.854806,1044.70356 C686.100982,1045.23858 683.341987,1043.11179 680.246961,1045.39333 C675.246283,1049.08093 679.654484,1058.89685 677.505652,1063.23885 C678.46511,1073.09014 702.845073,1095.98953 717.307688,1092.74851 C727.220615,1090.52445 732.981785,1082.03059 742.01484,1079.70925 L763.976262,1079.70925 C775.790419,1076.79543 810.467976,1056.83197 814.76122,1047.44937 C818.882026,1039.33134 811.436277,1029.48889 806.524029,1027.54781 L806.524029,1027.54781 Z M763.976262,1000.78396 C757.016874,1009.26014 732.177079,1011.32944 717.307688,1011.07741 L717.307688,1010.39206 C723.228031,1000.0544 739.468076,1006.24462 750.24761,1000.78396 L763.976262,1000.78396 Z M696.031594,972.644991 C674.335461,980.228009 662.592047,1016.13128 663.777,1046.07868 C673.623605,1050.30129 688.948406,1028.43655 698.091997,1024.80201 C726.000291,1017.25436 753.913005,1009.7023 781.821298,1002.15465 C794.395948,1003.06992 806.97944,1003.98519 819.562932,1004.90045 C820.938008,1003.75526 822.308662,1002.61449 823.679317,1001.4693 C822.817131,990.198684 809.588105,987.34234 801.032568,983.623787 C780.923741,974.895577 756.897495,962.983827 728.971516,963.722232 C714.946626,980.811658 712.041723,967.047264 696.031594,972.644991 L696.031594,972.644991 Z M497.697895,1085.19644 C497.927812,1085.65629 498.157728,1086.11171 498.383223,1086.57155 C499.979372,1072.06875 493.594775,1062.67731 489.465126,1052.25563 C482.373094,1032.35408 475.276641,1012.4481 468.189031,992.546545 C463.387319,979.051867 458.581186,965.552768 453.779474,952.053668 C454.336579,984.702653 468.268618,1004.55999 477.796877,1028.92293 C484.429076,1047.67929 491.065696,1066.44008 497.697895,1085.19644 L497.697895,1085.19644 Z M670.643537,928.035618 C671.125476,924.038505 672.292743,922.796039 673.384846,919.798205 C687.002961,913.913075 721.463866,939.376984 724.169804,912.250559 C715.32245,912.250559 711.776435,918.767975 704.958534,917.737746 C696.009487,916.398006 669.109288,891.760933 659.660615,906.073604 C659.952432,917.056822 665.240505,919.59039 667.893385,927.350272 C668.81305,927.575773 669.723872,927.805695 670.643537,928.035618 L670.643537,928.035618 Z M737.208707,900.581996 C740.639764,902.182609 744.070822,903.787645 747.506301,905.388259 C754.368416,900.612947 758.104555,895.112495 757.114147,884.116012 C750.822401,880.034889 745.715607,877.585331 734.467398,877.939058 C726.667932,884.160228 719.982675,886.371021 714.56638,895.090387 C715.021791,897.380768 715.477202,899.671149 715.937034,901.957109 C723.024644,901.501685 730.121097,901.04184 737.208707,900.581996 L737.208707,900.581996 Z M715.937034,774.305945 C718.222932,777.507173 720.50883,780.7084 722.794728,783.91405 C721.410809,780.239712 718.864045,776.507894 715.937034,774.305945 L715.937034,774.305945 Z M469.559686,925.975159 L472.995165,925.975159 C478.703277,910.504033 466.062306,896.111773 462.012243,884.796937 C451.033743,851.630626 440.050822,818.451051 429.067901,785.284741 C431.583715,782.998781 434.10395,780.7084 436.619764,778.422441 C436.39427,776.821827 436.164353,775.221213 435.934437,773.616178 C434.789277,775.221213 433.644118,776.821827 432.50338,778.422441 C426.636094,779.434984 425.004573,776.972161 420.149804,775.681058 C424.496105,785.970087 428.842406,796.267959 433.188707,806.561409 C444.856955,845.904674 456.525204,885.261203 468.189031,924.604468 C468.644442,925.059891 469.099853,925.519736 469.559686,925.975159 L469.559686,925.975159 Z M685.053094,748.227436 C682.762775,748.682859 680.476877,749.142704 678.190979,749.598127 C669.847673,763.7472 667.54851,796.418292 670.643537,818.229972 L671.328864,818.229972 C675.524835,800.800083 678.062757,756.066906 704.958534,765.383186 C708.615086,768.358913 712.27606,771.330218 715.937034,774.305945 C711.590733,766.068532 707.24001,757.831119 702.893709,749.598127 C698.18927,748.399878 691.592442,748.094788 685.053094,748.227436 L685.053094,748.227436 Z M400.934113,723.519618 L401.61944,723.519618 C406.677597,711.515014 389.893712,670.482704 383.778825,665.870991 C389.49578,685.082778 395.217157,704.303409 400.934113,723.519618 L400.934113,723.519618 Z M768.092647,659.00869 L768.092647,658.323345 L766.032243,658.323345 C761.230531,660.149459 756.424398,661.979996 751.618264,663.810532 C756.163531,665.154694 763.21577,660.370539 768.092647,659.00869 L768.092647,659.00869 Z M732.406995,769.499682 C738.809277,779.470356 744.468754,791.240616 753.678668,798.328417 C792.194058,827.948616 875.299932,813.251267 917.016463,796.953304 C930.621314,791.634137 949.164942,788.901598 956.8185,777.737095 C964.060861,767.173928 964.348257,742.704876 961.624634,726.950768 C961.164801,717.572586 960.70939,708.189982 960.249558,698.8118 C950.601919,660.335166 926.049518,648.843466 877.210005,649.400586 C862.800448,651.0012 848.386469,652.601813 833.976911,654.202427 C792.32228,663.394903 701.067644,689.115264 721.424073,748.227436 C724.121168,756.04922 728.325982,763.154707 732.406995,769.499682 L732.406995,769.499682 Z M317.89456,654.887773 L316.519484,654.887773 C330.778712,662.57691 350.396757,646.862596 359.757,643.223631 C360.672243,642.078441 361.587487,640.93325 362.50273,639.792481 L353.580212,639.792481 C342.442539,646.942184 325.835513,644.673911 317.89456,654.887773 L317.89456,654.887773 Z M723.484476,1347.36549 C740.639764,1351.99931 753.033134,1378.44481 748.191628,1402.26831 C745.963209,1413.23384 740.869681,1419.81316 740.644186,1433.83843 C737.443045,1428.27608 728.122594,1409.90439 726.915534,1405.01412 C727.605283,1393.80098 728.29061,1382.59226 728.971516,1371.38354 C727.141029,1363.37605 725.314963,1355.36856 723.484476,1347.36549 L723.484476,1347.36549 Z M471.620089,1251.96979 C471.850005,1251.50995 472.079921,1251.05452 472.305416,1250.59468 L472.995165,1250.59468 L471.620089,1251.96979 Z M470.249435,1254.02583 C470.479351,1253.5704 470.704846,1253.11056 470.934762,1252.65514 L471.620089,1252.65514 L470.249435,1254.02583 Z M387.209882,932.152114 C394.151584,938.426343 395.632775,955.555564 397.503055,966.468036 C391.078665,958.588771 390.817798,942.454407 387.209882,932.152114 L387.209882,932.152114 Z M317.209233,678.910245 C318.584309,678.680323 319.954963,678.4504 321.325618,678.224899 C322.457513,706.531888 332.547298,732.225719 341.231058,754.40439 C352.435052,788.941392 363.643469,823.491658 374.856306,858.033082 C364.934537,845.298916 362.493887,823.69063 356.325942,807.9321 C348.097594,786.911884 342.867,763.711827 334.364521,742.050481 C326.954144,723.165891 317.642537,704.665979 317.209233,678.910245 L317.209233,678.910245 Z M615.052445,1482.5643 C625.32351,1481.95412 626.022102,1502.58966 629.466424,1511.38861 C638.716131,1535.03967 644.508251,1561.89638 654.169154,1586.19741 C659.200783,1596.71636 664.236832,1607.23974 669.264039,1617.76311 C684.991194,1625.01009 726.141777,1606.24046 723.484476,1591.6846 C707.704264,1547.76499 691.915209,1503.83212 676.130576,1459.91694 C703.985812,1467.77852 700.046285,1486.22979 709.070497,1511.38861 C722.414482,1548.57857 741.855668,1581.16123 740.644186,1632.86282 L736.52338,1632.86282 C724.275919,1642.65663 728.043008,1646.37961 703.579037,1645.90208 C700.386738,1650.12469 696.50027,1653.27286 695.346267,1659.6311 C683.112071,1659.7947 669.905152,1658.5876 662.406346,1653.45414 C650.968013,1645.62794 650.543552,1624.32032 645.936385,1609.53012 C633.82599,1570.65554 609.379704,1533.31968 615.052445,1482.5643 L615.052445,1482.5643 Z M648.682115,1449.61907 C647.824351,1454.26615 645.839113,1453.96106 641.815579,1455.11068 C642.27099,1452.82472 642.730822,1450.53434 643.190654,1448.24838 C645.021141,1448.70822 646.851628,1449.16364 648.682115,1449.61907 L648.682115,1449.61907 Z M617.798175,1467.46459 C613.451874,1471.58108 609.101152,1475.702 604.759272,1479.81849 C604.321547,1438.00356 626.234332,1446.81578 647.992366,1431.09263 C663.741628,1430.7389 676.267641,1432.49427 680.936709,1443.44654 C679.446675,1446.6964 678.611018,1447.4127 675.445249,1448.93372 C667.265537,1447.91234 662.180851,1442.9469 654.858903,1440.69631 C632.097196,1433.71905 613.894021,1446.5726 617.798175,1467.46459 L617.798175,1467.46459 Z M671.328864,2116.01385 C678.416474,2126.3073 685.512927,2136.60518 692.600537,2146.89863 C693.595366,2151.5634 686.764202,2157.97912 683.678018,2159.25254 C681.162204,2159.47804 678.650812,2159.70796 676.130576,2159.93346 C672.098199,2147.21698 671.010518,2133.47027 671.328864,2116.01385 L671.328864,2116.01385 Z M713.191304,2275.92048 C724.868395,2238.19552 706.523733,2182.04139 681.622037,2172.29179 C681.396542,2171.83195 681.162204,2171.37652 680.936709,2170.91668 C698.091997,2171.1466 715.251707,2171.37652 732.406995,2171.60644 L732.406995,2170.91668 C725.54488,2161.13171 714.371835,2157.34683 706.329188,2148.95908 C697.40667,2136.14975 688.484152,2123.336 679.566055,2110.52667 C647.55022,2059.04173 633.963055,1989.13205 611.621387,1928.6536 C617.798175,1926.59757 623.974963,1924.53711 630.14733,1922.47665 C647.651914,1912.56346 677.585238,1883.96464 682.307364,1862.08664 C685.663257,1846.54035 670.948618,1840.40761 667.893385,1830.51652 C664.073238,1818.14493 671.748903,1780.68084 675.445249,1770.12209 C685.822429,1740.49747 715.362243,1723.20023 707.699843,1679.53265 C706.430882,1672.30336 708.137568,1664.61422 706.329188,1658.94133 C716.816906,1646.59627 737.97362,1648.9795 744.760571,1632.17748 C750.137073,1618.85966 739.905801,1605.65681 742.01484,1593.74506 C743.115785,1587.51504 747.431136,1582.31968 748.876955,1574.52885 C751.680165,1559.40261 744.552762,1544.89539 740.644186,1535.40666 C730.536715,1510.91108 714.504479,1486.48625 711.130901,1457.85648 C716.268644,1458.86902 718.894995,1460.6465 725.54488,1460.60229 C727.936893,1458.9044 729.117424,1458.17926 729.661264,1454.42533 C722.339317,1449.62349 715.021791,1444.81723 707.699843,1440.01539 C705.440474,1438.01683 704.901055,1430.99535 704.958534,1426.97171 C701.523055,1427.75875 700.780249,1430.36306 696.716921,1429.71751 C683.041327,1427.55536 641.665249,1402.09145 639.069848,1389.9144 L638.384521,1389.9144 C632.92401,1393.22617 630.47894,1399.06266 623.289636,1400.8932 C612.682539,1403.59037 596.641461,1397.70966 590.345293,1405.01412 C583.354955,1413.1233 581.34761,1424.74765 577.991717,1436.57981 C558.36483,1505.81299 595.518408,1553.15048 621.91456,1595.11575 C627.861432,1604.72385 633.808304,1614.33196 639.759597,1623.94006 C653.200853,1646.78639 660.328257,1675.43384 699.467073,1660.31202 L700.152401,1660.31202 L700.152401,1700.8049 C692.715495,1736.02725 671.881547,1765.99233 652.7985,1790.71341 C641.815579,1801.91771 630.837079,1813.13085 619.858579,1824.33957 C609.963338,1839.09882 612.770969,1865.88478 604.759272,1881.98819 C594.068168,1903.46826 578.234898,1920.33218 566.32789,1940.32217 C553.288987,1968.23121 540.250084,1996.14468 527.211181,2024.05373 C508.910733,2066.3683 490.605864,2108.70055 472.305416,2151.01512 L446.912937,2151.01512 C429.868186,2151.01512 380.223966,2146.20444 367.98977,2151.70489 C365.168874,2154.27825 365.36784,2188.07243 365.248461,2194.2538 C381.302804,2203.29152 413.097565,2190.23458 423.580861,2205.91795 L713.191304,2275.92048 Z M405.735825,2315.72801 C377.380963,2363.75527 346.735783,2405.7957 314.463503,2448.87078 C297.409908,2471.62868 280.52433,2498.04323 258.187084,2515.44217 C252.633723,2519.76648 247.182055,2519.95661 239.65672,2522.9854 C233.709848,2526.88081 227.758555,2530.77181 221.816105,2534.65838 C193.386079,2554.53783 130.840021,2616.09514 96.9096911,2567.59919 C80.7536545,2544.50525 78.6004005,2509.24753 67.4008272,2481.12183 C55.5247696,2451.28939 36.3311859,2428.2043 27.5987906,2394.64446 C20.2237853,2366.31979 24.1633115,2329.7577 24.167733,2296.5118 L24.167733,2267.00214 C12.2739895,2198.78151 19.8214319,2119.07801 31.7151754,2056.30477 C34.2309895,2019.93723 36.7512251,1983.55643 39.2670393,1947.18889 C49.1003796,1907.8412 58.9381414,1868.48467 68.7759031,1829.14141 C72.4324555,1797.57571 76.0934293,1766.00117 79.7544031,1734.43548 C82.2702173,1689.37068 84.7904529,1644.29262 87.306267,1599.23225 C101.959005,1521.75723 112.340607,1442.92921 149.069725,1387.85395 C167.016455,1360.9486 201.185545,1348.84672 236.230084,1339.12808 C245.603592,1337.52304 254.985942,1335.92243 264.363872,1334.32624 C283.924437,1328.73293 308.547581,1314.98622 335.735175,1323.34302 C351.059976,1328.05201 355.123304,1342.96601 363.873385,1354.22779 C369.820257,1358.56979 375.77155,1362.92063 381.718421,1367.26704 C393.877453,1374.49634 430.854173,1384.13097 437.990419,1392.65579 C442.606429,1398.16508 444.145099,1413.7158 445.542283,1421.48452 C448.964497,1423.31506 452.629893,1423.56709 457.210531,1422.85521 C460.676961,1416.19188 459.474322,1401.89248 459.266513,1391.97044 C459.956262,1398.60282 460.637168,1405.23962 461.326916,1411.872 L462.697571,1411.872 C464.218555,1399.92045 462.847901,1386.99616 460.637168,1376.18538 C459.956262,1365.66643 459.266513,1355.13864 458.581186,1344.61526 C455.388887,1331.83688 449.300529,1311.78942 453.094147,1294.5187 C458.08156,1271.76523 468.949524,1264.96483 475.051147,1248.53422 C474.365819,1248.99406 473.680492,1249.44949 472.995165,1249.90933 C473.910408,1248.07879 474.82123,1246.24826 475.736474,1244.41772 C476.196306,1244.19222 476.651717,1243.95788 477.11155,1243.73238 C476.426223,1245.33299 475.736474,1246.9336 475.051147,1248.53422 C482.801976,1241.68518 499.072971,1216.31413 501.128953,1204.61019 C499.528382,1206.67065 497.927812,1208.73111 496.327241,1210.78715 C496.097325,1211.24699 495.867408,1211.70684 495.641914,1212.16226 L492.896183,1203.2395 C489.535869,1198.00434 482.443838,1195.80239 479.85728,1189.5149 C478.942037,1181.96725 478.026793,1174.41519 477.11155,1166.86754 C472.765249,1160.92051 468.418948,1154.96905 464.068225,1149.02644 C451.948987,1112.19906 439.820906,1075.35399 427.697246,1038.53103 C420.16749,1017.27647 402.963565,982.297311 402.304767,958.230623 L402.994516,958.230623 C423.580861,1020.67667 444.171628,1083.14483 464.757974,1145.59087 L466.13305,1145.59087 C469.250183,1122.75781 460.756547,1103.65656 454.46038,1085.88621 C445.08245,1057.52174 435.704521,1029.14843 426.326592,1000.78396 C421.418764,986.595092 421.37455,961.511439 408.481555,955.484819 C405.554545,953.809038 403.162531,954.489962 402.304767,957.545277 L402.304767,948.622518 C405.682767,943.926795 417.554403,949.011618 424.955937,947.251827 C430.248432,945.991675 434.165851,942.57379 436.619764,938.329068 L436.619764,937.643722 C429.474675,940.057908 419.101916,948.896657 409.166882,945.191368 C406.651068,942.905409 404.135254,940.615028 401.61944,938.329068 C400.47428,930.321577 399.333542,922.318508 398.188382,914.311018 C394.301914,905.162758 390.411024,896.005655 386.520134,886.857395 C398.351976,901.006468 400.960641,921.071621 406.425573,941.760218 L413.973016,943.135331 C417.934649,927.801274 397.87888,880.207331 392.696921,866.95584 C384.008741,839.50664 375.311717,812.048596 366.619115,784.599395 C355.667144,750.022599 341.164736,716.228424 326.817079,685.0872 C330.248136,683.256663 333.679194,681.426127 337.110251,679.600012 L337.110251,677.535132 C327.971081,671.78265 330.203921,677.02665 322.696272,674.789328 C320.865785,673.188714 319.035298,671.5881 317.209233,669.987486 C311.487856,671.132677 305.770901,672.273446 300.049524,673.418636 C298.908785,671.362599 297.763626,669.302141 296.618466,667.241682 C296.883754,643.170572 339.962097,632.930181 362.50273,628.809264 C373.512181,626.797442 383.659445,630.449672 392.011594,631.555068 C405.965741,674.554984 419.919887,717.577007 433.878455,760.576923 C430.217482,761.492191 426.552086,762.407459 422.895534,763.322727 C421.980291,764.69784 421.065047,766.068532 420.149804,767.439223 L420.149804,770.874795 C426.370806,772.320653 432.967634,771.356748 435.244688,766.758299 C456.06095,829.204346 476.881634,891.66808 497.697895,954.118549 C497.242484,953.654282 496.782652,953.198859 496.327241,952.743436 L496.327241,951.368323 C490.928631,963.779712 502.048618,979.56035 504.56001,988.43005 C508.450901,1009.93222 512.337369,1031.43881 516.232681,1052.94098 C520.402123,1067.3863 529.771209,1077.31718 534.758623,1092.05874 L534.758623,1094.1192 C506.620414,1081.5619 469.838238,1105.52247 477.11155,1136.67254 C480.029717,1149.16793 485.945639,1162.00822 492.896183,1170.98404 C496.552736,1173.72984 500.213709,1176.47564 503.874683,1179.22145 C505.70517,1184.48314 507.535657,1189.74482 509.366144,1195.00651 C520.265058,1220.91258 525.721147,1239.38596 514.167856,1269.12554 C510.820806,1277.74321 509.86577,1285.32623 503.189356,1290.39779 C503.375058,1304.70161 518.240026,1324.74908 514.853183,1335.01158 C511.196631,1340.49877 507.535657,1345.99038 503.874683,1351.48199 C489.186573,1375.46466 473.79545,1396.96241 459.266513,1421.48452 C453.916539,1430.5134 443.618945,1445.10021 445.542283,1459.91694 C451.453783,1505.41947 470.187534,1536.64471 485.344319,1572.46839 C499.908628,1606.88159 510.758906,1645.17694 518.288662,1685.70961 C517.82883,1703.5507 517.373419,1721.39622 516.913586,1739.23732 L518.288662,1739.23732 C520.888484,1729.67343 526.42416,1723.47437 528.581835,1712.47346 C532.264916,1693.69499 526.570068,1672.58192 523.090374,1658.94133 C512.934267,1619.11169 501.380976,1582.16493 482.60301,1550.50638 C472.968636,1534.27032 442.624115,1482.51124 448.283592,1455.11068 C453.783895,1428.51042 469.882453,1413.11446 482.60301,1394.0309 C495.411997,1372.07331 508.225406,1350.10687 521.034393,1328.14486 C530.549387,1311.96628 534.53755,1286.15306 549.857929,1275.98784 C558.019955,1270.5714 575.338838,1274.55525 584.168505,1277.36295 C610.781309,1285.82145 637.880474,1295.64621 662.406346,1306.18727 C670.41362,1309.62726 682.378107,1312.57646 687.109076,1319.2221 C693.272599,1327.87956 692.33967,1348.93515 695.346267,1359.71498 C699.573188,1356.50491 701.828136,1351.83129 706.329188,1348.73618 C712.766843,1355.99642 714.955469,1399.36775 717.307688,1411.872 C707.049887,1401.23366 696.137709,1384.70135 680.246961,1380.3063 L679.566055,1380.3063 C679.331717,1380.99164 679.106223,1381.67699 678.876306,1382.36234 C685.879908,1390.90042 700.117029,1395.34411 707.699843,1405.01412 C716.732898,1416.52792 721.539031,1430.92461 731.031919,1441.38608 L731.031919,1442.75677 L731.717246,1442.75677 C730.094568,1430.76985 723.922202,1425.5568 724.169804,1410.5013 L725.54488,1410.5013 C730.452707,1425.23403 741.846825,1435.8193 742.01484,1455.11068 L743.385495,1436.57981 C746.436306,1425.24287 751.233597,1416.04155 750.937359,1400.8932 C752.308013,1408.44527 753.678668,1415.99291 755.053743,1423.54498 L757.114147,1423.54498 C759.629961,1410.73123 762.145775,1397.91747 764.661589,1385.10814 C767.310047,1370.03054 761.049251,1350.73032 757.799474,1339.12808 C751.57405,1316.91403 747.652209,1294.38606 737.208707,1275.98784 C728.520526,1262.94859 719.823503,1249.90933 711.130901,1236.87008 L715.247285,1232.75358 C723.953152,1240.90698 728.865401,1257.51446 734.467398,1268.43577 C748.487866,1295.79212 772.810351,1344.67274 773.584107,1382.36234 L774.269435,1382.36234 C797.123992,1366.81162 784.297319,1350.34122 827.795702,1353.53802 C819.34628,1342.89527 782.272288,1329.59072 787.308338,1308.93307 C791.208071,1292.94904 810.428183,1299.68754 825.054393,1294.5187 C835.564217,1290.80457 840.675432,1283.42495 848.386469,1277.36295 C847.811678,1253.41123 791.756332,1249.4937 772.209031,1240.98657 C760.788385,1236.01671 758.135505,1224.06959 752.99334,1212.8476 C761.915859,1210.78715 770.838377,1208.73111 779.756474,1206.67065 C798.286838,1200.26819 816.821623,1193.86132 835.347565,1187.45444 C888.599702,1166.22641 937.567437,1140.78461 983.581634,1112.65006 C1005.05227,1099.52238 1040.87941,1087.13752 1049.4659,1061.86374 L1051.5263,1061.86374 C1058.06123,1065.04286 1076.4501,1080.07625 1079.66451,1085.88621 C1081.03516,1087.2569 1082.40582,1088.62759 1083.77647,1089.99828 C1073.11632,1097.55919 1066.45759,1109.10837 1056.32801,1116.76656 L1056.32801,1121.57282 C1060.43113,1123.95163 1063.64554,1125.53456 1065.93586,1129.80581 C1064.26454,1139.07346 1056.32801,1138.28199 1050.15123,1142.84949 C1043.51903,1151.08248 1036.88241,1159.31989 1030.25463,1167.55289 C1024.5642,1180.66289 1041.05185,1194.78543 1040.54338,1205.9853 C1039.26115,1234.36746 1042.55073,1264.32812 1043.97886,1291.08755 C1051.56167,1295.85402 1065.46718,1305.21452 1068.68159,1313.73491 C1069.70295,1316.44534 1066.60792,1316.18005 1067.30651,1317.85583 C1070.05224,1320.37171 1072.8024,1322.88317 1075.5437,1325.39905 C1078.97918,1332.03585 1082.40582,1338.67265 1085.8413,1345.30503 C1094.04754,1371.89644 1087.45071,1405.62872 1087.21195,1435.89447 C1092.70341,1440.01539 1098.19487,1444.13188 1103.68191,1448.24838 C1108.24487,1452.30297 1093.20746,1457.83879 1087.21195,1459.22717 C1083.79416,1469.65327 1088.05203,1480.59669 1090.64301,1488.74125 C1083.17515,1499.20715 1072.85545,1506.45412 1070.74199,1522.36741 C1068.55779,1538.79802 1084.60771,1550.16149 1077.60411,1567.66213 C1070.17162,1586.23721 1051.86675,1596.63677 1041.91846,1612.95685 C1036.73208,1621.46398 1039.07987,1639.62785 1034.36659,1648.64788 C1028.26055,1660.34297 1014.16491,1676.64536 1021.32769,1696.68398 C1027.58406,1714.18904 1053.38774,1741.96544 1067.30651,1752.96192 C1071.42732,1756.16757 1075.5437,1759.37322 1079.66451,1762.57002 L1081.72049,1764.63048 C1073.61152,1768.94153 1067.9211,1774.53925 1061.13415,1779.72577 C1061.72662,1802.37313 1088.65777,1806.06073 1084.46622,1830.51652 C1082.18032,1843.86529 1078.47956,1862.93558 1070.74199,1871.69474 C1063.80029,1879.54748 1052.52113,1879.2026 1048.09524,1890.22119 C1037.40856,1916.84797 1079.20026,1953.77705 1092.70341,1963.65929 C1092.19052,1994.69882 1060.58588,1996.15795 1063.19013,2027.48488 C1063.64996,2027.71038 1064.10537,2027.9403 1064.5652,2028.1658 C1066.8511,2022.22319 1069.137,2016.27174 1071.42732,2010.32913 C1075.11924,2008.15813 1079.47439,2008.76388 1084.46622,2006.89355 C1091.36371,2004.31135 1107.34731,1985.43118 1108.48805,1976.69855 L1129.07439,1989.7378 C1129.30431,1990.42315 1129.5298,1991.10849 1129.75972,1991.79384 C1120.45696,1994.83589 1111.89258,2007.46394 1119.46655,2018.56212 C1130.67496,2031.14595 1141.8878,2043.72536 1153.0918,2056.30477 C1157.91119,2060.12944 1166.80276,2065.14352 1169.56176,2070.71914 C1175.97288,2076.89609 1182.37516,2083.07304 1188.78629,2089.25 C1188.55195,2089.70542 1188.32646,2090.16527 1188.09654,2090.62069 C1181.29191,2091.61113 1174.64644,2091.90295 1168.88085,2088.56465 C1158.87065,2082.76796 1153.50741,2069.10084 1146.91501,2059.74034 C1137.08609,2046.01574 1127.24833,2032.2823 1117.41057,2018.56212 C1113.05984,2012.03144 1108.13875,1998.47928 1100.25086,1995.91476 C1099.0659,2057.75063 1119.24105,2087.39735 1157.2126,2111.21201 C1164.62298,2115.8591 1172.72753,2122.2925 1182.60508,2124.25127 C1182.835,2124.93661 1183.06491,2125.62196 1183.28599,2126.3073 C1169.56618,2138.43129 1155.83753,2150.5597 1142.1133,2162.68369 L1140.73822,2162.68369 C1124.4628,2147.00474 1129.73319,2105.75578 1098.19045,2105.7204 C1086.36303,2125.65291 1105.141,2147.2833 1110.54403,2161.31299 C1111.00386,2161.76842 1111.45927,2162.22384 1111.91468,2162.68369 L1048.78057,2162.68369 C1048.97512,2125.58659 1056.66847,2097.56258 1057.01334,2063.85684 C1044.61113,2072.83265 1044.10708,2094.83004 1044.66419,2116.70362 L1043.97886,2116.70362 C1040.08797,2107.32544 1036.19708,2097.94284 1032.31061,2088.56465 C1028.87955,2090.39077 1025.44849,2092.2213 1022.01744,2094.05184 C1036.26782,2073.62412 1055.4393,2057.81695 1063.87988,2031.60137 L1063.87988,2028.1658 L1062.5048,2028.1658 C1057.80478,2043.2213 1042.68779,2053.1566 1033.68126,2064.54218 C1010.59237,2093.75559 976.352537,2117.641 946.525327,2140.0319 C936.011081,2147.93328 922.211686,2156.40503 914.270733,2166.80018 C929.365618,2156.96658 944.464924,2147.12413 959.56423,2137.29052 C960.934885,2146.89863 962.309961,2156.50673 963.680615,2166.11484 C970.290707,2160.10148 967.129359,2145.81534 966.426346,2135.91983 C980.150576,2124.93661 993.879228,2113.95782 1007.60346,2102.9746 C1023.74623,2114.6299 1030.38285,2155.20236 1030.25463,2181.89989 C1034.94138,2181.51079 1037.2317,2180.06936 1040.54338,2178.46874 C1041.00321,2197.68053 1041.45862,2216.90558 1041.91846,2236.11737 C1027.89799,2236.97074 1012.75889,2232.73486 997.310285,2235.43203 C972.085822,2239.83592 940.759736,2236.80272 912.21033,2236.80272 C859.373812,2237.02822 806.519607,2237.26256 753.678668,2237.48806 C752.524665,2244.94286 749.319102,2263.86282 752.99334,2271.80399 C761.721314,2280.73559 792.220586,2268.73541 799.661914,2286.9037 L405.735825,2315.72801 Z M502.504029,2194.93915 C516.95338,2197.5302 536.310558,2196.48228 549.168181,2194.2538 C552.829154,2194.71365 556.490128,2195.16907 560.151102,2195.62449 C566.553385,2195.39457 572.960089,2195.16907 579.362372,2194.93915 C591.684997,2197.10573 603.468204,2201.04978 612.992042,2205.91795 C618.200529,2208.58416 625.385411,2211.09562 628.781097,2215.53047 C634.705861,2223.26825 635.961558,2236.13948 638.384521,2247.10059 C640.701369,2257.56206 640.170793,2272.84748 637.013866,2282.09744 C632.826738,2294.34965 624.56744,2299.76609 617.798175,2308.86571 L607.505003,2308.86571 L607.505003,2313.66313 L502.504029,2194.93915 Z M562.207084,2070.71914 C560.845272,2071.62556 540.594958,2073.07142 536.133699,2074.83563 C544.82188,2062.71607 553.518903,2050.58766 562.207084,2038.46367 L565.642563,2038.46367 C566.097974,2038.69359 566.553385,2038.9191 567.013217,2039.14902 C569.980021,2048.72175 571.770715,2066.31524 562.207084,2070.71914 L562.207084,2070.71914 Z M652.7985,2087.87489 C651.65334,2092.68115 650.512602,2097.48299 649.363021,2102.28925 C644.105898,2118.75966 638.844353,2135.23448 633.582809,2151.70489 C632.220997,2153.22591 616.648594,2151.12124 610.246312,2151.01512 C624.430374,2129.9728 638.614437,2108.92163 652.7985,2087.87489 L652.7985,2087.87489 Z M602.013542,2063.85684 C590.579631,2091.76146 579.136877,2119.67493 567.698545,2147.58397 L567.013217,2147.58397 C574.175992,2114.71391 582.068309,2082.37001 597.21183,2056.99454 C603.15428,2048.98704 609.105573,2040.97513 615.052445,2032.97648 C617.753961,2041.89482 605.201419,2056.48163 602.013542,2063.85684 L602.013542,2063.85684 Z M542.991393,1280.78968 C535.284777,1291.03449 525.371851,1303.31324 523.090374,1318.53675 C512.598236,1316.12257 511.758157,1308.03107 510.055893,1296.57474 C518.195812,1285.53846 529.010717,1273.10939 534.068874,1259.51301 C538.167573,1263.4438 541.603052,1274.77633 542.991393,1280.78968 L542.991393,1280.78968 Z M510.736798,1180.59214 C508.070654,1174.38866 503.255678,1174.16758 498.383223,1170.29869 C492.082634,1165.28903 487.086377,1151.33451 484.658992,1142.84949 C477.213243,1116.8152 491.353092,1105.35887 508.680817,1098.92104 C511.881958,1097.55035 515.083099,1096.17524 518.288662,1094.80455 C548.588969,1095.20691 551.591144,1139.96662 568.383872,1141.47438 C571.434683,1146.1082 572.72133,1152.60351 572.504678,1160.69059 C568.158377,1165.49685 563.812076,1170.29869 559.461353,1175.10053 C560.606513,1180.59214 561.751673,1186.07933 562.896832,1191.57536 C567.636644,1190.66451 569.935806,1187.71974 571.129602,1183.33795 L571.819351,1183.33795 C566.535699,1203.71703 572.509099,1208.29337 573.875332,1227.26197 C591.547932,1228.04901 592.370325,1249.65288 591.720369,1268.43577 C597.892736,1270.26631 604.069524,1272.10127 610.246312,1273.92738 C604.303861,1257.6869 598.352568,1241.442 592.405696,1225.20151 C602.548539,1234.52664 612.289029,1269.91258 616.423099,1285.59595 C597.189723,1277.38506 568.68011,1264.2839 547.112199,1275.30249 C534.984118,1243.7368 522.860458,1212.15784 510.736798,1180.59214 L510.736798,1180.59214 Z M527.892086,733.813068 C540.99289,724.271287 554.588898,716.294748 573.190005,711.851055 C582.567935,710.935787 591.945864,710.020518 601.328215,709.10525 L615.742194,709.10525 C610.317055,699.395449 554.863029,706.257749 547.112199,709.795018 L546.426872,709.795018 L546.426872,709.10525 C548.960372,703.273179 551.542508,705.39554 555.344969,701.557604 C561.296262,693.550114 567.243134,685.542623 573.190005,677.535132 L573.190005,667.927028 C575.705819,663.810532 578.221634,659.694036 580.737448,655.573119 C587.661463,645.73067 602.455688,638.576545 606.129927,626.067881 C612.846134,603.190599 599.205911,574.052353 619.16883,563.612991 C647.452948,548.818367 685.986024,567.256377 710.445573,570.470869 C717.767521,564.983682 725.085047,559.496495 732.406995,554.000464 C736.050283,549.101348 736.112183,545.042333 741.329513,541.646555 C746.05606,542.243469 747.236592,545.891277 748.191628,549.883969 C759.510581,549.379908 769.52078,538.524916 772.894359,529.982414 C773.354191,529.752491 773.809602,529.526991 774.269435,529.297068 C785.796196,535.261787 786.848505,550.100626 796.916183,556.746269 C806.921961,563.352117 824.063984,552.457331 835.347565,558.121382 C841.524353,562.927645 847.701141,567.729486 853.877929,572.535749 C866.001589,578.938205 878.12967,585.345082 890.248908,591.747537 C900.559767,598.503719 905.374743,610.906265 921.132848,612.338859 C891.623984,618.06039 862.110699,623.7775 832.601835,629.499031 C809.18133,636.210997 790.628859,651.257652 768.092647,657.633577 C773.292291,658.898151 816.153982,640.610475 826.425047,637.732023 C844.597272,632.642778 863.684741,632.129874 883.386793,628.123918 C893.127283,626.143048 906.250194,622.539456 919.072445,624.692768 C931.196105,626.067881 943.324186,627.434151 955.443424,628.809264 L962.309961,657.633577 C968.97311,674.214522 985.597822,690.857368 995.249882,707.049213 C1000.65291,716.109041 1010.97262,731.120323 1006.91813,748.227436 C1004.95058,756.509065 996.965411,760.351422 995.249882,768.814336 C993.322123,778.334009 1000.51585,784.546336 997.995613,793.522154 L997.995613,795.582613 C994.794471,794.2075 991.59333,792.832387 988.387767,791.461695 L984.956709,791.461695 C984.041466,795.122768 983.126223,798.78384 982.210979,802.440491 C963.680615,805.646141 945.150251,808.85179 926.624309,812.053018 C887.551814,821.325082 811.542393,844.993827 767.407319,827.152731 C757.308691,823.067186 749.898314,813.773014 742.700168,806.561409 C736.726767,800.574582 728.317139,793.420458 724.859552,785.284741 C724.169804,784.829318 723.484476,784.369473 722.794728,783.91405 C728.180073,800.309287 742.832812,821.108424 756.424398,829.894114 C767.513435,837.061503 780.623081,837.839702 796.230856,840.877331 C809.627898,843.486066 828.675573,842.570798 841.524353,840.191985 C880.229866,833.002488 912.670162,827.537409 947.900403,818.229972 C958.189154,815.939591 968.486749,813.64921 978.779921,811.36325 C975.870597,816.88581 970.794754,819.724468 965.055691,822.346468 C965.696804,857.812002 994.586662,875.065028 1011.03452,895.780154 C1016.52598,901.04184 1022.01744,906.303527 1027.50448,911.565213 C1027.04907,912.935905 1026.58923,914.311018 1026.13382,915.681709 C1030.70562,921.398819 1035.28184,927.12035 1039.85805,932.841881 C1042.53304,940.234771 1035.01655,947.884114 1037.80207,956.174586 C1042.8337,965.778269 1047.86533,975.390795 1052.90138,984.994478 C1051.5263,993.917237 1050.15123,1002.84442 1048.78057,1011.76275 C1046.56542,1024.14319 1053.42311,1036.98348 1050.15123,1050.19959 C1043.94791,1075.27883 994.70162,1098.8724 971.228058,1109.21891 C938.053798,1123.8411 910.879469,1148.63292 877.210005,1159.31989 C855.133626,1166.32369 827.411034,1169.85211 803.092971,1173.04449 C793.029715,1172.81457 782.962037,1172.58465 772.894359,1172.35473 C756.37134,1176.01138 735.117353,1195.81124 715.247285,1192.2607 C698.299806,1189.2275 684.151115,1179.07112 671.328864,1170.98404 C662.344445,1165.31999 647.563484,1155.59692 643.190654,1145.59087 C639.631374,1137.45516 641.625455,1126.20222 637.013866,1119.51236 C629.435474,1108.51588 617.019997,1101.68011 608.875657,1091.3734 C600.80206,1081.15511 593.104288,1068.96038 587.599563,1056.37213 C579.596709,1035.32538 571.589435,1014.27421 563.58216,993.231891 L561.521757,993.231891 L561.521757,997.348387 C559.461353,990.260586 557.405372,983.168363 555.344969,976.076141 C539.202196,918.887358 587.988652,925.422461 618.483503,906.073604 C637.022709,894.312188 649.411657,875.454127 658.975288,854.601932 L658.975288,849.795668 L657.604634,849.795668 C648.350505,885.981921 595.00994,902.611503 562.207084,917.056822 C552.143827,922.773932 542.076149,928.495463 532.012893,934.212572 C520.769105,936.88321 513.478107,921.239641 512.797202,912.935905 C518.82366,913.656623 523.346819,917.927874 530.637817,916.367055 C563.896084,909.248303 629.369152,867.393577 643.875982,842.248023 C648.660008,833.95755 647.758029,823.080451 650.05277,812.053018 C653.921552,793.45583 659.240576,755.57611 648.682115,739.990023 C641.178887,728.918373 619.818785,724.651544 601.328215,729.006805 C568.834861,736.664991 539.387898,748.956997 513.482529,764.012495 C511.130309,762.115635 510.37866,759.705871 508.680817,757.150195 C509.529738,744.159577 519.840597,739.680512 527.892086,733.813068 L527.892086,733.813068 Z M549.857929,78.3970782 C551.454079,77.4862317 553.059071,76.5709636 554.659641,75.6556954 C556.127568,77.0794459 555.079681,76.5753852 554.659641,79.7721912 C553.059071,79.5466904 551.454079,79.316768 549.857929,79.0868455 L549.857929,78.3970782 Z M1127.01399,1772.86347 C1150.90759,1782.86952 1182.40612,1769.44559 1190.15252,1753.65169 C1189.98009,1750.78208 1190.32054,1750.85724 1188.78629,1749.53077 C1175.26545,1739.90056 1161.93915,1755.50875 1146.22968,1750.90588 C1137.83774,1748.44306 1131.49293,1737.49079 1129.07439,1728.94387 C1150.18689,1697.73632 1123.82169,1687.18642 1122.21228,1657.57064 C1120.96985,1634.73757 1133.29689,1610.95829 1142.80304,1597.17621 C1154.24138,1598.65302 1155.75794,1609.88827 1165.44979,1612.27592 C1176.62284,1615.02173 1183.80772,1603.18072 1193.58358,1608.84477 C1201.98437,1613.55818 1195.14436,1630.53265 1192.89825,1637.66466 C1190.55046,1645.11061 1191.59834,1654.40036 1189.4672,1663.05783 C1187.1813,1669.6902 1184.89098,1676.327 1182.60508,1682.95938 C1183.06491,1687.99557 1183.52032,1693.03175 1183.97574,1698.0591 C1186.54903,1712.90236 1176.1409,1721.81185 1167.50577,1725.5083 C1176.1409,1730.25708 1184.36482,1723.39036 1188.09654,1718.65042 C1199.82669,1703.74525 1204.86274,1682.67198 1210.74329,1661.68714 C1213.2989,1652.56983 1211.86192,1639.75165 1222.40712,1638.35443 C1240.6943,1651.72973 1244.3199,1680.68227 1250.54533,1706.29651 C1251.91598,1712.23912 1253.29106,1718.19057 1254.66613,1724.1376 C1254.4318,1739.0074 1254.2063,1753.88161 1253.98081,1768.74698 C1257.81864,1786.07075 1269.42941,1797.81006 1275.25248,1813.35635 C1277.76829,1828.22172 1280.28411,1843.09593 1282.80434,1857.97014 C1291.67823,1892.48062 1302.90875,1929.25494 1302.02003,1971.89229 C1268.02338,1961.79781 1251.38983,1942.58602 1234.07537,1916.30412 C1282.57443,1911.70567 1286.7306,1873.71099 1254.66613,1848.36204 C1244.0104,1839.9345 1231.91769,1830.00362 1218.29073,1825.02491 C1205.66303,1820.40878 1189.06926,1821.94749 1178.48427,1815.41239 C1165.9671,1807.69672 1162.62448,1789.60802 1150.35049,1781.79065 C1140.28281,1775.37935 1131.66095,1787.09213 1120.8372,1783.16134 C1111.19841,1779.65945 1089.57302,1754.36798 1083.77647,1745.41427 C1092.4735,1748.39 1101.17052,1751.3613 1109.8587,1754.33703 C1116.62354,1759.60314 1118.28602,1769.21567 1127.01399,1772.86347 L1127.01399,1772.86347 Z M1214.17877,1831.20187 C1229.47262,1831.62634 1243.06863,1842.41059 1249.85558,1851.79319 C1238.10774,1848.38415 1218.93185,1841.68545 1214.17877,1831.20187 L1214.17877,1831.20187 Z M1091.32834,1807.18382 C1086.46915,1799.39741 1077.8915,1796.41726 1077.60411,1783.85111 C1080.11992,1782.24608 1082.64016,1780.64546 1085.15597,1779.04043 C1103.00543,1779.24824 1114.04141,1788.84308 1120.8372,1800.3171 C1120.24915,1815.20015 1111.56097,1820.91726 1107.11297,1831.20187 C1105.5124,1832.57256 1103.91183,1833.94767 1102.31126,1835.31836 C1099.78218,1825.17083 1096.33786,1815.20457 1091.32834,1807.18382 L1091.32834,1807.18382 Z M1209.36821,2030.22626 C1185.28007,2033.23736 1175.7916,2035.7046 1164.07472,2016.50166 C1172.95744,2021.07358 1181.8888,2026.322 1192.89825,2028.85557 C1198.38529,2029.31099 1203.88118,2029.77084 1209.36821,2030.22626 L1209.36821,2030.22626 Z M1282.80434,2161.31299 L1282.80434,2161.99392 C1272.28125,2151.47497 1261.75374,2140.94717 1251.23508,2130.42822 C1256.94761,2133.39953 1262.66899,2136.37525 1268.39036,2139.35098 C1282.49484,2129.28745 1286.83672,2106.29079 1286.2354,2081.70235 C1316.85405,2103.54498 1299.19472,2131.94925 1275.93338,2148.95908 C1278.22813,2153.07558 1280.51402,2157.19208 1282.80434,2161.31299 L1282.80434,2161.31299 Z M1256.03679,1571.09328 C1282.6717,1590.03535 1310.02289,1608.36724 1338.38659,1625.31075 C1430.62279,1680.40371 1522.9828,1707.66278 1565.54825,1814.04612 C1574.56362,1836.57409 1589.29594,1888.0944 1582.70354,1923.85176 C1573.45825,1973.94832 1568.28514,2021.8562 1555.94482,2068.65868 C1549.08271,2096.10788 1542.21175,2123.56592 1535.34964,2151.01512 L1429.66776,2151.01512 C1419.03855,2149.27744 1382.76042,2147.88464 1374.07666,2151.70489 C1371.91015,2153.52658 1371.34862,2158.89439 1371.33093,2162.68369 C1368.61615,2161.71536 1368.76648,2162.19289 1367.89988,2159.25254 L1361.03334,2159.25254 C1362.15639,2161.71978 1360.59119,2160.21644 1363.09374,2161.31299 C1356.74452,2165.54445 1319.44503,2162.07793 1307.50707,2161.99392 C1314.35592,2135.87561 1330.6844,2116.16861 1347.30911,2099.54345 C1356.00613,2090.84619 1372.41419,2081.49454 1374.07666,2066.60264 C1376.00442,2049.38499 1345.99593,2022.12149 1325.35211,2029.54533 C1313.80766,2033.68836 1311.0973,2046.81605 1310.2528,2061.8008 C1307.50707,2060.65561 1304.76134,2059.51042 1302.02003,2058.36523 C1301.55578,2064.31226 1301.10037,2070.26371 1300.64054,2076.21074 C1295.83882,2074.83563 1291.03269,2073.46494 1286.2354,2072.09425 L1286.2354,2061.8008 C1266.42281,2056.41089 1250.64702,2045.53379 1234.07537,2037.08856 C1235.53887,2029.65145 1241.79967,2023.04118 1240.25215,2013.75585 C1234.59268,1979.78039 1178.74514,1981.5225 1146.22968,1987.67292 L1146.22968,1978.75901 C1118.94481,1978.79438 1099.95462,1965.30412 1088.58261,1949.24493 C1085.8413,1943.98324 1083.09557,1938.72155 1080.34984,1933.45987 C1081.86198,1920.62843 1093.08366,1911.98865 1098.8802,1902.5751 C1113.28976,1878.78697 1127.70374,1854.99 1142.1133,1831.20187 C1142.34321,1830.74644 1142.57313,1830.2866 1142.80304,1829.82675 C1143.48395,1844.46662 1144.1737,1859.11533 1144.85903,1873.7552 C1146.91501,1887.7053 1148.97983,1901.66425 1151.03581,1915.61435 C1154.00704,1922.02123 1156.98711,1928.4281 1159.95833,1934.83056 L1163.38497,1937.57636 C1162.93398,1924.53711 1162.47415,1911.49785 1162.01874,1898.4586 C1165.63549,1876.9918 1170.74671,1867.00786 1181.23001,1853.84923 L1185.35081,1853.84923 C1194.29102,1864.25322 1194.5563,1877.19077 1199.76037,1892.28164 C1211.88403,1927.04857 1224.01211,1961.83318 1236.13135,1996.6001 C1244.47023,2009.41386 1264.71613,2013.93272 1281.42927,2018.56212 C1283.22438,2021.63954 1283.69748,2025.36694 1283.48525,2030.9116 L1284.175,2030.9116 C1291.26261,2024.73907 1298.35906,2018.5577 1305.44667,2012.38516 C1309.96541,2004.3423 1309.06343,1985.30738 1306.81732,1975.32344 C1300.6538,1947.82118 1302.39586,1916.06977 1296.52857,1886.79446 C1272.93121,1769.09186 1240.261,1660.13516 1217.60541,1542.95873 C1230.41439,1552.33249 1243.2278,1561.71952 1256.03679,1571.09328 L1256.03679,1571.09328 Z M226.617817,259.580373 L226.617817,258.899449 C231.194034,257.749837 235.770251,256.609068 240.342047,255.463878 C241.628694,255.928144 231.216141,259.770502 226.617817,259.580373 L226.617817,259.580373 Z M1559.37146,2151.01512 C1565.54825,2124.71111 1571.72504,2098.39384 1577.8974,2072.09425 C1585.90468,2027.4893 1593.91195,1982.87108 1601.91923,1938.26613 C1607.63176,1907.01437 1601.94576,1857.62526 1594.37621,1832.57256 C1591.96651,1824.62697 1586.70938,1816.48683 1584.75952,1809.23985 C1575.64688,1775.28208 1540.25746,1736.93367 1514.07796,1716.58996 C1494.15042,1701.10557 1473.58618,1685.67424 1451.62918,1671.98501 C1421.35098,1653.10042 1389.25114,1637.42148 1360.34801,1617.07776 C1345.23544,1606.43943 1332.13906,1593.28963 1317.80025,1582.07649 C1303.01044,1570.51405 1284.78074,1558.31932 1273.1965,1543.64408 C1277.76829,1544.0995 1282.34451,1544.55934 1286.92073,1545.01477 C1287.37172,1540.66835 1287.83597,1536.32193 1288.28696,1531.97551 C1295.03854,1517.45061 1325.3919,1520.55898 1334.27463,1507.27212 C1341.05274,1497.12016 1331.13981,1487.66681 1323.29171,1485.30568 C1329.29606,1471.88175 1349.42699,1468.85296 1357.60228,1457.17114 C1362.43937,1450.27346 1355.88233,1442.08469 1358.29203,1433.83843 L1378.8828,1402.26831 C1390.34766,1389.06988 1463.1471,1377.10949 1487.31041,1373.43958 C1488.89771,1357.49092 1489.83949,1336.22752 1490.05614,1318.53675 C1505.7435,1311.46664 1526.33427,1321.60533 1536.03938,1327.45951 C1539.25379,1329.40059 1548.74668,1336.15677 1555.94482,1332.95112 C1565.23875,1328.8081 1569.99182,1294.58945 1572.41036,1281.47945 C1572.64028,1275.53242 1572.8702,1269.58096 1573.09127,1263.63393 C1576.25704,1254.26901 1589.42859,1250.97493 1595.05711,1243.73238 C1610.15642,1224.30393 1627.57257,1193.64024 1660.25605,1192.94605 C1657.99226,1187.80375 1646.72636,1187.20683 1641.04036,1185.3984 C1624.11499,1179.90679 1607.18077,1174.41519 1590.25098,1168.928 C1585.20609,1160.49604 1589.62313,1157.66622 1590.94073,1149.02644 C1589.34016,1149.48187 1587.73959,1149.93729 1586.13902,1150.39714 C1580.87747,1140.55911 1575.61593,1130.72108 1570.34554,1120.88305 C1571.26963,1111.04945 1572.17603,1101.21142 1573.09127,1091.3734 C1574.45308,1082.89279 1569.48777,1075.39821 1573.78544,1068.72604 C1587.42124,1047.54222 1621.01112,1038.09329 1621.13492,1004.21511 C1624.00445,1007.0803 1626.06927,1008.41561 1632.11784,1008.3316 C1640.96519,1001.52678 1641.08899,993.015233 1652.70419,989.805163 C1657.42189,976.434289 1664.20442,960.485631 1667.11816,947.251827 C1671.65901,926.594181 1654.70711,910.340434 1649.27755,897.155267 C1645.75364,888.612765 1649.65337,883.815345 1651.33795,876.563945 C1652.80146,870.205706 1649.19354,866.597692 1648.59222,861.464232 C1658.65106,855.5172 1668.71874,849.565746 1678.78641,843.618714 C1675.86382,828.404039 1653.34972,803.80234 1661.6267,785.284741 C1667.13585,772.966205 1684.46358,774.076023 1688.39426,759.206232 C1680.19244,748.134582 1666.39304,740.617888 1660.94138,726.950768 C1656.09545,714.804674 1666.83519,707.425048 1663.68711,694.695304 C1660.92369,683.530802 1650.90465,677.384798 1646.5274,667.927028 C1643.5827,661.551102 1648.90615,655.104431 1647.21273,648.71524 C1640.46557,633.34581 1616.16519,628.260987 1602.60455,619.201159 C1611.08051,610.22092 1613.80413,610.163439 1610.84617,593.12265 C1613.85719,587.741581 1619.64046,582.882259 1624.5704,579.39805 L1624.5704,574.591787 C1617.5668,570.232104 1607.6804,566.058127 1597.11309,565.673449 C1594.6017,561.097109 1592.08147,556.520768 1589.56565,551.944427 C1588.19058,542.336323 1586.81992,532.728218 1585.44485,523.120114 C1579.92243,514.228306 1565.00441,511.265844 1558.68613,502.533213 C1556.21453,499.115328 1556.52404,494.353281 1554.56533,490.179304 C1552.54914,487.039979 1546.14686,484.360498 1542.21175,483.317004 C1543.23311,476.83496 1547.39371,473.775223 1549.76362,468.217291 C1548.77321,459.581935 1540.51833,460.722704 1537.41446,454.488269 C1532.82056,445.291372 1538.33855,433.01263 1535.34964,423.607918 C1531.37916,411.099254 1514.39189,408.039517 1511.33665,392.723146 C1521.08157,392.294252 1536.95905,387.505675 1537.41446,377.627854 C1532.65254,374.731716 1527.40426,373.414083 1525.05646,368.019749 C1512.47739,355.435918 1499.8939,342.852087 1487.31041,330.268255 C1493.47835,327.447284 1498.88581,324.95351 1498.98308,315.858309 C1492.66923,309.062333 1477.98996,307.868505 1464.66366,308.310663 C1462.02404,299.551503 1452.8274,288.908748 1442.70224,287.719341 C1441.55708,288.864532 1440.42076,290.009722 1439.2756,291.154913 C1441.85332,283.797395 1439.55415,275.86065 1437.8961,269.188478 C1440.88059,265.48319 1442.85699,265.65121 1442.70224,258.209682 C1431.88733,247.027493 1420.07318,229.367682 1403.58995,224.579105 C1390.57315,220.803072 1377.16727,231.193797 1366.5248,223.89376 C1360.45413,219.728626 1361.11735,210.111679 1356.91696,203.992205 C1351.19116,195.63983 1329.48618,188.640461 1317.11492,187.5218 C1314.33382,170.81263 1300.48579,171.581985 1291.03269,162.128636 C1285.96127,157.048235 1284.06888,147.563935 1277.31288,144.283119 C1253.5254,142.682505 1229.72464,141.081891 1205.93716,139.481277 C1202.51052,131.933631 1199.07946,124.381564 1195.64398,116.833918 C1190.16579,113.239169 1183.82983,113.928937 1179.17402,109.971618 C1169.36721,101.619244 1165.62665,86.7538742 1155.1522,79.0868455 C1145.46477,71.9946229 1127.45614,75.1427916 1115.35016,70.1640867 C1099.49479,63.6422486 1087.87959,50.5410917 1071.42732,44.0855774 C1056.8188,38.3507815 1050.28829,44.5896381 1039.85805,47.5167275 L1028.1898,47.5167275 C1025.90391,48.8874189 1023.61801,50.2625319 1021.32769,51.6332233 C1016.2828,50.0724037 1014.81045,31.0595875 1013.09492,26.2400597 C1004.955,20.8722553 995.347154,23.0078809 984.956709,24.8693683 C979.009838,24.413945 973.058545,23.9496786 967.116094,23.4986769 C951.786872,23.9496786 936.457649,24.413945 921.132848,24.8693683 C901.333524,21.3984239 888.732346,5.03413727 871.033217,0.846896121 C866.319935,-0.267343339 862.548424,4.12329073 859.36939,4.96339191 C850.858068,7.21840034 843.368105,1.97440034 837.407969,0.846896121 C831.270974,-0.307137605 827.707272,3.94200573 823.679317,4.96339191 C814.314652,7.34662631 809.818021,-0.572432715 799.661914,1.53666341 C786.71144,4.22498718 777.112437,16.1190513 777.015165,31.7316685 C774.499351,31.0463228 771.979115,30.3609771 769.463301,29.6712098 L769.463301,30.3609771 C772.774979,34.8931019 776.39616,38.5718607 779.756474,43.4002317 L779.756474,46.1460361 C779.301063,46.3715369 778.845652,46.5970378 778.385819,46.8313818 C763.520851,41.1142722 748.647039,35.392741 733.777649,29.6712098 C740.029602,37.9572604 747.497458,42.7281508 750.937359,54.3790277 C752.48045,55.5772772 752.825325,55.7895133 753.678668,57.8101777 C716.856699,50.7179551 680.017045,43.6257325 643.190654,36.5379315 C637.699194,31.5061676 632.207733,26.4699821 626.716272,21.4382182 L630.837079,26.929827 C627.180526,29.5341406 624.434796,33.4914594 623.974963,39.2837359 C613.995715,39.1555099 610.546971,35.7995268 604.069524,33.1067815 C603.158702,31.9571693 602.239037,30.8164003 601.328215,29.6712098 C602.928785,28.5304408 604.529356,27.3852503 606.129927,26.2400597 L607.505003,26.2400597 L607.505003,25.554714 C604.529356,26.4699821 601.558131,27.3852503 598.582484,28.2960968 C596.522081,26.929827 594.466099,25.554714 592.405696,24.1840226 C591.278223,23.1228422 590.805126,20.6998135 589.659966,18.6924138 C575.378631,19.5678877 552.506387,28.7559417 549.857929,41.339773 C555.787115,52.0576954 577.363869,56.4881238 591.03062,59.1852907 C587.144152,60.7859046 583.253262,62.3865184 579.362372,63.9871322 C577.076474,66.5030142 574.790576,69.0188961 572.504678,71.5347781 C538.649513,71.7647005 504.785505,71.9946229 470.934762,72.2245454 C475.718788,74.828859 485.242626,73.7986297 488.779798,77.7161541 C489.235209,78.3970782 489.69062,79.0868455 490.150453,79.7721912 C480.768102,91.807746 439.529089,99.7931288 422.210207,100.363513 C421.294963,104.020164 420.37972,107.681237 419.464476,111.342309 C412.107157,111.355574 412.001042,114.66292 407.106479,116.144151 C383.699238,108.450593 365.407634,140.785645 357.01127,152.520532 C351.488859,160.24062 341.602461,165.20606 339.855982,176.543004 C342.17283,180.756775 346.753469,183.825355 351.519809,185.465763 C351.979641,186.376609 352.435052,187.291878 352.894885,188.207146 C343.26051,200.963419 321.259296,212.105813 306.226312,219.091918 C305.770901,226.409641 305.311068,233.731787 304.855657,241.04951 C300.509356,241.279432 296.163055,241.509355 291.816754,241.739277 L290.441678,241.739277 C291.131427,244.485082 291.816754,247.226464 292.502081,249.97669 C279.321691,251.104195 268.780916,248.327439 258.187084,246.541119 C259.871662,248.809392 262.250411,250.909645 265.05362,252.032727 L265.05362,252.722495 C256.590935,253.177918 248.119406,253.637763 239.65672,254.093186 C224.172746,257.099864 214.091804,262.728542 195.052971,261.640832 C194.593139,262.786023 194.137728,263.926792 193.677895,265.076404 C200.062492,263.511163 208.215675,264.811109 214.95399,263.011523 C212.438175,269.4184 209.922361,275.825277 207.402126,282.227733 C205.691018,283.907935 207.079359,282.89097 203.971068,282.9175 C211.00562,292.370849 229.469662,292.914704 234.855008,303.5044 C235.540335,304.189746 236.230084,304.879513 236.91099,305.564859 C206.72122,313.342427 176.518186,321.119996 146.328416,328.897564 L146.328416,348.80354 C143.578264,348.113773 140.832534,347.428427 138.091225,346.743082 C138.86056,355.780802 144.214955,358.040232 147.009322,364.584178 C147.469154,365.273945 147.924565,365.959291 148.384398,366.644636 C144.723424,366.189213 141.06245,365.729368 137.401476,365.273945 L134.655746,369.390441 C130.8975,377.539422 138.595272,383.822495 140.832534,388.60665 L149.755052,397.529409 C142.663021,401.645905 135.57099,405.7624 128.48338,409.878896 C117.845332,424.872491 134.660168,439.410663 140.832534,448.311314 C136.384539,456.469139 128.523173,459.953348 120.931516,464.786141 C122.912332,474.610903 137.374948,481.897675 147.694649,483.317004 C125.512154,503.793365 117.133476,537.353196 121.621264,581.454087 C130.539361,581.330282 141.226045,583.151975 144.95334,588.320808 C147.261346,591.526458 156.303243,648.259817 156.617168,654.887773 C139.988034,665.119321 134.792812,675.023672 135.345495,702.928296 C129.323458,706.920987 124.256458,711.258562 114.069401,711.165709 C112.698746,716.480454 115.112866,722.175456 115.444476,728.325881 C100.19484,732.933173 98.3687749,751.729331 98.9700942,772.245486 C100.570665,772.475409 102.175657,772.705331 103.776228,772.930832 C100.296534,789.104991 67.4450419,795.436701 82.5001335,826.462964 C76.3321885,834.567729 63.7752251,840.987871 53.6765969,844.993827 C47.4069581,847.478758 39.567699,848.221584 35.146233,852.541473 C36.0614764,856.202545 36.9767199,859.863618 37.8919634,863.52469 C41.1505838,871.22267 51.9654895,870.117274 61.913788,869.701645 C60.538712,873.358296 59.1680576,877.02379 57.7929817,880.680441 C67.427356,897.195061 88.0446518,902.483277 92.7977277,924.604468 C92.5633901,931.69669 92.3378953,938.788913 92.1079791,945.881136 C97.8249346,944.961446 103.546312,944.050599 109.267688,943.135331 C114.573448,942.520731 112.464408,945.293065 114.754728,946.566481 C122.076675,946.111058 129.398623,945.651213 136.716149,945.191368 C135.45161,960.702289 140.014563,970.41209 142.892937,982.253095 C143.122853,992.086701 143.348348,1001.92915 143.578264,1011.76275 C158.332696,1007.3677 167.60451,989.301102 173.087128,976.076141 C174.002372,975.390795 174.917615,974.701028 175.832859,974.020104 C177.849047,986.06008 185.679463,1014.33612 173.776877,1021.37086 C178.830613,1023.08201 187.540901,1017.52408 194.363223,1020.68551 C216.647411,1031.00991 233.546254,1062.06271 252.700045,1076.96345 C250.869558,1083.59583 249.039071,1090.23263 247.208584,1096.865 C244.772356,1108.80771 247.610937,1121.50208 247.893911,1133.23696 C233.241173,1142.2172 223.107173,1157.80329 223.186759,1181.27749 C214.95399,1185.3984 206.716798,1189.5149 198.479607,1193.6314 C190.786257,1198.88866 186.594707,1207.66108 176.522607,1210.78715 C180.17916,1219.93983 183.840134,1229.09251 187.501107,1238.24077 C185.865165,1240.19511 183.977199,1240.65495 182.699395,1243.04261 C188.17317,1251.58511 197.559942,1253.46429 204.656395,1260.20278 C209.232613,1266.14981 213.80883,1272.10127 218.385047,1278.0483 C226.387901,1283.53549 234.395175,1289.0271 242.406872,1294.5187 C254.464209,1302.01771 274.042461,1306.7267 280.148505,1319.91187 C280.608338,1320.37171 281.063749,1320.82714 281.523581,1321.28256 C265.827377,1331.43452 236.327356,1331.54948 217.009971,1339.12808 C169.567641,1357.74737 143.326241,1380.33283 118.871113,1421.48452 C97.2368796,1457.89628 96.6665105,1505.16744 87.306267,1555.30822 C77.2120602,1609.37094 76.3764031,1664.50369 66.0301728,1720.02111 C58.9381414,1775.83478 51.8461099,1831.66171 44.7540785,1887.4798 C29.8891099,1980.12086 15.0152984,2072.78402 0.145908377,2165.42949 C0.831235602,2175.26752 1.52098429,2185.10112 2.20631152,2194.93915 C3.8068822,2214.15536 5.40745288,2233.37157 7.01244503,2252.58778 C15.4309162,2302.01226 12.0706021,2352.77647 22.7970785,2400.14049 C29.8493168,2431.30383 41.0488901,2457.67416 52.3059424,2483.86763 C63.6912173,2510.37061 82.8096361,2583.68492 101.030497,2598.48396 C115.356047,2610.11715 137.914366,2607.70297 154.556764,2600.54 C175.576414,2591.49786 198.059568,2582.74754 210.833183,2565.53431 C218.155131,2554.33001 225.477079,2543.12129 232.794605,2531.90815 C238.737055,2524.53295 253.734668,2524.26765 262.993217,2520.24843 C270.080827,2515.67209 277.17728,2511.09133 284.269312,2506.51941 C299.023743,2494.9835 310.201209,2475.74076 321.325618,2460.53935 C346.27595,2426.43566 369.59034,2392.2966 392.011594,2354.84578 C401.057914,2339.73722 422.364958,2307.13687 425.641264,2289.6495 C426.326592,2310.92617 427.011919,2332.19842 427.697246,2353.47508 L1559.37146,2151.01512 Z" id="Fill-4" fill="#7D1315" mask="url(#mask-2)"></path>
            </g>
        </g>
    </g>
</svg>