<?xml version="1.0" encoding="UTF-8"?>
<svg width="40px" height="45px" viewBox="0 0 40 45" version="1.1" xmlns="http://www.w3.org/2000/svg" xmlns:xlink="http://www.w3.org/1999/xlink">
    <!-- Generator: Sketch 42 (36781) - http://www.bohemiancoding.com/sketch -->
    <title>Shape</title>
    <desc>Created with Sketch.</desc>
    <defs></defs>
    <g id="Welcome" stroke="none" stroke-width="1" fill="none" fill-rule="evenodd">
        <g id="Desktop" transform="translate(-440.000000, -965.000000)" fill="#E535AB">
            <path d="M463.680711,970.116047 L472.86051,975.416323 C473.125535,975.135904 473.42967,974.89523 473.763497,974.701756 C475.66725,973.607245 478.0956,974.257091 479.20144,976.161 C480.295951,978.064909 479.646105,980.493103 477.742196,981.598944 C477.410855,981.789755 477.053797,981.931929 476.681986,982.021103 L476.681986,992.625535 C477.049736,992.714859 477.402904,992.856063 477.730866,993.044901 C479.646105,994.150742 480.295951,996.579091 479.19011,998.483 C478.0956,1000.38675 475.65592,1001.0366 473.752012,999.942244 C473.38317,999.730634 473.050897,999.460885 472.768007,999.1434 L463.644083,1004.41108 C463.777703,1004.81567 463.845562,1005.23907 463.845074,1005.66515 C463.845074,1007.85401 462.066727,1009.644 459.866375,1009.644 C457.666023,1009.644 455.887676,1007.86534 455.887676,1005.66515 C455.887676,1005.27403 455.94386,1004.89626 456.048624,1004.53944 L446.871309,999.240714 C446.60919,999.515572 446.309334,999.751778 445.980738,999.942244 C444.065499,1001.0366 441.63715,1000.38675 440.542639,998.483 C439.448284,996.579091 440.09813,994.150742 442.001884,993.044901 C442.329847,992.856028 442.683012,992.714773 443.050764,992.62538 L443.050764,982.021103 C442.678952,981.931929 442.321895,981.789755 441.990554,981.598944 C440.086645,980.504588 439.436798,978.064909 440.531309,976.161 C441.62582,974.257091 444.065344,973.607245 445.969253,974.701756 C446.301252,974.894198 446.603889,975.133328 446.867894,975.411822 L456.050331,970.110149 C455.942088,969.742761 455.887307,969.361701 455.887676,968.978699 C455.887676,966.778658 457.666023,965 459.866375,965 C462.066727,965 463.845074,966.778503 463.845074,968.978699 C463.845074,969.374163 463.787648,969.755814 463.680711,970.116047 Z M462.724333,971.749122 L471.926016,977.061814 C471.629976,978.096655 471.766465,979.207326 472.304253,980.139699 C472.86439,981.114081 473.776845,981.760047 474.789562,982.011791 L474.789562,992.629415 C474.737879,992.641987 474.686505,992.6558 474.635443,992.67039 L462.617397,971.855438 C462.653715,971.820671 462.689412,971.785285 462.724333,971.749277 L462.724333,971.749122 Z M457.117836,971.857766 L445.099946,992.672407 C445.047981,992.657383 444.995718,992.643411 444.943188,992.630502 L444.943188,982.011791 C445.955905,981.760047 446.86836,981.114081 447.428497,980.139699 C447.967379,979.205495 448.103348,978.092366 447.805182,977.055916 L457.004226,971.744776 C457.04132,971.783112 457.07919,971.820827 457.117836,971.85761 L457.117836,971.857766 Z M460.978114,972.800641 L472.993211,993.610626 C472.717988,993.873244 472.482079,994.174181 472.292767,994.504146 C472.103929,994.832108 471.962725,995.185276 471.873401,995.553026 L447.859659,995.553026 C447.770217,995.185266 447.628909,994.8321 447.439982,994.504146 C447.250011,994.176456 447.01455,993.877348 446.740625,993.615748 L458.758051,972.801572 C459.118339,972.905314 459.491448,972.957772 459.866375,972.957398 C460.252372,972.957398 460.625331,972.902766 460.978114,972.800641 L460.978114,972.800641 Z M462.808765,1002.98474 L471.950694,997.706506 C471.92329,997.620339 471.898805,997.53327 471.877282,997.44545 L447.854537,997.44545 C447.84181,997.497133 447.827997,997.548351 447.813252,997.599414 L456.99988,1002.90357 C457.749515,1002.12407 458.784912,1001.68444 459.866375,1001.68645 C460.98646,1001.68449 462.055192,1002.15605 462.808765,1002.98474 L462.808765,1002.98474 Z" id="Shape"></path>
        </g>
    </g>
</svg>