<?xml version="1.0" encoding="UTF-8"?>
<svg width="135px" height="126px" viewBox="0 0 135 126" version="1.1" xmlns="http://www.w3.org/2000/svg" xmlns:xlink="http://www.w3.org/1999/xlink">
    <!-- Generator: Sketch 42 (36781) - http://www.bohemiancoding.com/sketch -->
    <title>Page 1</title>
    <desc>Created with Sketch.</desc>
    <defs>
        <polygon id="path-1" points="0.6952 77 96.5452 77 96.5452 0.291574475 0.6952 0.291574475 0.6952 77"></polygon>
    </defs>
    <g id="Page-1" stroke="none" stroke-width="1" fill="none" fill-rule="evenodd">
        <g>
            <g id="Group-3" transform="translate(30.000000, 48.854000)">
                <mask id="mask-2" fill="white">
                    <use xlink:href="#path-1"></use>
                </mask>
                <g id="Clip-2"></g>
                <path d="M51.7612,72.6162 L27.6772,72.6162 L27.6772,42.3332 C27.6772,39.3202 30.1172,36.8782 33.1352,36.8782 L46.3032,36.8782 C49.3182,36.8782 51.7612,39.3202 51.7612,42.3332 L51.7612,72.6162 Z M94.3582,72.6162 L90.9252,72.6162 L90.9252,22.5282 L37.7412,0.4082 C37.7362,0.4072 37.7282,0.4052 37.7132,0.4002 C37.6772,0.3882 37.6072,0.3732 37.5122,0.3542 C37.3222,0.3182 37.0312,0.2922 36.7142,0.2922 C35.9682,0.2792 35.0522,0.4712 34.6522,0.6472 C34.5472,0.6872 34.4762,0.7232 34.4562,0.7352 L6.3192,19.6872 L6.3192,72.6162 L2.8882,72.6162 C1.6782,72.6162 0.6952,73.5952 0.6952,74.8042 C0.6952,76.0162 1.6782,77.0002 2.8882,77.0002 L94.3582,77.0002 C95.5692,77.0002 96.5452,76.0162 96.5452,74.8042 C96.5452,73.5952 95.5692,72.6162 94.3582,72.6162 L94.3582,72.6162 Z" id="Fill-1" fill="#3E424A" mask="url(#mask-2)"></path>
            </g>
            <path d="M132.7163,64.416 L113.4123,56.386 L113.4123,45.282 C113.4123,43.343 111.8413,41.775 109.9023,41.775 L99.0313,41.775 C97.0943,41.775 95.5273,43.343 95.5273,45.282 L95.5273,48.948 L71.9373,39.136 C70.3203,38.467 68.5253,38.19 66.7143,38.186 C63.7513,38.203 60.7213,38.91 58.3433,40.488 L22.8913,64.37 C21.8863,65.048 21.6203,66.409 22.2943,67.414 C22.9723,68.416 24.3323,68.685 25.3373,68.008 L60.7943,44.125 C62.1373,43.197 64.5113,42.556 66.7143,42.572 C68.0553,42.567 69.3403,42.798 70.2503,43.184 L131.0343,68.464 C131.3083,68.583 131.5953,68.632 131.8753,68.632 C132.7343,68.632 133.5523,68.123 133.9033,67.281 C134.3643,66.166 133.8353,64.881 132.7163,64.416" id="Fill-4" fill="#3E424A"></path>
            <path d="M29.6914,53.3422 C16.6274,53.3422 6.0384,42.7532 6.0384,29.6912 C6.0384,16.6262 16.6274,6.0372 29.6914,6.0372 C42.7544,6.0372 53.3414,16.6262 53.3414,29.6912 C53.3414,42.7532 42.7544,53.3422 29.6914,53.3422 M29.6914,0.0002 C13.2924,0.0002 0.0004,13.2912 0.0004,29.6912 C0.0004,46.0892 13.2924,59.3812 29.6914,59.3812 C46.0904,59.3812 59.3824,46.0892 59.3824,29.6912 C59.3824,13.2912 46.0904,0.0002 29.6914,0.0002" id="Fill-6" fill="#5CC9FF"></path>
            <path d="M31.9589,10.3227 C30.7119,10.1787 29.6909,11.0797 29.6909,12.1757 C29.6909,13.2707 30.7139,14.1407 31.9559,14.3227 C38.7209,15.3107 44.0709,20.6587 45.0589,27.4257 C45.2399,28.6667 46.1099,29.6907 47.2069,29.6907 C48.3009,29.6907 49.2029,28.6697 49.0589,27.4227 C48.0209,18.4657 40.9169,11.3597 31.9589,10.3227" id="Fill-8" fill="#5CC9FF"></path>
        </g>
    </g>
</svg>