<?xml version="1.0" encoding="UTF-8"?>
<svg width="41px" height="45px" viewBox="0 0 41 45" version="1.1" xmlns="http://www.w3.org/2000/svg" xmlns:xlink="http://www.w3.org/1999/xlink">
    <!-- Generator: Sketch 42 (36781) - http://www.bohemiancoding.com/sketch -->
    <title>Group</title>
    <desc>Created with Sketch.</desc>
    <defs></defs>
    <g id="Welcome" stroke="none" stroke-width="1" fill="none" fill-rule="evenodd">
        <g id="Desktop" transform="translate(-492.000000, -965.000000)" fill-rule="nonzero" fill="#8CC84B">
            <g id="Group" transform="translate(492.000000, 965.000000)">
                <path d="M18.6588438,0.571276596 C19.7738516,-0.0646276596 21.2261484,-0.0675 22.3401953,0.571276596 C27.9448633,3.72670213 33.551293,6.87718085 39.155,10.0345213 C40.2089883,10.6260638 40.9139961,11.7947872 40.9032656,13.0048404 L40.9032656,31.9890957 C40.9111133,33.2492553 40.1364375,34.4459043 39.0244727,35.0240426 C33.4382227,38.1620745 27.8548555,41.3039362 22.2695664,44.4419681 C21.1314961,45.0903191 19.6500508,45.0403723 18.5475352,44.338883 C16.8727813,43.3715426 15.1951445,42.4089894 13.5202305,41.4426064 C13.1779766,41.2393085 12.7921602,41.0775 12.5504844,40.7468617 C12.7641328,40.4599468 13.1461055,40.4242021 13.4564883,40.2989362 C14.1555703,40.0774468 14.7976367,39.7219149 15.4398633,39.3769149 C15.6022617,39.2661702 15.8005352,39.308617 15.956207,39.4077128 C17.3883242,40.2258511 18.8077891,41.067766 20.2447109,41.8780851 C20.55125,42.0544149 20.8616328,41.8203191 21.1236484,41.6747872 C26.6054766,38.5878191 32.0940313,35.5125 37.5748984,32.4245745 C37.7779766,32.327234 37.8902461,32.1124468 37.87375,31.8907979 C37.8775938,25.6282979 37.8747109,19.3646809 37.8756719,13.1021809 C37.8988945,12.8506915 37.752832,12.6194681 37.5246094,12.5165426 C31.9577383,9.39287234 26.39375,6.26441489 20.8278398,3.13994681 C20.6304525,3.00473824 20.3699444,3.00435784 20.1721602,3.13898936 C14.60625,6.26441489 9.04322266,9.39574468 3.4773125,12.5192553 C3.24989063,12.6223404 3.09726172,12.849734 3.12432813,13.1021809 C3.12528906,19.3646809 3.12432813,25.6282979 3.12432813,31.8917553 C3.10456111,32.1132542 3.22535005,32.3235804 3.42702344,32.4188298 C4.9123125,33.2580319 6.39952344,34.0913298 7.88577344,34.9276596 C8.72307031,35.3767021 9.75111328,35.6435106 10.6736133,35.2994681 C11.4876875,35.0085638 12.0583242,34.1808511 12.0427891,33.3196277 C12.0504766,27.0936702 12.0389453,20.8667553 12.0485547,14.6417553 C12.0282148,14.3653723 12.2913516,14.1370213 12.5610547,14.1630319 C13.2747109,14.1582447 13.9893281,14.1534574 14.7029844,14.1649468 C15.000875,14.1582447 15.205875,14.4558511 15.1690391,14.7343085 C15.1661563,20.9996809 15.1767266,27.2652128 15.1642344,33.5305851 C15.1661563,35.2003723 14.4776445,37.0172872 12.9274922,37.8343085 C11.0177891,38.82 8.65740625,38.6109574 6.77076563,37.6657979 C5.13749219,36.8535638 3.57885156,35.895 1.97456641,35.0248404 C0.85971875,34.4498936 0.0888867188,33.2484574 0.096734375,31.9892553 L0.096734375,13.0048404 C0.0850429688,11.769734 0.818078125,10.5797872 1.90489844,9.9968617 C7.4901875,6.8562766 13.0745156,3.71329787 18.6588438,0.571276596 Z" id="Shape"></path>
                <path d="M23.5314375,13.7218085 C25.9674141,13.5655851 28.5752383,13.6292553 30.7672969,14.8249468 C32.4644727,15.7412234 33.4053906,17.6642553 33.4353398,19.5429255 C33.3879336,19.7963298 33.1220742,19.936117 32.8792773,19.9187234 C32.1725078,19.917766 31.4655781,19.9282979 30.7588086,19.9139362 C30.4589961,19.9254255 30.2847461,19.65 30.2471094,19.3859043 C30.0440312,18.4870213 29.5520312,17.5967553 28.7028828,17.1631915 C27.3993711,16.5129255 25.8879766,16.5456383 24.4665898,16.5592021 C23.4289375,16.6140957 22.3131289,16.703617 21.4340312,17.3115957 C20.7591328,17.7721277 20.5541328,18.7018085 20.7950078,19.4505319 C21.0221094,19.9881383 21.644957,20.1615957 22.1545742,20.3214894 C25.0902383,21.0864894 28.2011133,21.0103723 31.0807227,22.0171277 C32.2729258,22.4275532 33.4391836,23.2254255 33.8472617,24.4691489 C34.3810625,26.1360638 34.1470742,28.1285106 32.956793,29.4667021 C31.9915312,30.5679255 30.5856797,31.1672872 29.1835117,31.4928191 C27.3181719,31.907234 25.3823633,31.917766 23.4880352,31.7337766 C21.7067773,31.5314362 19.8531289,31.0651596 18.4780273,29.8559043 C17.3021602,28.838617 16.7278398,27.2535638 16.7848555,25.7237234 C16.7984687,25.4653723 17.0566406,25.2852128 17.305043,25.3064362 C18.0167773,25.3006915 18.7285117,25.2987766 19.4402461,25.3073936 C19.7245234,25.2871277 19.9352891,25.5319149 19.9498633,25.798883 C20.0811914,26.6553191 20.4042266,27.5542021 21.1537578,28.0619681 C22.6002891,28.9918085 24.4153398,28.9281383 26.0716758,28.9541489 C27.4438945,28.8935106 28.9842773,28.8751596 30.1040898,27.9714894 C30.6949062,27.4560638 30.869957,26.5937234 30.7102812,25.8518617 C30.5373125,25.2255319 29.8797109,24.9336702 29.315,24.7428191 C26.4169727,23.8294149 23.2713437,24.1608511 20.4013437,23.1279255 C19.236207,22.7176596 18.1095078,21.9419681 17.6618711,20.7493085 C17.0372617,19.0613298 17.3234609,16.9734574 18.6385039,15.6804255 C19.9207148,14.3942553 21.7716406,13.8989362 23.5314375,13.7216489 L23.5314375,13.7218085 Z" id="Shape"></path>
            </g>
        </g>
    </g>
</svg>