<?xml version="1.0" encoding="UTF-8"?>
<svg width="3146px" height="2800px" viewBox="0 0 3146 2800" version="1.1" xmlns="http://www.w3.org/2000/svg" xmlns:xlink="http://www.w3.org/1999/xlink">
    <!-- Generator: Sketch 42 (36781) - http://www.bohemiancoding.com/sketch -->
    <title>Page 1</title>
    <desc>Created with Sketch.</desc>
    <defs></defs>
    <g id="Page-3" stroke="none" stroke-width="1" fill="none" fill-rule="evenodd">
        <g id="Page-1" transform="translate(73.000000, 73.000000)">
            <path d="M1500.15953,1044.62319 C1654.71039,1044.62319 1779.99923,1169.90586 1779.99923,1324.44911 C1779.99923,1478.99329 1654.71039,1604.27503 1500.15953,1604.27503 C1345.60866,1604.27503 1220.31982,1478.99329 1220.31982,1324.44911 C1220.31982,1169.90586 1345.60866,1044.62319 1500.15953,1044.62319" id="Fill-1" fill="#00D8FF"></path>
            <path d="M1500.15953,755.549967 C1875.80687,755.549967 2224.81951,809.462232 2487.92062,899.994149 C2804.93758,1009.11331 2999.88209,1174.54906 2999.88209,1324.35673 C2999.88209,1480.45262 2793.28622,1656.24544 2452.87223,1768.97108 C2195.50478,1854.23199 1856.75539,1898.80439 1500.15953,1898.80439 C1134.49985,1898.80439 788.353113,1857.0062 528.026356,1768.04634 C198.710697,1655.50565 0.344482121,1477.49345 0.344482121,1324.35673 C0.344482121,1175.75122 186.503545,1011.61011 499.08061,902.675891 C763.199908,810.664392 1120.81304,755.549967 1500.15953,755.549967 Z" id="Stroke-3" stroke="#00D8FF" stroke-width="144.746"></path>
            <path d="M1004.93758,1041.66384 C1192.57629,716.248296 1413.6922,440.861119 1623.61822,258.22523 C1876.5467,38.1374252 2117.26803,-48.0482194 2247.01433,26.7631394 C2382.21871,104.71861 2431.32475,371.505718 2358.91322,722.813941 C2304.16692,988.398889 2173.58739,1304.0122 1995.38147,1612.96739 C1812.73659,1929.69039 1603.5504,2208.68405 1396.49121,2389.74788 C1134.49985,2618.80565 881.10897,2701.66316 748.494914,2625.18635 C619.764951,2550.93075 570.56643,2307.72448 632.249538,1982.49297 C684.407367,1707.47661 815.356813,1370.22441 1004.93758,1041.66384 L1004.93758,1041.66384 Z" id="Stroke-5" stroke="#00D8FF" stroke-width="144.746"></path>
            <path d="M1005.39997,1613.61471 C817.206381,1288.47659 689.031289,959.454568 635.578761,686.379237 C571.213779,357.358141 616.713163,105.736747 746.36791,30.7395157 C881.478884,-47.4933762 1137.08924,43.2234879 1405.27666,281.343697 C1608.08184,461.391242 1816.25077,732.153801 1994.91908,1040.8325 C2178.11791,1357.27715 2315.44837,1677.79157 2368.80934,1947.53877 C2436.41107,2288.95136 2381.66384,2549.82014 2249.14226,2626.48098 C2120.50478,2700.92244 1885.23967,2622.13563 1634.25324,2406.20915 C1422.29269,2223.75729 1195.44313,1941.89694 1005.39997,1613.61563 L1005.39997,1613.61471 Z" id="Stroke-7" stroke="#00D8FF" stroke-width="144.746"></path>
        </g>
    </g>
</svg>