<?xml version="1.0" encoding="UTF-8"?>
<svg width="40px" height="40px" viewBox="0 0 40 40" version="1.1" xmlns="http://www.w3.org/2000/svg" xmlns:xlink="http://www.w3.org/1999/xlink">
    <!-- Generator: Sketch 42 (36781) - http://www.bohemiancoding.com/sketch -->
    <title>ruby</title>
    <desc>Created with Sketch.</desc>
    <defs>
        <linearGradient x1="84.6979629%" y1="111.399%" x2="58.2416399%" y2="64.584%" id="linearGradient-1">
            <stop stop-color="#FB7655" offset="0%"></stop>
            <stop stop-color="#FB7655" offset="0%"></stop>
            <stop stop-color="#E42B1E" offset="41%"></stop>
            <stop stop-color="#990000" offset="99%"></stop>
            <stop stop-color="#990000" offset="100%"></stop>
        </linearGradient>
        <linearGradient x1="116.651%" y1="53.1700423%" x2="1.746%" y2="41.0598402%" id="linearGradient-2">
            <stop stop-color="#871101" offset="0%"></stop>
            <stop stop-color="#871101" offset="0%"></stop>
            <stop stop-color="#911209" offset="99%"></stop>
            <stop stop-color="#911209" offset="100%"></stop>
        </linearGradient>
        <linearGradient x1="50.3513026%" y1="219.327%" x2="49.8497689%" y2="7.829%" id="linearGradient-3">
            <stop stop-color="#871101" offset="0%"></stop>
            <stop stop-color="#871101" offset="0%"></stop>
            <stop stop-color="#911209" offset="99%"></stop>
            <stop stop-color="#911209" offset="100%"></stop>
        </linearGradient>
        <linearGradient x1="50.012%" y1="30.7036561%" x2="66.483%" y2="63.1459332%" id="linearGradient-4">
            <stop stop-color="#FFFFFF" offset="0%"></stop>
            <stop stop-color="#FFFFFF" offset="0%"></stop>
            <stop stop-color="#E57252" offset="23%"></stop>
            <stop stop-color="#DE3B20" offset="46%"></stop>
            <stop stop-color="#A60003" offset="99%"></stop>
            <stop stop-color="#A60003" offset="100%"></stop>
        </linearGradient>
        <linearGradient x1="46.174%" y1="17.2901429%" x2="49.932%" y2="82.1217951%" id="linearGradient-5">
            <stop stop-color="#FFFFFF" offset="0%"></stop>
            <stop stop-color="#FFFFFF" offset="0%"></stop>
            <stop stop-color="#E4714E" offset="23%"></stop>
            <stop stop-color="#BE1A0D" offset="56%"></stop>
            <stop stop-color="#A80D00" offset="99%"></stop>
            <stop stop-color="#A80D00" offset="100%"></stop>
        </linearGradient>
        <linearGradient x1="43.5365286%" y1="15.594%" x2="49.7659564%" y2="92.478%" id="linearGradient-6">
            <stop stop-color="#FFFFFF" offset="0%"></stop>
            <stop stop-color="#FFFFFF" offset="0%"></stop>
            <stop stop-color="#E46342" offset="18%"></stop>
            <stop stop-color="#C82410" offset="40%"></stop>
            <stop stop-color="#A80D00" offset="99%"></stop>
            <stop stop-color="#A80D00" offset="100%"></stop>
        </linearGradient>
        <linearGradient x1="45.7087807%" y1="58.346%" x2="54.2172836%" y2="-46.717%" id="linearGradient-7">
            <stop stop-color="#FFFFFF" offset="0%"></stop>
            <stop stop-color="#FFFFFF" offset="0%"></stop>
            <stop stop-color="#C81F11" offset="54%"></stop>
            <stop stop-color="#BF0905" offset="99%"></stop>
            <stop stop-color="#BF0905" offset="100%"></stop>
        </linearGradient>
        <linearGradient x1="27.624%" y1="48.1928071%" x2="50.745%" y2="51.8191511%" id="linearGradient-8">
            <stop stop-color="#FFFFFF" offset="0%"></stop>
            <stop stop-color="#FFFFFF" offset="0%"></stop>
            <stop stop-color="#DE4024" offset="31%"></stop>
            <stop stop-color="#BF190B" offset="99%"></stop>
            <stop stop-color="#BF190B" offset="100%"></stop>
        </linearGradient>
        <linearGradient x1="-20.4656744%" y1="122.282%" x2="104.087468%" y2="-6.342%" id="linearGradient-9">
            <stop stop-color="#BD0012" offset="0%"></stop>
            <stop stop-color="#BD0012" offset="0%"></stop>
            <stop stop-color="#FFFFFF" offset="7%"></stop>
            <stop stop-color="#FFFFFF" offset="17%"></stop>
            <stop stop-color="#C82F1C" offset="27%"></stop>
            <stop stop-color="#820C01" offset="33%"></stop>
            <stop stop-color="#A31601" offset="46%"></stop>
            <stop stop-color="#B31301" offset="72%"></stop>
            <stop stop-color="#E82609" offset="99%"></stop>
            <stop stop-color="#E82609" offset="100%"></stop>
        </linearGradient>
        <linearGradient x1="55.166296%" y1="65.205%" x2="27.6495412%" y2="50.128%" id="linearGradient-10">
            <stop stop-color="#8C0C01" offset="0%"></stop>
            <stop stop-color="#8C0C01" offset="0%"></stop>
            <stop stop-color="#990C00" offset="54%"></stop>
            <stop stop-color="#A80D0E" offset="99%"></stop>
            <stop stop-color="#A80D0E" offset="100%"></stop>
        </linearGradient>
        <linearGradient x1="79.319%" y1="60.1076744%" x2="23.088%" y2="24.5509141%" id="linearGradient-11">
            <stop stop-color="#7E110B" offset="0%"></stop>
            <stop stop-color="#7E110B" offset="0%"></stop>
            <stop stop-color="#9E0C00" offset="99%"></stop>
            <stop stop-color="#9E0C00" offset="100%"></stop>
        </linearGradient>
        <linearGradient x1="92.88%" y1="72.9056962%" x2="59.841%" y2="40.2231553%" id="linearGradient-12">
            <stop stop-color="#79130D" offset="0%"></stop>
            <stop stop-color="#79130D" offset="0%"></stop>
            <stop stop-color="#9E120B" offset="99%"></stop>
            <stop stop-color="#9E120B" offset="100%"></stop>
        </linearGradient>
        <radialGradient cx="32.001%" cy="40.21%" fx="32.001%" fy="40.21%" r="69.573%" id="radialGradient-13">
            <stop stop-color="#A80D00" offset="0%"></stop>
            <stop stop-color="#A80D00" offset="0%"></stop>
            <stop stop-color="#7E0E08" offset="99%"></stop>
            <stop stop-color="#7E0E08" offset="100%"></stop>
        </radialGradient>
        <radialGradient cx="13.549%" cy="40.86%" fx="13.549%" fy="40.86%" r="88.386%" id="radialGradient-14">
            <stop stop-color="#A30C00" offset="0%"></stop>
            <stop stop-color="#A30C00" offset="0%"></stop>
            <stop stop-color="#800E08" offset="99%"></stop>
            <stop stop-color="#800E08" offset="100%"></stop>
        </radialGradient>
        <linearGradient x1="56.57%" y1="62.6530941%" x2="3.105%" y2="40.7011979%" id="linearGradient-15">
            <stop stop-color="#8B2114" offset="0%"></stop>
            <stop stop-color="#8B2114" offset="0%"></stop>
            <stop stop-color="#9E100A" offset="43%"></stop>
            <stop stop-color="#B3100C" offset="99%"></stop>
            <stop stop-color="#B3100C" offset="100%"></stop>
        </linearGradient>
        <linearGradient x1="46.662197%" y1="35.599%" x2="57.4103413%" y2="100.694%" id="linearGradient-16">
            <stop stop-color="#B31000" offset="0%"></stop>
            <stop stop-color="#B31000" offset="0%"></stop>
            <stop stop-color="#910F08" offset="44%"></stop>
            <stop stop-color="#791C12" offset="99%"></stop>
            <stop stop-color="#791C12" offset="100%"></stop>
        </linearGradient>
    </defs>
    <g id="Welcome" stroke="none" stroke-width="1" fill="none" fill-rule="evenodd">
        <g id="Desktop" transform="translate(-546.000000, -967.000000)" fill-rule="nonzero">
            <g id="ruby" transform="translate(546.000000, 967.000000)">
                <polygon id="Shape" fill="url(#linearGradient-1)" points="30.9752157 26.3159216 8.14854902 39.8704314 37.7049412 37.8646275 39.9811765 8.06164706 30.9750588 26.3157647"></polygon>
                <polygon id="Shape" fill="url(#linearGradient-2)" points="37.7532549 37.8442353 35.2128627 20.3105882 28.2931765 29.4478431 37.7532549 37.8443922"></polygon>
                <polygon id="Shape" fill="url(#linearGradient-3)" points="37.7876078 37.8442353 19.1764706 36.3833725 8.24721569 39.8321569"></polygon>
                <polygon id="Shape" fill="url(#linearGradient-4)" points="8.27356863 39.8360784 12.9229804 24.6047059 2.69176471 26.7921569 8.27341176 39.8359216"></polygon>
                <polygon id="Shape" fill="url(#linearGradient-5)" points="28.291451 29.4980392 24.0133333 12.7413333 11.7706667 24.2174118 28.291451 29.4983529"></polygon>
                <polygon id="Shape" fill="url(#linearGradient-6)" points="39.0106667 12.9772549 27.4378039 3.52533333 24.2152157 13.9438431 39.0106667 12.9772549"></polygon>
                <polygon id="Shape" fill="url(#linearGradient-7)" points="33.5985882 0.155294118 26.7921569 3.91686275 22.4978824 0.104941176 33.5985882 0.15545098"></polygon>
                <polygon id="Shape" fill="url(#linearGradient-8)" points="0 31.9014902 2.85129412 26.7013333 0.544784314 20.5061961"></polygon>
                <path d="M0.391529412,20.3105882 L2.71215686,26.8930196 L12.7957647,24.6307451 L24.3079216,13.9316078 L27.5568627,3.61207843 L22.4412549,0 L13.744,3.25490196 C11.0037647,5.80360784 5.68658824,10.8464314 5.49490196,10.9411765 C5.30509804,11.0381176 1.98368627,17.3159216 0.391529412,20.3105882 L0.391529412,20.3105882 Z" id="Shape" fill="#FFFFFF"></path>
                <path d="M8.53992157,8.48533333 C14.4787451,2.59701961 22.1347451,-0.881882353 25.0727843,2.0825098 C28.0092549,5.04690196 24.8952157,12.2508235 18.9563922,18.1372549 C13.0175686,24.0235294 5.45647059,27.6941176 2.52031373,24.7297255 C-0.41772549,21.7673725 2.60109804,14.3717647 8.53992157,8.48533333 L8.53992157,8.48533333 Z" id="Shape" fill="url(#linearGradient-9)"></path>
                <path d="M8.27356863,39.8299608 L12.8865882,24.5501176 L28.2065882,29.4718431 C22.667451,34.6660392 16.5066667,39.057098 8.27356863,39.8299608 L8.27356863,39.8299608 Z" id="Shape" fill="url(#linearGradient-10)"></path>
                <path d="M24.3281569,13.9014902 L28.2611765,29.48 C32.8883137,24.6147451 37.041098,19.3843137 39.0749804,12.9148235 L24.3283137,13.9014902 L24.3281569,13.9014902 Z" id="Shape" fill="url(#linearGradient-11)"></path>
                <path d="M39.0348235,12.9934118 C40.6089412,8.24329412 40.9720784,1.42870588 33.5499608,0.16345098 L27.4597647,3.52737255 L39.0348235,12.9934118 L39.0348235,12.9934118 Z" id="Shape" fill="url(#linearGradient-12)"></path>
                <path d="M0,31.8329412 C0.218039216,39.6727843 5.87419608,39.7896471 8.28360784,39.8583529 L2.71811765,26.8607059 L0,31.8329412 Z" id="Shape" fill="#9E1209"></path>
                <path d="M24.3501176,13.9258039 C27.9057255,16.1112157 35.0716863,20.5002353 35.2169412,20.5808627 C35.4428235,20.7079216 38.3063529,15.752 38.9562353,12.9510588 L24.3501176,13.9258039 L24.3501176,13.9258039 Z" id="Shape" fill="url(#radialGradient-13)"></path>
                <path d="M12.8804706,24.5501176 L19.0472157,36.4478431 C22.6936471,34.4702745 25.5491765,32.0608627 28.1642353,29.48 L12.8804706,24.5501176 Z" id="Shape" fill="url(#radialGradient-14)"></path>
                <path d="M2.69396078,26.8768627 L1.82023529,37.2812549 C3.46886275,39.5333333 5.73709804,39.729098 8.11607843,39.5535686 C6.39482353,35.2694902 2.95623529,26.7033725 2.69396078,26.8768627 Z" id="Shape" fill="url(#linearGradient-15)"></path>
                <path d="M27.4236863,3.55356863 L39.6746667,5.27278431 C39.0207059,2.50227451 37.0128627,0.714352941 33.5904314,0.15545098 L27.4236863,3.55356863 L27.4236863,3.55356863 Z" id="Shape" fill="url(#linearGradient-16)"></path>
            </g>
        </g>
    </g>
</svg>